G04 #@! TF.FileFunction,Legend,Bot*
%FSLAX46Y46*%
G04 Gerber Fmt 4.6, Leading zero omitted, Abs format (unit mm)*
G04 Created by KiCad (PCBNEW 4.0.6+dfsg1-1) date Sat Mar 24 19:44:59 2018*
%MOMM*%
%LPD*%
G01*
G04 APERTURE LIST*
%ADD10C,0.100000*%
%ADD11C,0.250000*%
%ADD12C,0.150000*%
%ADD13C,0.381000*%
G04 APERTURE END LIST*
D10*
D11*
X189039088Y-139294849D02*
X189048110Y-139445163D01*
X188986486Y-139675146D01*
X188915841Y-139754814D01*
X188857520Y-139788486D01*
X188753202Y-139809833D01*
X188661209Y-139785183D01*
X188581541Y-139714537D01*
X188547869Y-139656216D01*
X188526521Y-139551898D01*
X188529824Y-139355587D01*
X188508477Y-139251269D01*
X188474805Y-139192948D01*
X188395137Y-139122302D01*
X188303144Y-139097653D01*
X188198827Y-139119000D01*
X188140506Y-139152672D01*
X188069860Y-139232340D01*
X188008236Y-139462323D01*
X188017258Y-139612637D01*
X188826265Y-140273099D02*
X187860339Y-140014280D01*
X187798716Y-140244262D01*
X187807738Y-140394577D01*
X187875081Y-140511219D01*
X187954750Y-140581865D01*
X188126411Y-140677160D01*
X188264401Y-140714135D01*
X188460711Y-140717437D01*
X188565029Y-140696090D01*
X188681671Y-140628747D01*
X188764642Y-140503081D01*
X188826265Y-140273099D01*
X188444199Y-141698990D02*
X188567446Y-141239025D01*
X187601520Y-140980206D01*
X191305250Y-140091850D02*
X191314273Y-140242164D01*
X191252649Y-140472147D01*
X191182003Y-140551815D01*
X191123682Y-140585487D01*
X191019364Y-140606834D01*
X190927372Y-140582184D01*
X190847703Y-140511539D01*
X190814032Y-140453217D01*
X190792684Y-140348900D01*
X190795986Y-140152588D01*
X190774639Y-140048271D01*
X190740968Y-139989950D01*
X190661300Y-139919304D01*
X190569307Y-139894654D01*
X190464989Y-139916001D01*
X190406668Y-139949673D01*
X190336022Y-140029341D01*
X190274398Y-140259324D01*
X190283421Y-140409638D01*
X191092428Y-141070100D02*
X190126502Y-140811281D01*
X190064878Y-141041264D01*
X190073900Y-141191578D01*
X190141244Y-141308221D01*
X190220912Y-141378867D01*
X190392573Y-141474162D01*
X190530563Y-141511136D01*
X190726874Y-141514439D01*
X190831191Y-141493092D01*
X190947833Y-141425748D01*
X191030804Y-141300083D01*
X191092428Y-141070100D01*
X190569955Y-141916082D02*
X190446708Y-142376047D01*
X190870583Y-141898037D02*
X189818384Y-141961193D01*
X190698037Y-142541988D01*
X192701483Y-140442358D02*
X192541262Y-141040312D01*
X192995506Y-140816934D01*
X192958532Y-140954924D01*
X192979879Y-141059242D01*
X193013551Y-141117563D01*
X193093220Y-141188209D01*
X193323202Y-141249833D01*
X193427520Y-141228486D01*
X193485841Y-141194814D01*
X193556486Y-141115146D01*
X193630435Y-140839166D01*
X193609088Y-140734849D01*
X193575416Y-140676527D01*
X192467314Y-141316291D02*
X193346966Y-141897085D01*
X192294767Y-141960242D01*
X192233144Y-142190224D02*
X192072923Y-142788178D01*
X192527167Y-142564800D01*
X192490193Y-142702790D01*
X192511540Y-142807108D01*
X192545211Y-142865429D01*
X192624881Y-142936075D01*
X192854863Y-142997698D01*
X192959180Y-142976351D01*
X193017501Y-142942680D01*
X193088147Y-142863012D01*
X193162096Y-142587032D01*
X193140749Y-142482715D01*
X193107077Y-142424393D01*
X195201483Y-140832358D02*
X195041262Y-141430312D01*
X195495506Y-141206934D01*
X195458532Y-141344924D01*
X195479879Y-141449242D01*
X195513551Y-141507563D01*
X195593220Y-141578209D01*
X195823202Y-141639833D01*
X195927520Y-141618486D01*
X195985841Y-141584814D01*
X196056486Y-141505146D01*
X196130435Y-141229166D01*
X196109088Y-141124849D01*
X196075416Y-141066527D01*
X194967314Y-141706291D02*
X195846966Y-142287085D01*
X194794767Y-142350242D01*
X194733144Y-142580224D02*
X194572923Y-143178178D01*
X195027167Y-142954800D01*
X194990193Y-143092790D01*
X195011540Y-143197108D01*
X195045211Y-143255429D01*
X195124881Y-143326075D01*
X195354863Y-143387698D01*
X195459180Y-143366351D01*
X195517501Y-143332680D01*
X195588147Y-143253012D01*
X195662096Y-142977032D01*
X195640749Y-142872715D01*
X195607077Y-142814393D01*
X186879088Y-146934849D02*
X186888110Y-147085163D01*
X186826486Y-147315146D01*
X186755841Y-147394814D01*
X186697520Y-147428486D01*
X186593202Y-147449833D01*
X186501209Y-147425183D01*
X186421541Y-147354537D01*
X186387869Y-147296216D01*
X186366521Y-147191898D01*
X186369824Y-146995587D01*
X186348477Y-146891269D01*
X186314805Y-146832948D01*
X186235137Y-146762302D01*
X186143144Y-146737653D01*
X186038827Y-146759000D01*
X185980506Y-146792672D01*
X185909860Y-146872340D01*
X185848236Y-147102323D01*
X185857258Y-147252637D01*
X186666265Y-147913099D02*
X185700339Y-147654280D01*
X185638716Y-147884262D01*
X185647738Y-148034577D01*
X185715081Y-148151219D01*
X185794750Y-148221865D01*
X185966411Y-148317160D01*
X186104401Y-148354135D01*
X186300711Y-148357437D01*
X186405029Y-148336090D01*
X186521671Y-148268747D01*
X186604642Y-148143081D01*
X186666265Y-147913099D01*
X186284199Y-149338990D02*
X186407446Y-148879025D01*
X185441520Y-148620206D01*
X181363321Y-146603682D02*
X181535868Y-145959731D01*
X181486569Y-146143716D02*
X181465222Y-146039399D01*
X181431550Y-145981078D01*
X181351882Y-145910432D01*
X181259888Y-145885782D01*
X180259405Y-146307888D02*
X180811363Y-146455785D01*
X180535385Y-146381837D02*
X180794204Y-145415911D01*
X180849223Y-145578550D01*
X180916566Y-145695192D01*
X180996234Y-145765838D01*
X179109494Y-145999770D02*
X179282040Y-145355819D01*
X179232741Y-145539805D02*
X179211394Y-145435488D01*
X179177722Y-145377166D01*
X179098054Y-145306521D01*
X179006060Y-145281871D01*
X178862351Y-144898272D02*
X178264397Y-144738051D01*
X178487775Y-145192296D01*
X178349785Y-145155321D01*
X178245467Y-145176668D01*
X178187146Y-145210340D01*
X178116500Y-145290009D01*
X178054877Y-145519991D01*
X178076224Y-145624309D01*
X178109895Y-145682630D01*
X178189564Y-145753276D01*
X178465543Y-145827224D01*
X178569861Y-145805877D01*
X178628182Y-145772205D01*
X176855666Y-145395859D02*
X177028212Y-144751908D01*
X176978914Y-144935894D02*
X176957567Y-144831576D01*
X176923895Y-144773255D01*
X176844227Y-144702609D01*
X176752233Y-144677960D01*
X176056566Y-144146464D02*
X176516531Y-144269712D01*
X176439280Y-144742001D01*
X176405609Y-144683680D01*
X176325940Y-144613034D01*
X176095957Y-144551410D01*
X175991640Y-144572757D01*
X175933319Y-144606429D01*
X175862673Y-144686098D01*
X175801049Y-144916080D01*
X175822396Y-145020397D01*
X175856068Y-145078719D01*
X175935736Y-145149364D01*
X176165719Y-145210988D01*
X176270037Y-145189641D01*
X176328358Y-145155969D01*
X174200195Y-144635029D02*
X174279863Y-144705675D01*
X174463849Y-144754974D01*
X174568167Y-144733627D01*
X174626488Y-144699955D01*
X174697134Y-144620287D01*
X174771082Y-144344307D01*
X174749735Y-144239990D01*
X174716064Y-144181669D01*
X174636396Y-144111023D01*
X174452409Y-144061724D01*
X174348091Y-144083071D01*
X173267941Y-144434531D02*
X173819899Y-144582428D01*
X173543920Y-144508479D02*
X173802739Y-143542553D01*
X173857758Y-143705192D01*
X173925101Y-143821834D01*
X174004769Y-143892480D01*
X171716385Y-143969494D02*
X171796053Y-144040140D01*
X171980040Y-144089439D01*
X172084357Y-144068092D01*
X172142678Y-144034420D01*
X172213324Y-143954752D01*
X172287273Y-143678772D01*
X172265926Y-143574455D01*
X172232254Y-143516134D01*
X172152586Y-143445488D01*
X171968599Y-143396189D01*
X171864282Y-143417536D01*
X171640904Y-142963292D02*
X171042950Y-142803070D01*
X171266328Y-143257315D01*
X171128338Y-143220340D01*
X171024020Y-143241687D01*
X170965699Y-143275359D01*
X170895053Y-143355028D01*
X170833430Y-143585010D01*
X170854777Y-143689328D01*
X170888448Y-143747649D01*
X170968117Y-143818295D01*
X171244096Y-143892243D01*
X171348414Y-143870896D01*
X171406735Y-143837225D01*
X169232575Y-143303959D02*
X169312243Y-143374605D01*
X169496230Y-143423904D01*
X169600548Y-143402557D01*
X169658869Y-143368885D01*
X169729515Y-143289217D01*
X169803463Y-143013238D01*
X169782116Y-142908920D01*
X169748444Y-142850599D01*
X169668776Y-142779953D01*
X169484790Y-142730654D01*
X169380472Y-142752001D01*
X168605137Y-142149860D02*
X169065102Y-142273107D01*
X168987851Y-142745396D01*
X168954180Y-142687075D01*
X168874511Y-142616429D01*
X168644528Y-142554806D01*
X168540211Y-142576153D01*
X168481890Y-142609824D01*
X168411244Y-142689493D01*
X168349620Y-142919476D01*
X168370967Y-143023793D01*
X168404639Y-143082114D01*
X168484307Y-143152760D01*
X168714290Y-143214384D01*
X168818608Y-143193037D01*
X168876929Y-143159365D01*
X166748766Y-142638424D02*
X166828434Y-142709070D01*
X167012420Y-142758369D01*
X167116738Y-142737022D01*
X167175059Y-142703351D01*
X167245705Y-142623682D01*
X167319653Y-142347703D01*
X167298306Y-142243385D01*
X167264635Y-142185064D01*
X167184967Y-142114418D01*
X167000980Y-142065119D01*
X166896662Y-142086466D01*
X166167323Y-141496650D02*
X166351310Y-141545949D01*
X166430978Y-141616595D01*
X166464650Y-141674916D01*
X166519669Y-141837555D01*
X166516366Y-142033865D01*
X166417768Y-142401837D01*
X166347123Y-142481506D01*
X166288801Y-142515177D01*
X166184484Y-142536524D01*
X166000497Y-142487225D01*
X165920829Y-142416579D01*
X165887157Y-142358258D01*
X165865810Y-142253941D01*
X165927434Y-142023959D01*
X165998080Y-141944290D01*
X166056401Y-141910618D01*
X166160719Y-141889271D01*
X166344705Y-141938570D01*
X166424373Y-142009216D01*
X166458045Y-142067537D01*
X166479392Y-142171855D01*
X181041417Y-139590914D02*
X181213963Y-138946963D01*
X181164664Y-139130949D02*
X181143317Y-139026632D01*
X181109646Y-138968310D01*
X181029978Y-138897665D01*
X180937984Y-138873015D01*
X180518296Y-138415468D02*
X180426302Y-138390819D01*
X180321985Y-138412166D01*
X180263664Y-138445837D01*
X180193018Y-138525505D01*
X180097722Y-138697166D01*
X180036099Y-138927150D01*
X180032796Y-139123460D01*
X180054143Y-139227777D01*
X180087815Y-139286099D01*
X180167483Y-139356744D01*
X180259477Y-139381394D01*
X180363795Y-139360047D01*
X180422116Y-139326375D01*
X180492761Y-139246707D01*
X180588057Y-139075046D01*
X180649680Y-138845063D01*
X180652983Y-138648753D01*
X180631636Y-138544435D01*
X180597964Y-138486114D01*
X180518296Y-138415468D01*
X178787590Y-138987003D02*
X178960136Y-138343052D01*
X178910837Y-138527038D02*
X178889490Y-138422720D01*
X178855818Y-138364399D01*
X178776150Y-138293753D01*
X178684156Y-138269104D01*
X178469801Y-137965173D02*
X178436129Y-137906852D01*
X178356461Y-137836206D01*
X178126478Y-137774583D01*
X178022161Y-137795930D01*
X177963840Y-137829601D01*
X177893194Y-137909269D01*
X177868544Y-138001262D01*
X177877567Y-138151576D01*
X178281628Y-138851431D01*
X177683673Y-138691210D01*
X176533762Y-138383092D02*
X176706308Y-137739141D01*
X176657009Y-137923127D02*
X176635662Y-137818809D01*
X176601991Y-137760488D01*
X176522322Y-137689842D01*
X176430329Y-137665192D01*
X175694385Y-137467997D02*
X175521839Y-138111948D01*
X176022966Y-137161649D02*
X176068077Y-137913220D01*
X175470122Y-137752999D01*
X173878290Y-137622261D02*
X173957958Y-137692907D01*
X174141945Y-137742206D01*
X174246263Y-137720859D01*
X174304584Y-137687188D01*
X174375230Y-137607520D01*
X174449178Y-137331540D01*
X174427831Y-137227222D01*
X174394159Y-137168901D01*
X174314491Y-137098256D01*
X174130505Y-137048956D01*
X174026187Y-137070303D01*
X173526831Y-136542111D02*
X173434837Y-136517461D01*
X173330520Y-136538808D01*
X173272199Y-136572480D01*
X173201553Y-136652148D01*
X173106258Y-136823809D01*
X173044634Y-137053792D01*
X173041331Y-137250103D01*
X173062678Y-137354420D01*
X173096350Y-137412741D01*
X173176018Y-137483387D01*
X173268012Y-137508037D01*
X173372330Y-137486690D01*
X173430651Y-137453018D01*
X173501297Y-137373350D01*
X173596592Y-137201689D01*
X173658216Y-136971706D01*
X173661518Y-136775395D01*
X173640171Y-136671078D01*
X173606499Y-136612757D01*
X173526831Y-136542111D01*
X171394481Y-136956727D02*
X171474149Y-137027373D01*
X171658135Y-137076672D01*
X171762453Y-137055325D01*
X171820774Y-137021653D01*
X171891420Y-136941985D01*
X171965368Y-136666005D01*
X171944021Y-136561688D01*
X171910350Y-136503367D01*
X171830682Y-136432721D01*
X171646695Y-136383422D01*
X171542377Y-136404769D01*
X171248354Y-136030192D02*
X171214682Y-135971871D01*
X171135014Y-135901226D01*
X170905031Y-135839602D01*
X170800714Y-135860949D01*
X170742393Y-135894620D01*
X170671747Y-135974289D01*
X170647097Y-136066281D01*
X170656120Y-136216595D01*
X171060181Y-136916450D01*
X170462227Y-136756229D01*
X168910671Y-136291192D02*
X168990339Y-136361838D01*
X169174326Y-136411137D01*
X169278643Y-136389790D01*
X169336964Y-136356118D01*
X169407610Y-136276450D01*
X169481559Y-136000470D01*
X169460212Y-135896153D01*
X169426540Y-135837832D01*
X169346872Y-135767186D01*
X169162885Y-135717887D01*
X169058568Y-135739234D01*
X168242956Y-135471392D02*
X168070410Y-136115343D01*
X168571537Y-135165045D02*
X168616648Y-135916616D01*
X168018693Y-135756394D01*
X193254232Y-149234648D02*
X193232885Y-149130330D01*
X193269859Y-148992341D01*
X193352830Y-148866675D01*
X193469472Y-148799332D01*
X193573790Y-148777985D01*
X193770100Y-148781287D01*
X193908091Y-148818262D01*
X194079752Y-148913557D01*
X194159420Y-148984203D01*
X194226763Y-149100845D01*
X194235785Y-149251160D01*
X194211136Y-149343153D01*
X194128165Y-149468817D01*
X194069844Y-149502489D01*
X193747869Y-149416216D01*
X193797168Y-149232230D01*
X194050915Y-149941106D02*
X193084989Y-149682287D01*
X193903018Y-150493064D01*
X192937092Y-150234245D01*
X193779771Y-150953029D02*
X192813845Y-150694209D01*
X192752222Y-150924192D01*
X192761244Y-151074507D01*
X192828587Y-151191149D01*
X192908255Y-151261795D01*
X193079916Y-151357090D01*
X193217906Y-151394064D01*
X193414217Y-151397367D01*
X193518534Y-151376020D01*
X193635177Y-151308676D01*
X193718147Y-151183011D01*
X193779771Y-150953029D01*
X190804232Y-148464648D02*
X190782885Y-148360330D01*
X190819859Y-148222341D01*
X190902830Y-148096675D01*
X191019472Y-148029332D01*
X191123790Y-148007985D01*
X191320100Y-148011287D01*
X191458091Y-148048262D01*
X191629752Y-148143557D01*
X191709420Y-148214203D01*
X191776763Y-148330845D01*
X191785785Y-148481160D01*
X191761136Y-148573153D01*
X191678165Y-148698817D01*
X191619844Y-148732489D01*
X191297869Y-148646216D01*
X191347168Y-148462230D01*
X191600915Y-149171106D02*
X190634989Y-148912287D01*
X191453018Y-149723064D01*
X190487092Y-149464245D01*
X191329771Y-150183029D02*
X190363845Y-149924209D01*
X190302222Y-150154192D01*
X190311244Y-150304507D01*
X190378587Y-150421149D01*
X190458255Y-150491795D01*
X190629916Y-150587090D01*
X190767906Y-150624064D01*
X190964217Y-150627367D01*
X191068534Y-150606020D01*
X191185177Y-150538676D01*
X191268147Y-150413011D01*
X191329771Y-150183029D01*
X189245250Y-147631850D02*
X189254273Y-147782164D01*
X189192649Y-148012147D01*
X189122003Y-148091815D01*
X189063682Y-148125487D01*
X188959364Y-148146834D01*
X188867372Y-148122184D01*
X188787703Y-148051539D01*
X188754032Y-147993217D01*
X188732684Y-147888900D01*
X188735986Y-147692588D01*
X188714639Y-147588271D01*
X188680968Y-147529950D01*
X188601300Y-147459304D01*
X188509307Y-147434654D01*
X188404989Y-147456001D01*
X188346668Y-147489673D01*
X188276022Y-147569341D01*
X188214398Y-147799324D01*
X188223421Y-147949638D01*
X189032428Y-148610100D02*
X188066502Y-148351281D01*
X188004878Y-148581264D01*
X188013900Y-148731578D01*
X188081244Y-148848221D01*
X188160912Y-148918867D01*
X188332573Y-149014162D01*
X188470563Y-149051136D01*
X188666874Y-149054439D01*
X188771191Y-149033092D01*
X188887833Y-148965748D01*
X188970804Y-148840083D01*
X189032428Y-148610100D01*
X188509955Y-149456082D02*
X188386708Y-149916047D01*
X188810583Y-149438037D02*
X187758384Y-149501193D01*
X188638037Y-150081988D01*
D12*
X41626664Y-66182345D02*
X60596105Y-65105182D01*
X60596105Y-65105182D02*
X61673268Y-84074623D01*
X61673268Y-84074623D02*
X42703827Y-85151786D01*
X42703827Y-85151786D02*
X41626664Y-66182345D01*
D13*
X44950180Y-69148696D02*
X46725320Y-69047896D01*
X55854614Y-68529497D02*
X57629754Y-68428698D01*
X57629754Y-68428698D02*
X57730554Y-70203838D01*
X58248953Y-79333132D02*
X58349752Y-81108272D01*
X58349752Y-81108272D02*
X56574612Y-81209072D01*
X47445318Y-81727471D02*
X45670178Y-81828270D01*
X45670178Y-81828270D02*
X45569378Y-80053130D01*
X45050979Y-70923836D02*
X44950180Y-69148696D01*
D12*
X61726023Y-84121709D02*
X80695464Y-83044546D01*
X80695464Y-83044546D02*
X81772627Y-102013987D01*
X81772627Y-102013987D02*
X62803186Y-103091150D01*
X62803186Y-103091150D02*
X61726023Y-84121709D01*
D13*
X65049539Y-87088060D02*
X66824679Y-86987260D01*
X75953973Y-86468861D02*
X77729113Y-86368062D01*
X77729113Y-86368062D02*
X77829913Y-88143202D01*
X78348312Y-97272496D02*
X78449111Y-99047636D01*
X78449111Y-99047636D02*
X76673971Y-99148436D01*
X67544677Y-99666835D02*
X65769537Y-99767634D01*
X65769537Y-99767634D02*
X65668737Y-97992494D01*
X65150338Y-88863200D02*
X65049539Y-87088060D01*
D12*
X103064638Y-34025000D02*
X122064638Y-34025000D01*
X122064638Y-34025000D02*
X122064638Y-53025000D01*
X122064638Y-53025000D02*
X103064638Y-53025000D01*
X103064638Y-53025000D02*
X103064638Y-34025000D01*
D13*
X106214638Y-37175000D02*
X107992638Y-37175000D01*
X117136638Y-37175000D02*
X118914638Y-37175000D01*
X118914638Y-37175000D02*
X118914638Y-38953000D01*
X118914638Y-48097000D02*
X118914638Y-49875000D01*
X118914638Y-49875000D02*
X117136638Y-49875000D01*
X107992638Y-49875000D02*
X106214638Y-49875000D01*
X106214638Y-49875000D02*
X106214638Y-48097000D01*
X106214638Y-38953000D02*
X106214638Y-37175000D01*
D12*
X63886018Y-122160432D02*
X82855459Y-121083269D01*
X82855459Y-121083269D02*
X83932622Y-140052710D01*
X83932622Y-140052710D02*
X64963181Y-141129873D01*
X64963181Y-141129873D02*
X63886018Y-122160432D01*
D13*
X67209534Y-125126783D02*
X68984674Y-125025983D01*
X78113968Y-124507584D02*
X79889108Y-124406785D01*
X79889108Y-124406785D02*
X79989908Y-126181925D01*
X80508307Y-135311219D02*
X80609106Y-137086359D01*
X80609106Y-137086359D02*
X78833966Y-137187159D01*
X69704672Y-137705558D02*
X67929532Y-137806357D01*
X67929532Y-137806357D02*
X67828732Y-136031217D01*
X67310333Y-126901923D02*
X67209534Y-125126783D01*
D12*
X127691253Y-44570973D02*
X146660694Y-45648136D01*
X146660694Y-45648136D02*
X145583531Y-64617577D01*
X145583531Y-64617577D02*
X126614090Y-63540414D01*
X126614090Y-63540414D02*
X127691253Y-44570973D01*
D13*
X130657604Y-47894489D02*
X132432744Y-47995288D01*
X141562038Y-48513687D02*
X143337178Y-48614487D01*
X143337178Y-48614487D02*
X143236379Y-50389627D01*
X142717980Y-59518921D02*
X142617180Y-61294061D01*
X142617180Y-61294061D02*
X140842040Y-61193262D01*
X131712746Y-60674863D02*
X129937606Y-60574063D01*
X129937606Y-60574063D02*
X130038405Y-58798923D01*
X130556804Y-49669629D02*
X130657604Y-47894489D01*
D12*
X143470621Y-102709055D02*
X162440062Y-103786218D01*
X162440062Y-103786218D02*
X161362899Y-122755659D01*
X161362899Y-122755659D02*
X142393458Y-121678496D01*
X142393458Y-121678496D02*
X143470621Y-102709055D01*
D13*
X146436972Y-106032571D02*
X148212112Y-106133370D01*
X157341406Y-106651769D02*
X159116546Y-106752569D01*
X159116546Y-106752569D02*
X159015747Y-108527709D01*
X158497348Y-117657003D02*
X158396548Y-119432143D01*
X158396548Y-119432143D02*
X156621408Y-119331344D01*
X147492114Y-118812945D02*
X145716974Y-118712145D01*
X145716974Y-118712145D02*
X145817773Y-116937005D01*
X146336172Y-107807711D02*
X146436972Y-106032571D01*
D12*
X84014638Y-161660000D02*
X103014638Y-161660000D01*
X103014638Y-161660000D02*
X103014638Y-180660000D01*
X103014638Y-180660000D02*
X84014638Y-180660000D01*
X84014638Y-180660000D02*
X84014638Y-161660000D01*
D13*
X87164638Y-164810000D02*
X88942638Y-164810000D01*
X98086638Y-164810000D02*
X99864638Y-164810000D01*
X99864638Y-164810000D02*
X99864638Y-166588000D01*
X99864638Y-175732000D02*
X99864638Y-177510000D01*
X99864638Y-177510000D02*
X98086638Y-177510000D01*
X88942638Y-177510000D02*
X87164638Y-177510000D01*
X87164638Y-177510000D02*
X87164638Y-175732000D01*
X87164638Y-166588000D02*
X87164638Y-164810000D01*
D12*
X40546667Y-47162984D02*
X59516108Y-46085821D01*
X59516108Y-46085821D02*
X60593271Y-65055262D01*
X60593271Y-65055262D02*
X41623830Y-66132425D01*
X41623830Y-66132425D02*
X40546667Y-47162984D01*
D13*
X43870183Y-50129335D02*
X45645323Y-50028535D01*
X54774617Y-49510136D02*
X56549757Y-49409337D01*
X56549757Y-49409337D02*
X56650557Y-51184477D01*
X57168956Y-60313771D02*
X57269755Y-62088911D01*
X57269755Y-62088911D02*
X55494615Y-62189711D01*
X46365321Y-62708110D02*
X44590181Y-62808909D01*
X44590181Y-62808909D02*
X44489381Y-61033769D01*
X43970982Y-51904475D02*
X43870183Y-50129335D01*
D12*
X62806021Y-103141070D02*
X81775462Y-102063907D01*
X81775462Y-102063907D02*
X82852625Y-121033348D01*
X82852625Y-121033348D02*
X63883184Y-122110511D01*
X63883184Y-122110511D02*
X62806021Y-103141070D01*
D13*
X66129537Y-106107421D02*
X67904677Y-106006621D01*
X77033971Y-105488222D02*
X78809111Y-105387423D01*
X78809111Y-105387423D02*
X78909911Y-107162563D01*
X79428310Y-116291857D02*
X79529109Y-118066997D01*
X79529109Y-118066997D02*
X77753969Y-118167797D01*
X68624675Y-118686196D02*
X66849535Y-118786995D01*
X66849535Y-118786995D02*
X66748735Y-117011855D01*
X66230336Y-107882561D02*
X66129537Y-106107421D01*
D12*
X103064638Y-53075000D02*
X122064638Y-53075000D01*
X122064638Y-53075000D02*
X122064638Y-72075000D01*
X122064638Y-72075000D02*
X103064638Y-72075000D01*
X103064638Y-72075000D02*
X103064638Y-53075000D01*
D13*
X106214638Y-56225000D02*
X107992638Y-56225000D01*
X117136638Y-56225000D02*
X118914638Y-56225000D01*
X118914638Y-56225000D02*
X118914638Y-58003000D01*
X118914638Y-67147000D02*
X118914638Y-68925000D01*
X118914638Y-68925000D02*
X117136638Y-68925000D01*
X107992638Y-68925000D02*
X106214638Y-68925000D01*
X106214638Y-68925000D02*
X106214638Y-67147000D01*
X106214638Y-58003000D02*
X106214638Y-56225000D01*
D12*
X84014638Y-114987500D02*
X103014638Y-114987500D01*
X103014638Y-114987500D02*
X103014638Y-133987500D01*
X103014638Y-133987500D02*
X84014638Y-133987500D01*
X84014638Y-133987500D02*
X84014638Y-114987500D01*
D13*
X87164638Y-118137500D02*
X88942638Y-118137500D01*
X98086638Y-118137500D02*
X99864638Y-118137500D01*
X99864638Y-118137500D02*
X99864638Y-119915500D01*
X99864638Y-129059500D02*
X99864638Y-130837500D01*
X99864638Y-130837500D02*
X98086638Y-130837500D01*
X88942638Y-130837500D02*
X87164638Y-130837500D01*
X87164638Y-130837500D02*
X87164638Y-129059500D01*
X87164638Y-119915500D02*
X87164638Y-118137500D01*
D12*
X126611255Y-63590335D02*
X145580696Y-64667498D01*
X145580696Y-64667498D02*
X144503533Y-83636939D01*
X144503533Y-83636939D02*
X125534092Y-82559776D01*
X125534092Y-82559776D02*
X126611255Y-63590335D01*
D13*
X129577606Y-66913851D02*
X131352746Y-67014650D01*
X140482040Y-67533049D02*
X142257180Y-67633849D01*
X142257180Y-67633849D02*
X142156381Y-69408989D01*
X141637982Y-78538283D02*
X141537182Y-80313423D01*
X141537182Y-80313423D02*
X139762042Y-80212624D01*
X130632748Y-79694225D02*
X128857608Y-79593425D01*
X128857608Y-79593425D02*
X128958407Y-77818285D01*
X129476806Y-68688991D02*
X129577606Y-66913851D01*
D12*
X142390624Y-121728416D02*
X161360065Y-122805579D01*
X161360065Y-122805579D02*
X160282902Y-141775020D01*
X160282902Y-141775020D02*
X141313461Y-140697857D01*
X141313461Y-140697857D02*
X142390624Y-121728416D01*
D13*
X145356975Y-125051932D02*
X147132115Y-125152731D01*
X156261409Y-125671130D02*
X158036549Y-125771930D01*
X158036549Y-125771930D02*
X157935750Y-127547070D01*
X157417351Y-136676364D02*
X157316551Y-138451504D01*
X157316551Y-138451504D02*
X155541411Y-138350705D01*
X146412117Y-137832306D02*
X144636977Y-137731506D01*
X144636977Y-137731506D02*
X144737776Y-135956366D01*
X145256175Y-126827072D02*
X145356975Y-125051932D01*
D12*
X103064638Y-161660000D02*
X122064638Y-161660000D01*
X122064638Y-161660000D02*
X122064638Y-180660000D01*
X122064638Y-180660000D02*
X103064638Y-180660000D01*
X103064638Y-180660000D02*
X103064638Y-161660000D01*
D13*
X106214638Y-164810000D02*
X107992638Y-164810000D01*
X117136638Y-164810000D02*
X118914638Y-164810000D01*
X118914638Y-164810000D02*
X118914638Y-166588000D01*
X118914638Y-175732000D02*
X118914638Y-177510000D01*
X118914638Y-177510000D02*
X117136638Y-177510000D01*
X107992638Y-177510000D02*
X106214638Y-177510000D01*
X106214638Y-177510000D02*
X106214638Y-175732000D01*
X106214638Y-166588000D02*
X106214638Y-164810000D01*
D12*
X59566028Y-46082986D02*
X78535469Y-45005823D01*
X78535469Y-45005823D02*
X79612632Y-63975264D01*
X79612632Y-63975264D02*
X60643191Y-65052427D01*
X60643191Y-65052427D02*
X59566028Y-46082986D01*
D13*
X62889544Y-49049337D02*
X64664684Y-48948537D01*
X73793978Y-48430138D02*
X75569118Y-48329339D01*
X75569118Y-48329339D02*
X75669918Y-50104479D01*
X76188317Y-59233773D02*
X76289116Y-61008913D01*
X76289116Y-61008913D02*
X74513976Y-61109713D01*
X65384682Y-61628112D02*
X63609542Y-61728911D01*
X63609542Y-61728911D02*
X63508742Y-59953771D01*
X62990343Y-50824477D02*
X62889544Y-49049337D01*
D12*
X84014638Y-95937500D02*
X103014638Y-95937500D01*
X103014638Y-95937500D02*
X103014638Y-114937500D01*
X103014638Y-114937500D02*
X84014638Y-114937500D01*
X84014638Y-114937500D02*
X84014638Y-95937500D01*
D13*
X87164638Y-99087500D02*
X88942638Y-99087500D01*
X98086638Y-99087500D02*
X99864638Y-99087500D01*
X99864638Y-99087500D02*
X99864638Y-100865500D01*
X99864638Y-110009500D02*
X99864638Y-111787500D01*
X99864638Y-111787500D02*
X98086638Y-111787500D01*
X88942638Y-111787500D02*
X87164638Y-111787500D01*
X87164638Y-111787500D02*
X87164638Y-110009500D01*
X87164638Y-100865500D02*
X87164638Y-99087500D01*
D12*
X103064638Y-72125000D02*
X122064638Y-72125000D01*
X122064638Y-72125000D02*
X122064638Y-91125000D01*
X122064638Y-91125000D02*
X103064638Y-91125000D01*
X103064638Y-91125000D02*
X103064638Y-72125000D01*
D13*
X106214638Y-75275000D02*
X107992638Y-75275000D01*
X117136638Y-75275000D02*
X118914638Y-75275000D01*
X118914638Y-75275000D02*
X118914638Y-77053000D01*
X118914638Y-86197000D02*
X118914638Y-87975000D01*
X118914638Y-87975000D02*
X117136638Y-87975000D01*
X107992638Y-87975000D02*
X106214638Y-87975000D01*
X106214638Y-87975000D02*
X106214638Y-86197000D01*
X106214638Y-77053000D02*
X106214638Y-75275000D01*
D12*
X84014638Y-142610000D02*
X103014638Y-142610000D01*
X103014638Y-142610000D02*
X103014638Y-161610000D01*
X103014638Y-161610000D02*
X84014638Y-161610000D01*
X84014638Y-161610000D02*
X84014638Y-142610000D01*
D13*
X87164638Y-145760000D02*
X88942638Y-145760000D01*
X98086638Y-145760000D02*
X99864638Y-145760000D01*
X99864638Y-145760000D02*
X99864638Y-147538000D01*
X99864638Y-156682000D02*
X99864638Y-158460000D01*
X99864638Y-158460000D02*
X98086638Y-158460000D01*
X88942638Y-158460000D02*
X87164638Y-158460000D01*
X87164638Y-158460000D02*
X87164638Y-156682000D01*
X87164638Y-147538000D02*
X87164638Y-145760000D01*
D12*
X145630616Y-64670332D02*
X164600057Y-65747495D01*
X164600057Y-65747495D02*
X163522894Y-84716936D01*
X163522894Y-84716936D02*
X144553453Y-83639773D01*
X144553453Y-83639773D02*
X145630616Y-64670332D01*
D13*
X148596967Y-67993848D02*
X150372107Y-68094647D01*
X159501401Y-68613046D02*
X161276541Y-68713846D01*
X161276541Y-68713846D02*
X161175742Y-70488986D01*
X160657343Y-79618280D02*
X160556543Y-81393420D01*
X160556543Y-81393420D02*
X158781403Y-81292621D01*
X149652109Y-80774222D02*
X147876969Y-80673422D01*
X147876969Y-80673422D02*
X147977768Y-78898282D01*
X148496167Y-69768988D02*
X148596967Y-67993848D01*
D12*
X161114404Y-146243549D02*
X179466994Y-151161111D01*
X179466994Y-151161111D02*
X174549432Y-169513701D01*
X174549432Y-169513701D02*
X156196842Y-164596139D01*
X156196842Y-164596139D02*
X161114404Y-146243549D01*
D13*
X163341790Y-150101495D02*
X165059206Y-150561675D01*
X173891632Y-152928317D02*
X175609048Y-153388497D01*
X175609048Y-153388497D02*
X175148868Y-155105913D01*
X172782226Y-163938339D02*
X172322046Y-165655755D01*
X172322046Y-165655755D02*
X170604630Y-165195575D01*
X161772204Y-162828933D02*
X160054788Y-162368753D01*
X160054788Y-162368753D02*
X160514968Y-160651337D01*
X162881610Y-151818911D02*
X163341790Y-150101495D01*
D12*
X103064638Y-142610000D02*
X122064638Y-142610000D01*
X122064638Y-142610000D02*
X122064638Y-161610000D01*
X122064638Y-161610000D02*
X103064638Y-161610000D01*
X103064638Y-161610000D02*
X103064638Y-142610000D01*
D13*
X106214638Y-145760000D02*
X107992638Y-145760000D01*
X117136638Y-145760000D02*
X118914638Y-145760000D01*
X118914638Y-145760000D02*
X118914638Y-147538000D01*
X118914638Y-156682000D02*
X118914638Y-158460000D01*
X118914638Y-158460000D02*
X117136638Y-158460000D01*
X107992638Y-158460000D02*
X106214638Y-158460000D01*
X106214638Y-158460000D02*
X106214638Y-156682000D01*
X106214638Y-147538000D02*
X106214638Y-145760000D01*
D12*
X60646025Y-65102348D02*
X79615466Y-64025185D01*
X79615466Y-64025185D02*
X80692629Y-82994626D01*
X80692629Y-82994626D02*
X61723188Y-84071789D01*
X61723188Y-84071789D02*
X60646025Y-65102348D01*
D13*
X63969541Y-68068699D02*
X65744681Y-67967899D01*
X74873975Y-67449500D02*
X76649115Y-67348701D01*
X76649115Y-67348701D02*
X76749915Y-69123841D01*
X77268314Y-78253135D02*
X77369113Y-80028275D01*
X77369113Y-80028275D02*
X75593973Y-80129075D01*
X66464679Y-80647474D02*
X64689539Y-80748273D01*
X64689539Y-80748273D02*
X64588739Y-78973133D01*
X64070340Y-69843839D02*
X63969541Y-68068699D01*
D12*
X84014638Y-76887500D02*
X103014638Y-76887500D01*
X103014638Y-76887500D02*
X103014638Y-95887500D01*
X103014638Y-95887500D02*
X84014638Y-95887500D01*
X84014638Y-95887500D02*
X84014638Y-76887500D01*
D13*
X87164638Y-80037500D02*
X88942638Y-80037500D01*
X98086638Y-80037500D02*
X99864638Y-80037500D01*
X99864638Y-80037500D02*
X99864638Y-81815500D01*
X99864638Y-90959500D02*
X99864638Y-92737500D01*
X99864638Y-92737500D02*
X98086638Y-92737500D01*
X88942638Y-92737500D02*
X87164638Y-92737500D01*
X87164638Y-92737500D02*
X87164638Y-90959500D01*
X87164638Y-81815500D02*
X87164638Y-80037500D01*
D12*
X103064638Y-91175000D02*
X122064638Y-91175000D01*
X122064638Y-91175000D02*
X122064638Y-110175000D01*
X122064638Y-110175000D02*
X103064638Y-110175000D01*
X103064638Y-110175000D02*
X103064638Y-91175000D01*
D13*
X106214638Y-94325000D02*
X107992638Y-94325000D01*
X117136638Y-94325000D02*
X118914638Y-94325000D01*
X118914638Y-94325000D02*
X118914638Y-96103000D01*
X118914638Y-105247000D02*
X118914638Y-107025000D01*
X118914638Y-107025000D02*
X117136638Y-107025000D01*
X107992638Y-107025000D02*
X106214638Y-107025000D01*
X106214638Y-107025000D02*
X106214638Y-105247000D01*
X106214638Y-96103000D02*
X106214638Y-94325000D01*
D12*
X64964638Y-142610000D02*
X83964638Y-142610000D01*
X83964638Y-142610000D02*
X83964638Y-161610000D01*
X83964638Y-161610000D02*
X64964638Y-161610000D01*
X64964638Y-161610000D02*
X64964638Y-142610000D01*
D13*
X68114638Y-145760000D02*
X69892638Y-145760000D01*
X79036638Y-145760000D02*
X80814638Y-145760000D01*
X80814638Y-145760000D02*
X80814638Y-147538000D01*
X80814638Y-156682000D02*
X80814638Y-158460000D01*
X80814638Y-158460000D02*
X79036638Y-158460000D01*
X69892638Y-158460000D02*
X68114638Y-158460000D01*
X68114638Y-158460000D02*
X68114638Y-156682000D01*
X68114638Y-147538000D02*
X68114638Y-145760000D01*
D12*
X144550619Y-83689694D02*
X163520060Y-84766857D01*
X163520060Y-84766857D02*
X162442897Y-103736298D01*
X162442897Y-103736298D02*
X143473456Y-102659135D01*
X143473456Y-102659135D02*
X144550619Y-83689694D01*
D13*
X147516970Y-87013210D02*
X149292110Y-87114009D01*
X158421404Y-87632408D02*
X160196544Y-87733208D01*
X160196544Y-87733208D02*
X160095745Y-89508348D01*
X159577346Y-98637642D02*
X159476546Y-100412782D01*
X159476546Y-100412782D02*
X157701406Y-100311983D01*
X148572112Y-99793584D02*
X146796972Y-99692784D01*
X146796972Y-99692784D02*
X146897771Y-97917644D01*
X147416170Y-88788350D02*
X147516970Y-87013210D01*
D12*
X178898978Y-153474163D02*
X197251568Y-158391725D01*
X197251568Y-158391725D02*
X192334006Y-176744315D01*
X192334006Y-176744315D02*
X173981416Y-171826753D01*
X173981416Y-171826753D02*
X178898978Y-153474163D01*
D13*
X181126364Y-157332109D02*
X182843780Y-157792289D01*
X191676206Y-160158931D02*
X193393622Y-160619111D01*
X193393622Y-160619111D02*
X192933442Y-162336527D01*
X190566800Y-171168953D02*
X190106620Y-172886369D01*
X190106620Y-172886369D02*
X188389204Y-172426189D01*
X179556778Y-170059547D02*
X177839362Y-169599367D01*
X177839362Y-169599367D02*
X178299542Y-167881951D01*
X180666184Y-159049525D02*
X181126364Y-157332109D01*
D12*
X123371262Y-120648419D02*
X142340703Y-121725582D01*
X142340703Y-121725582D02*
X141263540Y-140695023D01*
X141263540Y-140695023D02*
X122294099Y-139617860D01*
X122294099Y-139617860D02*
X123371262Y-120648419D01*
D13*
X126337613Y-123971935D02*
X128112753Y-124072734D01*
X137242047Y-124591133D02*
X139017187Y-124691933D01*
X139017187Y-124691933D02*
X138916388Y-126467073D01*
X138397989Y-135596367D02*
X138297189Y-137371507D01*
X138297189Y-137371507D02*
X136522049Y-137270708D01*
X127392755Y-136752309D02*
X125617615Y-136651509D01*
X125617615Y-136651509D02*
X125718414Y-134876369D01*
X126236813Y-125747075D02*
X126337613Y-123971935D01*
D12*
X84014638Y-57837500D02*
X103014638Y-57837500D01*
X103014638Y-57837500D02*
X103014638Y-76837500D01*
X103014638Y-76837500D02*
X84014638Y-76837500D01*
X84014638Y-76837500D02*
X84014638Y-57837500D01*
D13*
X87164638Y-60987500D02*
X88942638Y-60987500D01*
X98086638Y-60987500D02*
X99864638Y-60987500D01*
X99864638Y-60987500D02*
X99864638Y-62765500D01*
X99864638Y-71909500D02*
X99864638Y-73687500D01*
X99864638Y-73687500D02*
X98086638Y-73687500D01*
X88942638Y-73687500D02*
X87164638Y-73687500D01*
X87164638Y-73687500D02*
X87164638Y-71909500D01*
X87164638Y-62765500D02*
X87164638Y-60987500D01*
D12*
X37951821Y-85471706D02*
X56921262Y-84394543D01*
X56921262Y-84394543D02*
X57998425Y-103363984D01*
X57998425Y-103363984D02*
X39028984Y-104441147D01*
X39028984Y-104441147D02*
X37951821Y-85471706D01*
D13*
X41275337Y-88438057D02*
X43050477Y-88337257D01*
X52179771Y-87818858D02*
X53954911Y-87718059D01*
X53954911Y-87718059D02*
X54055711Y-89493199D01*
X54574110Y-98622493D02*
X54674909Y-100397633D01*
X54674909Y-100397633D02*
X52899769Y-100498433D01*
X43770475Y-101016832D02*
X41995335Y-101117631D01*
X41995335Y-101117631D02*
X41894535Y-99342491D01*
X41376136Y-90213197D02*
X41275337Y-88438057D01*
D12*
X103064638Y-110225000D02*
X122064638Y-110225000D01*
X122064638Y-110225000D02*
X122064638Y-129225000D01*
X122064638Y-129225000D02*
X103064638Y-129225000D01*
X103064638Y-129225000D02*
X103064638Y-110225000D01*
D13*
X106214638Y-113375000D02*
X107992638Y-113375000D01*
X117136638Y-113375000D02*
X118914638Y-113375000D01*
X118914638Y-113375000D02*
X118914638Y-115153000D01*
X118914638Y-124297000D02*
X118914638Y-126075000D01*
X118914638Y-126075000D02*
X117136638Y-126075000D01*
X107992638Y-126075000D02*
X106214638Y-126075000D01*
X106214638Y-126075000D02*
X106214638Y-124297000D01*
X106214638Y-115153000D02*
X106214638Y-113375000D01*
D12*
X64964638Y-161660000D02*
X83964638Y-161660000D01*
X83964638Y-161660000D02*
X83964638Y-180660000D01*
X83964638Y-180660000D02*
X64964638Y-180660000D01*
X64964638Y-180660000D02*
X64964638Y-161660000D01*
D13*
X68114638Y-164810000D02*
X69892638Y-164810000D01*
X79036638Y-164810000D02*
X80814638Y-164810000D01*
X80814638Y-164810000D02*
X80814638Y-166588000D01*
X80814638Y-175732000D02*
X80814638Y-177510000D01*
X80814638Y-177510000D02*
X79036638Y-177510000D01*
X69892638Y-177510000D02*
X68114638Y-177510000D01*
X68114638Y-177510000D02*
X68114638Y-175732000D01*
X68114638Y-166588000D02*
X68114638Y-164810000D01*
D12*
X125531257Y-82609696D02*
X144500698Y-83686859D01*
X144500698Y-83686859D02*
X143423535Y-102656300D01*
X143423535Y-102656300D02*
X124454094Y-101579137D01*
X124454094Y-101579137D02*
X125531257Y-82609696D01*
D13*
X128497608Y-85933212D02*
X130272748Y-86034011D01*
X139402042Y-86552410D02*
X141177182Y-86653210D01*
X141177182Y-86653210D02*
X141076383Y-88428350D01*
X140557984Y-97557644D02*
X140457184Y-99332784D01*
X140457184Y-99332784D02*
X138682044Y-99231985D01*
X129552750Y-98713586D02*
X127777610Y-98612786D01*
X127777610Y-98612786D02*
X127878409Y-96837646D01*
X128396808Y-87708352D02*
X128497608Y-85933212D01*
D12*
X172735849Y-176475272D02*
X191088439Y-181392834D01*
X191088439Y-181392834D02*
X186170877Y-199745424D01*
X186170877Y-199745424D02*
X167818287Y-194827862D01*
X167818287Y-194827862D02*
X172735849Y-176475272D01*
D13*
X174963235Y-180333218D02*
X176680651Y-180793398D01*
X185513077Y-183160040D02*
X187230493Y-183620220D01*
X187230493Y-183620220D02*
X186770313Y-185337636D01*
X184403671Y-194170062D02*
X183943491Y-195887478D01*
X183943491Y-195887478D02*
X182226075Y-195427298D01*
X173393649Y-193060656D02*
X171676233Y-192600476D01*
X171676233Y-192600476D02*
X172136413Y-190883060D01*
X174503055Y-182050634D02*
X174963235Y-180333218D01*
D12*
X142713517Y-141313046D02*
X161066107Y-146230608D01*
X161066107Y-146230608D02*
X156148545Y-164583198D01*
X156148545Y-164583198D02*
X137795955Y-159665636D01*
X137795955Y-159665636D02*
X142713517Y-141313046D01*
D13*
X144940903Y-145170992D02*
X146658319Y-145631172D01*
X155490745Y-147997814D02*
X157208161Y-148457994D01*
X157208161Y-148457994D02*
X156747981Y-150175410D01*
X154381339Y-159007836D02*
X153921159Y-160725252D01*
X153921159Y-160725252D02*
X152203743Y-160265072D01*
X143371317Y-157898430D02*
X141653901Y-157438250D01*
X141653901Y-157438250D02*
X142114081Y-155720834D01*
X144480723Y-146888408D02*
X144940903Y-145170992D01*
D12*
X84014638Y-38787500D02*
X103014638Y-38787500D01*
X103014638Y-38787500D02*
X103014638Y-57787500D01*
X103014638Y-57787500D02*
X84014638Y-57787500D01*
X84014638Y-57787500D02*
X84014638Y-38787500D01*
D13*
X87164638Y-41937500D02*
X88942638Y-41937500D01*
X98086638Y-41937500D02*
X99864638Y-41937500D01*
X99864638Y-41937500D02*
X99864638Y-43715500D01*
X99864638Y-52859500D02*
X99864638Y-54637500D01*
X99864638Y-54637500D02*
X98086638Y-54637500D01*
X88942638Y-54637500D02*
X87164638Y-54637500D01*
X87164638Y-54637500D02*
X87164638Y-52859500D01*
X87164638Y-43715500D02*
X87164638Y-41937500D01*
D12*
X39031819Y-104491067D02*
X58001260Y-103413904D01*
X58001260Y-103413904D02*
X59078423Y-122383345D01*
X59078423Y-122383345D02*
X40108982Y-123460508D01*
X40108982Y-123460508D02*
X39031819Y-104491067D01*
D13*
X42355335Y-107457418D02*
X44130475Y-107356618D01*
X53259769Y-106838219D02*
X55034909Y-106737420D01*
X55034909Y-106737420D02*
X55135709Y-108512560D01*
X55654108Y-117641854D02*
X55754907Y-119416994D01*
X55754907Y-119416994D02*
X53979767Y-119517794D01*
X44850473Y-120036193D02*
X43075333Y-120136992D01*
X43075333Y-120136992D02*
X42974533Y-118361852D01*
X42456134Y-109232558D02*
X42355335Y-107457418D01*
D12*
X124451260Y-101629057D02*
X143420701Y-102706220D01*
X143420701Y-102706220D02*
X142343538Y-121675661D01*
X142343538Y-121675661D02*
X123374097Y-120598498D01*
X123374097Y-120598498D02*
X124451260Y-101629057D01*
D13*
X127417611Y-104952573D02*
X129192751Y-105053372D01*
X138322045Y-105571771D02*
X140097185Y-105672571D01*
X140097185Y-105672571D02*
X139996386Y-107447711D01*
X139477987Y-116577005D02*
X139377187Y-118352145D01*
X139377187Y-118352145D02*
X137602047Y-118251346D01*
X128472753Y-117732947D02*
X126697613Y-117632147D01*
X126697613Y-117632147D02*
X126798412Y-115857007D01*
X127316811Y-106727713D02*
X127417611Y-104952573D01*
D12*
X40111817Y-123510429D02*
X59081258Y-122433266D01*
X59081258Y-122433266D02*
X60158421Y-141402707D01*
X60158421Y-141402707D02*
X41188980Y-142479870D01*
X41188980Y-142479870D02*
X40111817Y-123510429D01*
D13*
X43435333Y-126476780D02*
X45210473Y-126375980D01*
X54339767Y-125857581D02*
X56114907Y-125756782D01*
X56114907Y-125756782D02*
X56215707Y-127531922D01*
X56734106Y-136661216D02*
X56834905Y-138436356D01*
X56834905Y-138436356D02*
X55059765Y-138537156D01*
X45930471Y-139055555D02*
X44155331Y-139156354D01*
X44155331Y-139156354D02*
X44054531Y-137381214D01*
X43536132Y-128251920D02*
X43435333Y-126476780D01*
D12*
X146710614Y-45650971D02*
X165680055Y-46728134D01*
X165680055Y-46728134D02*
X164602892Y-65697575D01*
X164602892Y-65697575D02*
X145633451Y-64620412D01*
X145633451Y-64620412D02*
X146710614Y-45650971D01*
D13*
X149676965Y-48974487D02*
X151452105Y-49075286D01*
X160581399Y-49593685D02*
X162356539Y-49694485D01*
X162356539Y-49694485D02*
X162255740Y-51469625D01*
X161737341Y-60598919D02*
X161636541Y-62374059D01*
X161636541Y-62374059D02*
X159861401Y-62273260D01*
X150732107Y-61754861D02*
X148956967Y-61654061D01*
X148956967Y-61654061D02*
X149057766Y-59878921D01*
X149576165Y-50749627D02*
X149676965Y-48974487D01*
D12*
X155567588Y-166944547D02*
X173920178Y-171862109D01*
X173920178Y-171862109D02*
X169002616Y-190214699D01*
X169002616Y-190214699D02*
X150650026Y-185297137D01*
X150650026Y-185297137D02*
X155567588Y-166944547D01*
D13*
X157794974Y-170802493D02*
X159512390Y-171262673D01*
X168344816Y-173629315D02*
X170062232Y-174089495D01*
X170062232Y-174089495D02*
X169602052Y-175806911D01*
X167235410Y-184639337D02*
X166775230Y-186356753D01*
X166775230Y-186356753D02*
X165057814Y-185896573D01*
X156225388Y-183529931D02*
X154507972Y-183069751D01*
X154507972Y-183069751D02*
X154968152Y-181352335D01*
X157334794Y-172519909D02*
X157794974Y-170802493D01*
D12*
X137166701Y-162014044D02*
X155519291Y-166931606D01*
X155519291Y-166931606D02*
X150601729Y-185284196D01*
X150601729Y-185284196D02*
X132249139Y-180366634D01*
X132249139Y-180366634D02*
X137166701Y-162014044D01*
D13*
X139394087Y-165871990D02*
X141111503Y-166332170D01*
X149943929Y-168698812D02*
X151661345Y-169158992D01*
X151661345Y-169158992D02*
X151201165Y-170876408D01*
X148834523Y-179708834D02*
X148374343Y-181426250D01*
X148374343Y-181426250D02*
X146656927Y-180966070D01*
X137824501Y-178599428D02*
X136107085Y-178139248D01*
X136107085Y-178139248D02*
X136567265Y-176421832D01*
X138933907Y-167589406D02*
X139394087Y-165871990D01*
M02*
