G04 #@! TF.FileFunction,Profile,NP*
%FSLAX46Y46*%
G04 Gerber Fmt 4.6, Leading zero omitted, Abs format (unit mm)*
G04 Created by KiCad (PCBNEW 4.0.6+dfsg1-1) date Sat Mar 24 19:44:59 2018*
%MOMM*%
%LPD*%
G01*
G04 APERTURE LIST*
%ADD10C,0.100000*%
%ADD11C,0.150000*%
G04 APERTURE END LIST*
D10*
D11*
X173822702Y-25000000D02*
X173788829Y-25000229D01*
X173788829Y-25000229D02*
X99726454Y-26003785D01*
X99726454Y-26003785D02*
X99482351Y-26019057D01*
X99482351Y-26019057D02*
X99240908Y-26058109D01*
X99240908Y-26058109D02*
X34690766Y-39768698D01*
X34690766Y-39768698D02*
X34454534Y-39831080D01*
X34454534Y-39831080D02*
X34225520Y-39916224D01*
X34225520Y-39916224D02*
X34005911Y-40023316D01*
X34005911Y-40023316D02*
X33797804Y-40151334D01*
X33797804Y-40151334D02*
X33603188Y-40299055D01*
X33603188Y-40299055D02*
X33423921Y-40465068D01*
X33423921Y-40465068D02*
X33261716Y-40647788D01*
X33261716Y-40647788D02*
X33118121Y-40845468D01*
X33118121Y-40845468D02*
X32994509Y-41056221D01*
X32994509Y-41056221D02*
X32892060Y-41278034D01*
X32892060Y-41278034D02*
X32811752Y-41508789D01*
X32811752Y-41508789D02*
X32754353Y-41746281D01*
X32754353Y-41746281D02*
X25043305Y-82221806D01*
X25043305Y-82221806D02*
X25007328Y-82487443D01*
X25007328Y-82487443D02*
X25000000Y-82755405D01*
X25000000Y-82755405D02*
X25501826Y-101834000D01*
X25501826Y-101834000D02*
X25507011Y-101942070D01*
X25507011Y-101942070D02*
X28648963Y-147026161D01*
X28648963Y-147026161D02*
X28677018Y-147263883D01*
X28677018Y-147263883D02*
X28727679Y-147497832D01*
X28727679Y-147497832D02*
X28800483Y-147725863D01*
X28800483Y-147725863D02*
X28894762Y-147945886D01*
X28894762Y-147945886D02*
X29009651Y-148155884D01*
X29009651Y-148155884D02*
X29144097Y-148353931D01*
X29144097Y-148353931D02*
X58535503Y-187478185D01*
X58535503Y-187478185D02*
X58685438Y-187659356D01*
X58685438Y-187659356D02*
X58851733Y-187825636D01*
X58851733Y-187825636D02*
X59032916Y-187975556D01*
X59032916Y-187975556D02*
X59227385Y-188107787D01*
X59227385Y-188107787D02*
X59433418Y-188221161D01*
X59433418Y-188221161D02*
X59649192Y-188314674D01*
X59649192Y-188314674D02*
X59872799Y-188387499D01*
X59872799Y-188387499D02*
X60102259Y-188438991D01*
X60102259Y-188438991D02*
X189083904Y-211070730D01*
X189083904Y-211070730D02*
X189329014Y-211101349D01*
X189329014Y-211101349D02*
X189575949Y-211107629D01*
X189575949Y-211107629D02*
X189822299Y-211089510D01*
X189822299Y-211089510D02*
X190065658Y-211047168D01*
X190065658Y-211047168D02*
X190303650Y-210981016D01*
X190303650Y-210981016D02*
X190533953Y-210891702D01*
X190533953Y-210891702D02*
X190754317Y-210780095D01*
X190754317Y-210780095D02*
X190962592Y-210647287D01*
X190962592Y-210647287D02*
X191156744Y-210494574D01*
X191156744Y-210494574D02*
X191334877Y-210323446D01*
X191334877Y-210323446D02*
X191495254Y-210135574D01*
X191495254Y-210135574D02*
X191636307Y-209932792D01*
X191636307Y-209932792D02*
X191756660Y-209717080D01*
X191756660Y-209717080D02*
X191855138Y-209490545D01*
X191855138Y-209490545D02*
X191930780Y-209255396D01*
X191930780Y-209255396D02*
X198945140Y-183077449D01*
X198945140Y-183077449D02*
X206542826Y-154722497D01*
X206542826Y-154722497D02*
X206598073Y-154461193D01*
X206598073Y-154461193D02*
X206625128Y-154195487D01*
X206625128Y-154195487D02*
X206623684Y-153928411D01*
X206623684Y-153928411D02*
X206593756Y-153663013D01*
X206593756Y-153663013D02*
X185421949Y-27087564D01*
X185421949Y-27087564D02*
X185368218Y-26842588D01*
X185368218Y-26842588D02*
X185290212Y-26604229D01*
X185290212Y-26604229D02*
X185188717Y-26374884D01*
X185188717Y-26374884D02*
X185064754Y-26156863D01*
X185064754Y-26156863D02*
X184919570Y-25952359D01*
X184919570Y-25952359D02*
X184754627Y-25763430D01*
X184754627Y-25763430D02*
X184571585Y-25591979D01*
X184571585Y-25591979D02*
X184372285Y-25439730D01*
X184372285Y-25439730D02*
X184158734Y-25308215D01*
X184158734Y-25308215D02*
X183933081Y-25198759D01*
X183933081Y-25198759D02*
X183697596Y-25112462D01*
X183697596Y-25112462D02*
X183454650Y-25050194D01*
X183454650Y-25050194D02*
X183206687Y-25012580D01*
X183206687Y-25012580D02*
X182956204Y-25000000D01*
X182956204Y-25000000D02*
X173822702Y-25000000D01*
X173822702Y-25000000D02*
X173822702Y-25000000D01*
M02*
