M48
;DRILL file {KiCad 4.0.6+dfsg1-1} date Sat Mar 24 19:45:03 2018
;FORMAT={3:3/ absolute / metric / suppress leading zeros}
FMAT,2
METRIC,TZ
T1C0.300
T2C0.700
T3C1.000
T4C1.499
T5C1.702
T6C3.200
T7C3.988
%
G90
G05
M71
T1
X63246Y-70358
X72898Y-81153
X79756Y-48387
X82804Y-69215
X84963Y-104648
X86360Y-67691
X86360Y-104013
X86360Y-105029
X88646Y-107315
X94107Y-102108
X95631Y-103632
X97155Y-138557
X100711Y-105791
X103759Y-117729
X111760Y-76200
X112014Y-86868
X112903Y-122809
X113411Y-79121
X114300Y-49022
X115824Y-47498
X115824Y-83058
X117348Y-83058
X124587Y-111760
X125603Y-111760
X127508Y-103251
X136271Y-45847
X137795Y-44323
X139827Y-125984
X140843Y-106553
X141859Y-89027
X146431Y-92202
X149479Y-89154
X152019Y-85598
X155575Y-123698
X157226Y-80391
X158877Y-127000
X164592Y-139954
X166624Y-142621
X167005Y-127381
X167005Y-129413
X167386Y-145415
X167386Y-146304
X168656Y-130048
X168656Y-131064
X168656Y-135382
X169926Y-143891
X170815Y-143764
X171323Y-145415
X173609Y-140716
X174117Y-151130
X174625Y-137033
X175260Y-148844
X176022Y-145415
X177419Y-137795
X178435Y-145796
X179451Y-146812
X179578Y-180213
X185674Y-157226
T2
X48116Y-85871
X49196Y-104890
X50276Y-123910
X50711Y-47562
X51791Y-66582
X55903Y-85429
X56983Y-104448
X58063Y-123468
X58498Y-47120
X59578Y-66140
X69730Y-46482
X70810Y-65502
X71890Y-84521
X72970Y-103540
X74050Y-122560
X75090Y-143585
X75090Y-162635
X77517Y-46040
X78597Y-65060
X79677Y-84079
X80757Y-103098
X81837Y-122118
X82890Y-143585
X82890Y-162635
X94140Y-39762
X94140Y-58813
X94140Y-77863
X94140Y-96913
X94140Y-115963
X94140Y-143585
X94140Y-162635
X101940Y-39762
X101940Y-58813
X101940Y-77863
X101940Y-96913
X101940Y-115963
X101940Y-143585
X101940Y-162635
X113190Y-35000
X113190Y-54050
X113190Y-73100
X113190Y-92150
X113190Y-111200
X113190Y-143585
X113190Y-162635
X120990Y-35000
X120990Y-54050
X120990Y-73100
X120990Y-92150
X120990Y-111200
X120990Y-143585
X120990Y-162635
X133425Y-122196
X134505Y-103177
X135585Y-84157
X136665Y-65138
X137745Y-46118
X141212Y-122638
X142292Y-103619
X143372Y-84599
X144452Y-65580
X145532Y-46561
X146694Y-165576
X152241Y-144875
X152444Y-123276
X153524Y-104257
X154229Y-167595
X154604Y-85237
X155684Y-66218
X156764Y-47198
X159775Y-146894
X160232Y-123718
X161312Y-104699
X162392Y-85679
X163472Y-66660
X164552Y-47641
X165095Y-170507
X170642Y-149806
X172629Y-172526
X178176Y-151825
X182263Y-180038
X188427Y-157036
X189798Y-182056
X195961Y-159055
T3
X167194Y-140222
X167852Y-137769
X169648Y-140879
X170305Y-138426
X172101Y-141537
X172759Y-139083
X174555Y-142194
X175212Y-139741
X177008Y-142852
X177665Y-140398
X179462Y-143509
X180119Y-141056
X181915Y-144166
X182572Y-141713
X184368Y-144824
X185026Y-142370
X186822Y-145481
X187479Y-143028
X189275Y-146139
X189933Y-143685
X191729Y-146796
X192386Y-144343
X194182Y-147453
X194840Y-145000
T4
X44027Y-92098
X45107Y-111117
X45151Y-89490
X46187Y-130137
X46231Y-108509
X46622Y-53789
X47311Y-127529
X47702Y-72809
X47746Y-51181
X48826Y-70201
X50223Y-89202
X51303Y-108221
X51635Y-91666
X52383Y-127241
X52715Y-110685
X52818Y-50893
X53795Y-129705
X53898Y-69913
X54230Y-53357
X55310Y-72377
X65641Y-52709
X66721Y-71729
X66765Y-50101
X67801Y-90748
X67845Y-69121
X68881Y-109767
X68925Y-88140
X69961Y-128787
X70005Y-107159
X70655Y-149570
X70655Y-168620
X71085Y-126179
X71837Y-49813
X71925Y-147030
X71925Y-166080
X72917Y-68833
X73249Y-52277
X73997Y-87852
X74329Y-71297
X75077Y-106871
X75409Y-90316
X76157Y-125891
X76489Y-109335
X77005Y-147030
X77005Y-166080
X77569Y-128355
X78275Y-149570
X78275Y-168620
X89705Y-45748
X89705Y-64798
X89705Y-83848
X89705Y-102898
X89705Y-121948
X89705Y-149570
X89705Y-168620
X90975Y-43207
X90975Y-62258
X90975Y-81307
X90975Y-100358
X90975Y-119408
X90975Y-147030
X90975Y-166080
X96055Y-43207
X96055Y-62258
X96055Y-81307
X96055Y-100358
X96055Y-119408
X96055Y-147030
X96055Y-166080
X97325Y-45748
X97325Y-64798
X97325Y-83848
X97325Y-102898
X97325Y-121948
X97325Y-149570
X97325Y-168620
X108755Y-40985
X108755Y-60035
X108755Y-79085
X108755Y-98135
X108755Y-117185
X108755Y-149570
X108755Y-168620
X110025Y-38445
X110025Y-57495
X110025Y-76545
X110025Y-95595
X110025Y-114645
X110025Y-147030
X110025Y-166080
X115105Y-38445
X115105Y-57495
X115105Y-76545
X115105Y-95595
X115105Y-114645
X115105Y-147030
X115105Y-166080
X116375Y-40985
X116375Y-60035
X116375Y-79085
X116375Y-98135
X116375Y-117185
X116375Y-149570
X116375Y-168620
X128658Y-127920
X129738Y-108900
X130069Y-125456
X130818Y-89881
X131149Y-106437
X131898Y-70862
X132229Y-87417
X132978Y-51842
X133309Y-68398
X134389Y-49378
X135141Y-125744
X136221Y-106725
X136265Y-128352
X137301Y-87705
X137345Y-109332
X138381Y-68686
X138425Y-90313
X139461Y-49666
X139505Y-71294
X140585Y-52274
X140861Y-170210
X142746Y-168085
X146408Y-149509
X147652Y-169400
X147677Y-129000
X148222Y-172182
X148292Y-147384
X148757Y-109980
X149089Y-126536
X149837Y-90961
X150169Y-107517
X150917Y-71942
X151249Y-88497
X151997Y-52922
X152329Y-69478
X153199Y-148699
X153409Y-50458
X153769Y-151481
X154161Y-126824
X155241Y-107805
X155285Y-129432
X156321Y-88785
X156365Y-110412
X157401Y-69766
X157445Y-91393
X158481Y-50746
X158525Y-72374
X159262Y-175140
X159605Y-53354
X161146Y-173015
X164809Y-154439
X166053Y-174330
X166623Y-177112
X166693Y-152314
X171600Y-153629
X172169Y-156411
X176431Y-184671
X178315Y-182546
X182594Y-161670
X183222Y-183861
X183791Y-186643
X184478Y-159545
X189385Y-160860
X189954Y-163642
T5
X42903Y-94706
X43983Y-113725
X45063Y-132745
X45498Y-56397
X46578Y-75416
X53047Y-94130
X54127Y-113149
X55207Y-132169
X55642Y-55821
X56722Y-74840
X64518Y-55317
X65597Y-74336
X66677Y-93356
X67757Y-112375
X68837Y-131395
X69385Y-152110
X69385Y-171160
X74661Y-54741
X75741Y-73760
X76821Y-92780
X77901Y-111799
X78981Y-130819
X79545Y-152110
X79545Y-171160
X88435Y-48287
X88435Y-67337
X88435Y-86388
X88435Y-105438
X88435Y-124488
X88435Y-152110
X88435Y-171160
X98595Y-48287
X98595Y-67337
X98595Y-86388
X98595Y-105438
X98595Y-124488
X98595Y-152110
X98595Y-171160
X107485Y-43525
X107485Y-62575
X107485Y-81625
X107485Y-100675
X107485Y-119725
X107485Y-152110
X107485Y-171160
X117645Y-43525
X117645Y-62575
X117645Y-81625
X117645Y-100675
X117645Y-119725
X117645Y-152110
X117645Y-171160
X127246Y-130384
X128326Y-111364
X129406Y-92345
X130486Y-73326
X131566Y-54306
X137389Y-130960
X138469Y-111940
X138977Y-172334
X139549Y-92921
X140629Y-73902
X141709Y-54882
X144524Y-151633
X146265Y-131464
X147345Y-112444
X148425Y-93425
X148791Y-174964
X149505Y-74406
X150585Y-55386
X154338Y-154263
X156409Y-132040
X157378Y-177265
X157489Y-113020
X158569Y-94001
X159649Y-74982
X160729Y-55962
X162925Y-156564
X167192Y-179894
X172739Y-159193
X174546Y-186796
X180710Y-163794
X184360Y-189425
X190523Y-166424
T6
X27499Y-82690
X31143Y-146852
X35210Y-42214
X60534Y-185977
X99760Y-28504
X125025Y-197292
X182956Y-27500
X189516Y-208608
X193542Y-90788
X204128Y-154075
T7
X47975Y-94418
X49055Y-113437
X50135Y-132457
X50570Y-56109
X51650Y-75128
X69589Y-55029
X70669Y-74048
X71749Y-93068
X72829Y-112087
X73909Y-131107
X74465Y-152110
X74465Y-171160
X93515Y-48287
X93515Y-67337
X93515Y-86388
X93515Y-105438
X93515Y-124488
X93515Y-152110
X93515Y-171160
X112565Y-43525
X112565Y-62575
X112565Y-81625
X112565Y-100675
X112565Y-119725
X112565Y-152110
X112565Y-171160
X132317Y-130672
X133397Y-111652
X134477Y-92633
X135557Y-73614
X136637Y-54594
X143884Y-173649
X149431Y-152948
X151337Y-131752
X152417Y-112732
X153497Y-93713
X154577Y-74694
X155657Y-55674
X162285Y-178580
X167832Y-157879
X179453Y-188110
X185616Y-165109
T0
M30
