  0
SECTION
  2
HEADER
  9
$ACADVER
  1
AC1014
  9
$HANDSEED
  5
FFFF
  9
$MEASUREMENT
 70
     1
  0
ENDSEC
  0
SECTION
  2
TABLES
  0
TABLE
  2
VPORT
  5
8
330
0
100
AcDbSymbolTable
 70
     4
  0
VPORT
  5
2E
330
8
100
AcDbSymbolTableRecord
100
AcDbViewportTableRecord
  2
*ACTIVE
 70
     0
 10
0.0
 20
0.0
 11
1.0
 21
1.0
 12
210.0
 22
148.5
 13
0.0
 23
0.0
 14
10.0
 24
10.0
 15
10.0
 25
10.0
 16
0.0
 26
0.0
 36
1.0
 17
0.0
 27
0.0
 37
0.0
 40
341.0
 41
1.24
 42
50.0
 43
0.0
 44
0.0
 50
0.0
 51
0.0
 71
     0
 72
   100
 73
     1
 74
     3
 75
     0
 76
     0
 77
     0
 78
     0
  0
ENDTAB
  0
TABLE
  2
LTYPE
  5
5
330
0
100
AcDbSymbolTable
 70
     1
  0
LTYPE
  5
14
330
5
100
AcDbSymbolTableRecord
100
AcDbLinetypeTableRecord
  2
BYBLOCK
 70
     0
  3

 72
    65
 73
     0
 40
0.0
  0
LTYPE
  5
15
330
5
100
AcDbSymbolTableRecord
100
AcDbLinetypeTableRecord
  2
BYLAYER
 70
     0
  3

 72
    65
 73
     0
 40
0.0
  0
LTYPE
  5
16
330
5
100
AcDbSymbolTableRecord
100
AcDbLinetypeTableRecord
  2
CONTINUOUS
 70
     0
  3
Solid line
 72
    65
 73
     0
 40
0.0
  0
ENDTAB
  0
TABLE
  2
LAYER
  5
2
100
AcDbSymbolTable
 70
2
  0
LAYER
  5
50
100
AcDbSymbolTableRecord
100
AcDbLayerTableRecord
  2
0
 70
0
  6
CONTINUOUS
  0
LAYER
  5
51
100
AcDbSymbolTableRecord
100
AcDbLayerTableRecord
  2
Your_Design
 70
0
  6
CONTINUOUS
  0
ENDTAB
  0
TABLE
  2
STYLE
  5
3
330
0
100
AcDbSymbolTable
 70
     1
  0
STYLE
  5
11
330
3
100
AcDbSymbolTableRecord
100
AcDbTextStyleTableRecord
  2
STANDARD
 70
     0
 40
0.0
 41
1.0
 50
0.0
 71
     0
 42
2.5
  3
txt
  4

  0
ENDTAB
  0
TABLE
  2
VIEW
  5
6
330
0
100
AcDbSymbolTable
 70
     0
  0
ENDTAB
  0
TABLE
  2
UCS
  5
7
330
0
100
AcDbSymbolTable
 70
     0
  0
ENDTAB
  0
TABLE
  2
APPID
  5
9
330
0
100
AcDbSymbolTable
 70
     2
  0
APPID
  5
12
330
9
100
AcDbSymbolTableRecord
100
AcDbRegAppTableRecord
  2
ACAD
 70
     0
  0
ENDTAB
  0
TABLE
  2
DIMSTYLE
  5
A
330
0
100
AcDbSymbolTable
 70
     1
  0
DIMSTYLE
105
27
330
A
100
AcDbSymbolTableRecord
100
AcDbDimStyleTableRecord
  2
ISO-25
 70
     0
  3

  4

  5

  6

  7

 40
1.0
 41
2.5
 42
0.625
 43
3.75
 44
1.25
 45
0.0
 46
0.0
 47
0.0
 48
0.0
140
2.5
141
2.5
142
0.0
143
0.03937007874016
144
1.0
145
0.0
146
1.0
147
0.625
 71
     0
 72
     0
 73
     0
 74
     0
 75
     0
 76
     0
 77
     1
 78
     8
170
     0
171
     3
172
     1
173
     0
174
     0
175
     0
176
     0
177
     0
178
     0
270
     2
271
     2
272
     2
273
     2
274
     3
340
11
275
     0
280
     0
281
     0
282
     0
283
     0
284
     8
285
     0
286
     0
287
     3
288
     0
  0
ENDTAB
  0
TABLE
  2
BLOCK_RECORD
  5
1
330
0
100
AcDbSymbolTable
 70
     1
  0
BLOCK_RECORD
  5
1F
330
1
100
AcDbSymbolTableRecord
100
AcDbBlockTableRecord
  2
*MODEL_SPACE
  0
BLOCK_RECORD
  5
1B
330
1
100
AcDbSymbolTableRecord
100
AcDbBlockTableRecord
  2
*PAPER_SPACE
  0
ENDTAB
  0
ENDSEC
  0
SECTION
  2
BLOCKS
  0
BLOCK
  5
20
330
1F
100
AcDbEntity
  8
0
100
AcDbBlockBegin
  2
*MODEL_SPACE
 70
     0
 10
0.0
 20
0.0
 30
0.0
  3
*MODEL_SPACE
  1

  0
ENDBLK
  5
21
330
1F
100
AcDbEntity
  8
0
100
AcDbBlockEnd
  0
BLOCK
  5
1C
330
1B
100
AcDbEntity
 67
     1
  8
0
100
AcDbBlockBegin
  2
*PAPER_SPACE
  1

  0
ENDBLK
  5
1D
330
1B
100
AcDbEntity
 67
     1
  8
0
100
AcDbBlockEnd
  0
ENDSEC
  0
SECTION
  2
ENTITIES
  0
LWPOLYLINE
  5
100
100
AcDbEntity
  8
Your_Design
 62
5
100
AcDbPolyline
 90
76
 70
1
 10
5.976106
 20
15.355777
 30
0.0
 10
5.974772
 20
15.355768
 30
0.0
 10
3.058930
 20
15.316258
 30
0.0
 10
3.049320
 20
15.315656
 30
0.0
 10
3.039814
 20
15.314119
 30
0.0
 10
0.498470
 20
14.774332
 30
0.0
 10
0.489170
 20
14.771876
 30
0.0
 10
0.480153
 20
14.768524
 30
0.0
 10
0.471507
 20
14.764308
 30
0.0
 10
0.463314
 20
14.759268
 30
0.0
 10
0.455652
 20
14.753452
 30
0.0
 10
0.448594
 20
14.746916
 30
0.0
 10
0.442208
 20
14.739722
 30
0.0
 10
0.436555
 20
14.731940
 30
0.0
 10
0.431688
 20
14.723642
 30
0.0
 10
0.427655
 20
14.714909
 30
0.0
 10
0.424493
 20
14.705825
 30
0.0
 10
0.422233
 20
14.696475
 30
0.0
 10
0.118650
 20
13.102950
 30
0.0
 10
0.117234
 20
13.092492
 30
0.0
 10
0.116945
 20
13.081942
 30
0.0
 10
0.136702
 20
12.330816
 30
0.0
 10
0.136906
 20
12.326561
 30
0.0
 10
0.260605
 20
10.551597
 30
0.0
 10
0.261709
 20
10.542238
 30
0.0
 10
0.263704
 20
10.533028
 30
0.0
 10
0.266570
 20
10.524050
 30
0.0
 10
0.270282
 20
10.515387
 30
0.0
 10
0.274805
 20
10.507120
 30
0.0
 10
0.280098
 20
10.499323
 30
0.0
 10
1.437240
 20
8.958998
 30
0.0
 10
1.443143
 20
8.951865
 30
0.0
 10
1.449690
 20
8.945319
 30
0.0
 10
1.456823
 20
8.939416
 30
0.0
 10
1.464480
 20
8.934210
 30
0.0
 10
1.472591
 20
8.929747
 30
0.0
 10
1.481086
 20
8.926066
 30
0.0
 10
1.489890
 20
8.923200
 30
0.0
 10
1.498924
 20
8.921172
 30
0.0
 10
6.576941
 20
8.030159
 30
0.0
 10
6.586591
 20
8.028954
 30
0.0
 10
6.596313
 20
8.028718
 30
0.0
 10
6.606012
 20
8.029430
 30
0.0
 10
6.615593
 20
8.031096
 30
0.0
 10
6.624963
 20
8.033698
 30
0.0
 10
6.634030
 20
8.037214
 30
0.0
 10
6.642706
 20
8.041608
 30
0.0
 10
6.650905
 20
8.046836
 30
0.0
 10
6.658549
 20
8.052849
 30
0.0
 10
6.665562
 20
8.059586
 30
0.0
 10
6.671876
 20
8.066983
 30
0.0
 10
6.677430
 20
8.074966
 30
0.0
 10
6.682168
 20
8.083459
 30
0.0
 10
6.686046
 20
8.092378
 30
0.0
 10
6.689022
 20
8.101635
 30
0.0
 10
6.965178
 20
9.132263
 30
0.0
 10
7.264300
 20
10.248600
 30
0.0
 10
7.266473
 20
10.258887
 30
0.0
 10
7.267540
 20
10.269348
 30
0.0
 10
7.267500
 20
10.279863
 30
0.0
 10
7.266323
 20
10.290312
 30
0.0
 10
6.432787
 20
15.273597
 30
0.0
 10
6.430673
 20
15.283242
 30
0.0
 10
6.427602
 20
15.292626
 30
0.0
 10
6.423607
 20
15.301655
 30
0.0
 10
6.418726
 20
15.310239
 30
0.0
 10
6.413010
 20
15.318290
 30
0.0
 10
6.406497
 20
15.325720
 30
0.0
 10
6.399291
 20
15.332470
 30
0.0
 10
6.391445
 20
15.338465
 30
0.0
 10
6.383037
 20
15.343642
 30
0.0
 10
6.374153
 20
15.347952
 30
0.0
 10
6.364882
 20
15.351349
 30
0.0
 10
6.355317
 20
15.353801
 30
0.0
 10
6.345555
 20
15.355281
 30
0.0
 10
6.335693
 20
15.355777
 30
0.0
  0
LWPOLYLINE
  5
101
100
AcDbEntity
  8
Your_Design
 62
5
100
AcDbPolyline
 90
4
 70
1
 10
6.777957
 20
10.034537
 30
0.0
 10
6.635301
 20
9.502137
 30
0.0
 10
6.102901
 20
9.644793
 30
0.0
 10
6.245557
 20
10.177193
 30
0.0
  0
LWPOLYLINE
  5
102
100
AcDbEntity
  8
Your_Design
 62
5
100
AcDbPolyline
 90
4
 70
1
 10
6.535314
 20
9.128982
 30
0.0
 10
6.392658
 20
8.596582
 30
0.0
 10
5.860258
 20
8.739237
 30
0.0
 10
6.002914
 20
9.271638
 30
0.0
  0
LWPOLYLINE
  5
103
100
AcDbEntity
  8
Your_Design
 62
5
100
AcDbPolyline
 90
4
 70
1
 10
6.077777
 20
10.319207
 30
0.0
 10
5.935121
 20
9.786807
 30
0.0
 10
5.402721
 20
9.929463
 30
0.0
 10
5.545377
 20
10.461863
 30
0.0
  0
LWPOLYLINE
  5
104
100
AcDbEntity
  8
Your_Design
 62
5
100
AcDbPolyline
 90
4
 70
1
 10
5.859398
 20
9.504207
 30
0.0
 10
5.716742
 20
8.971807
 30
0.0
 10
5.184342
 20
9.114463
 30
0.0
 10
5.326998
 20
9.646863
 30
0.0
  0
LWPOLYLINE
  5
105
100
AcDbEntity
  8
Your_Design
 62
5
100
AcDbPolyline
 90
4
 70
1
 10
5.551683
 20
14.407651
 30
0.0
 10
5.520435
 20
13.857357
 30
0.0
 10
4.970140
 20
13.888605
 30
0.0
 10
5.001388
 20
14.438899
 30
0.0
  0
LWPOLYLINE
  5
106
100
AcDbEntity
  8
Your_Design
 62
5
100
AcDbPolyline
 90
4
 70
1
 10
5.509163
 20
13.658858
 30
0.0
 10
5.477915
 20
13.108563
 30
0.0
 10
4.927621
 20
13.139811
 30
0.0
 10
4.958869
 20
13.690106
 30
0.0
  0
LWPOLYLINE
  5
107
100
AcDbEntity
  8
Your_Design
 62
5
100
AcDbPolyline
 90
4
 70
1
 10
5.466644
 20
12.910064
 30
0.0
 10
5.435396
 20
12.359769
 30
0.0
 10
4.885101
 20
12.391017
 30
0.0
 10
4.916349
 20
12.941312
 30
0.0
  0
LWPOLYLINE
  5
108
100
AcDbEntity
  8
Your_Design
 62
5
100
AcDbPolyline
 90
4
 70
1
 10
5.424124
 20
12.161270
 30
0.0
 10
5.392876
 20
11.610976
 30
0.0
 10
4.842582
 20
11.642224
 30
0.0
 10
4.873830
 20
12.192518
 30
0.0
  0
LWPOLYLINE
  5
109
100
AcDbEntity
  8
Your_Design
 62
5
100
AcDbPolyline
 90
4
 70
1
 10
5.381604
 20
11.412476
 30
0.0
 10
5.350356
 20
10.862182
 30
0.0
 10
4.800062
 20
10.893430
 30
0.0
 10
4.831310
 20
11.443724
 30
0.0
  0
LWPOLYLINE
  5
10a
100
AcDbEntity
  8
Your_Design
 62
5
100
AcDbPolyline
 90
4
 70
1
 10
5.353332
 20
10.513321
 30
0.0
 10
5.210676
 20
9.980921
 30
0.0
 10
4.678276
 20
10.123577
 30
0.0
 10
4.820932
 20
10.655977
 30
0.0
  0
LWPOLYLINE
  5
10b
100
AcDbEntity
  8
Your_Design
 62
5
100
AcDbPolyline
 90
4
 70
1
 10
5.134954
 20
9.698321
 30
0.0
 10
4.992298
 20
9.165921
 30
0.0
 10
4.459898
 20
9.308577
 30
0.0
 10
4.602554
 20
9.840977
 30
0.0
  0
LWPOLYLINE
  5
10c
100
AcDbEntity
  8
Your_Design
 62
5
100
AcDbPolyline
 90
4
 70
1
 10
4.802889
 20
14.450171
 30
0.0
 10
4.771641
 20
13.899876
 30
0.0
 10
4.221347
 20
13.931124
 30
0.0
 10
4.252595
 20
14.481419
 30
0.0
  0
LWPOLYLINE
  5
10d
100
AcDbEntity
  8
Your_Design
 62
5
100
AcDbPolyline
 90
4
 70
1
 10
4.760370
 20
13.701377
 30
0.0
 10
4.729122
 20
13.151083
 30
0.0
 10
4.178827
 20
13.182331
 30
0.0
 10
4.210075
 20
13.732625
 30
0.0
  0
LWPOLYLINE
  5
10e
100
AcDbEntity
  8
Your_Design
 62
5
100
AcDbPolyline
 90
4
 70
1
 10
4.717850
 20
12.952584
 30
0.0
 10
4.686602
 20
12.402289
 30
0.0
 10
4.136308
 20
12.433537
 30
0.0
 10
4.167555
 20
12.983832
 30
0.0
  0
LWPOLYLINE
  5
10f
100
AcDbEntity
  8
Your_Design
 62
5
100
AcDbPolyline
 90
4
 70
1
 10
4.675330
 20
12.203790
 30
0.0
 10
4.644082
 20
11.653495
 30
0.0
 10
4.093788
 20
11.684743
 30
0.0
 10
4.125036
 20
12.235038
 30
0.0
  0
LWPOLYLINE
  5
110
100
AcDbEntity
  8
Your_Design
 62
5
100
AcDbPolyline
 90
4
 70
1
 10
4.632811
 20
11.454996
 30
0.0
 10
4.601563
 20
10.904702
 30
0.0
 10
4.051268
 20
10.935950
 30
0.0
 10
4.082516
 20
11.486244
 30
0.0
  0
LWPOLYLINE
  5
111
100
AcDbEntity
  8
Your_Design
 62
5
100
AcDbPolyline
 90
4
 70
1
 10
3.839962
 20
14.152037
 30
0.0
 10
3.839962
 20
13.600855
 30
0.0
 10
3.288781
 20
13.600855
 30
0.0
 10
3.288781
 20
14.152037
 30
0.0
  0
LWPOLYLINE
  5
112
100
AcDbEntity
  8
Your_Design
 62
5
100
AcDbPolyline
 90
4
 70
1
 10
3.839962
 20
9.877037
 30
0.0
 10
3.839962
 20
9.325856
 30
0.0
 10
3.288781
 20
9.325856
 30
0.0
 10
3.288781
 20
9.877037
 30
0.0
  0
LWPOLYLINE
  5
113
100
AcDbEntity
  8
Your_Design
 62
5
100
AcDbPolyline
 90
4
 70
1
 10
3.839962
 20
10.627037
 30
0.0
 10
3.839962
 20
10.075856
 30
0.0
 10
3.288781
 20
10.075856
 30
0.0
 10
3.288781
 20
10.627037
 30
0.0
  0
LWPOLYLINE
  5
114
100
AcDbEntity
  8
Your_Design
 62
5
100
AcDbPolyline
 90
4
 70
1
 10
3.839962
 20
11.902037
 30
0.0
 10
3.839962
 20
11.350856
 30
0.0
 10
3.288781
 20
11.350856
 30
0.0
 10
3.288781
 20
11.902037
 30
0.0
  0
LWPOLYLINE
  5
115
100
AcDbEntity
  8
Your_Design
 62
5
100
AcDbPolyline
 90
4
 70
1
 10
3.839962
 20
12.652037
 30
0.0
 10
3.839962
 20
12.100856
 30
0.0
 10
3.288781
 20
12.100856
 30
0.0
 10
3.288781
 20
12.652037
 30
0.0
  0
LWPOLYLINE
  5
116
100
AcDbEntity
  8
Your_Design
 62
5
100
AcDbPolyline
 90
4
 70
1
 10
3.839962
 20
14.902037
 30
0.0
 10
3.839962
 20
14.350855
 30
0.0
 10
3.288781
 20
14.350855
 30
0.0
 10
3.288781
 20
14.902037
 30
0.0
  0
LWPOLYLINE
  5
117
100
AcDbEntity
  8
Your_Design
 62
5
100
AcDbPolyline
 90
4
 70
1
 10
3.839962
 20
13.402037
 30
0.0
 10
3.839962
 20
12.850855
 30
0.0
 10
3.288781
 20
12.850855
 30
0.0
 10
3.288781
 20
13.402037
 30
0.0
  0
LWPOLYLINE
  5
118
100
AcDbEntity
  8
Your_Design
 62
5
100
AcDbPolyline
 90
4
 70
1
 10
3.089962
 20
12.464537
 30
0.0
 10
3.089962
 20
11.913356
 30
0.0
 10
2.538781
 20
11.913356
 30
0.0
 10
2.538781
 20
12.464537
 30
0.0
  0
LWPOLYLINE
  5
119
100
AcDbEntity
  8
Your_Design
 62
5
100
AcDbPolyline
 90
4
 70
1
 10
3.089962
 20
13.214537
 30
0.0
 10
3.089962
 20
12.663355
 30
0.0
 10
2.538781
 20
12.663355
 30
0.0
 10
2.538781
 20
13.214537
 30
0.0
  0
LWPOLYLINE
  5
11a
100
AcDbEntity
  8
Your_Design
 62
5
100
AcDbPolyline
 90
4
 70
1
 10
3.089962
 20
14.714537
 30
0.0
 10
3.089962
 20
14.163355
 30
0.0
 10
2.538781
 20
14.163355
 30
0.0
 10
2.538781
 20
14.714537
 30
0.0
  0
LWPOLYLINE
  5
11b
100
AcDbEntity
  8
Your_Design
 62
5
100
AcDbPolyline
 90
4
 70
1
 10
3.089962
 20
9.877037
 30
0.0
 10
3.089962
 20
9.325856
 30
0.0
 10
2.538781
 20
9.325856
 30
0.0
 10
2.538781
 20
9.877037
 30
0.0
  0
LWPOLYLINE
  5
11c
100
AcDbEntity
  8
Your_Design
 62
5
100
AcDbPolyline
 90
4
 70
1
 10
3.089962
 20
10.627037
 30
0.0
 10
3.089962
 20
10.075856
 30
0.0
 10
2.538781
 20
10.075856
 30
0.0
 10
2.538781
 20
10.627037
 30
0.0
  0
LWPOLYLINE
  5
11d
100
AcDbEntity
  8
Your_Design
 62
5
100
AcDbPolyline
 90
4
 70
1
 10
3.089962
 20
11.714537
 30
0.0
 10
3.089962
 20
11.163356
 30
0.0
 10
2.538781
 20
11.163356
 30
0.0
 10
2.538781
 20
11.714537
 30
0.0
  0
LWPOLYLINE
  5
11e
100
AcDbEntity
  8
Your_Design
 62
5
100
AcDbPolyline
 90
4
 70
1
 10
3.089962
 20
13.964537
 30
0.0
 10
3.089962
 20
13.413355
 30
0.0
 10
2.538781
 20
13.413355
 30
0.0
 10
2.538781
 20
13.964537
 30
0.0
  0
LWPOLYLINE
  5
11f
100
AcDbEntity
  8
Your_Design
 62
5
100
AcDbPolyline
 90
4
 70
1
 10
2.339962
 20
9.877037
 30
0.0
 10
2.339962
 20
9.325856
 30
0.0
 10
1.788781
 20
9.325856
 30
0.0
 10
1.788781
 20
9.877037
 30
0.0
  0
LWPOLYLINE
  5
120
100
AcDbEntity
  8
Your_Design
 62
5
100
AcDbPolyline
 90
4
 70
1
 10
2.339962
 20
10.627037
 30
0.0
 10
2.339962
 20
10.075856
 30
0.0
 10
1.788781
 20
10.075856
 30
0.0
 10
1.788781
 20
10.627037
 30
0.0
  0
LWPOLYLINE
  5
121
100
AcDbEntity
  8
Your_Design
 62
5
100
AcDbPolyline
 90
4
 70
1
 10
2.302032
 20
11.469124
 30
0.0
 10
2.333280
 20
10.918830
 30
0.0
 10
1.782986
 20
10.887582
 30
0.0
 10
1.751738
 20
11.437876
 30
0.0
  0
LWPOLYLINE
  5
122
100
AcDbEntity
  8
Your_Design
 62
5
100
AcDbPolyline
 90
4
 70
1
 10
2.259513
 20
12.217918
 30
0.0
 10
2.290761
 20
11.667623
 30
0.0
 10
1.740466
 20
11.636375
 30
0.0
 10
1.709218
 20
12.186670
 30
0.0
  0
LWPOLYLINE
  5
123
100
AcDbEntity
  8
Your_Design
 62
5
100
AcDbPolyline
 90
4
 70
1
 10
2.216993
 20
12.966712
 30
0.0
 10
2.248241
 20
12.416417
 30
0.0
 10
1.697946
 20
12.385169
 30
0.0
 10
1.666698
 20
12.935464
 30
0.0
  0
LWPOLYLINE
  5
124
100
AcDbEntity
  8
Your_Design
 62
5
100
AcDbPolyline
 90
4
 70
1
 10
2.174473
 20
13.715505
 30
0.0
 10
2.205721
 20
13.165211
 30
0.0
 10
1.655427
 20
13.133963
 30
0.0
 10
1.624179
 20
13.684257
 30
0.0
  0
LWPOLYLINE
  5
125
100
AcDbEntity
  8
Your_Design
 62
5
100
AcDbPolyline
 90
4
 70
1
 10
2.131954
 20
14.464299
 30
0.0
 10
2.163202
 20
13.914004
 30
0.0
 10
1.612907
 20
13.882756
 30
0.0
 10
1.581659
 20
14.433051
 30
0.0
  0
LWPOLYLINE
  5
126
100
AcDbEntity
  8
Your_Design
 62
5
100
AcDbPolyline
 90
4
 70
1
 10
1.425680
 20
13.672986
 30
0.0
 10
1.456928
 20
13.122691
 30
0.0
 10
0.906633
 20
13.091443
 30
0.0
 10
0.875385
 20
13.641738
 30
0.0
  0
LWPOLYLINE
  5
127
100
AcDbEntity
  8
Your_Design
 62
5
100
AcDbPolyline
 90
4
 70
1
 10
1.383160
 20
14.421779
 30
0.0
 10
1.414408
 20
13.871485
 30
0.0
 10
0.864113
 20
13.840237
 30
0.0
 10
0.832865
 20
14.390531
 30
0.0
  0
LWPOLYLINE
  5
128
100
AcDbEntity
  8
Your_Design
 62
5
100
AcDbPolyline
 90
4
 70
1
 10
1.366040
 20
11.415974
 30
0.0
 10
1.397288
 20
10.865680
 30
0.0
 10
0.846993
 20
10.834432
 30
0.0
 10
0.815745
 20
11.384726
 30
0.0
  0
LWPOLYLINE
  5
129
100
AcDbEntity
  8
Your_Design
 62
5
100
AcDbPolyline
 90
4
 70
1
 10
1.323520
 20
12.164768
 30
0.0
 10
1.354768
 20
11.614474
 30
0.0
 10
0.804474
 20
11.583226
 30
0.0
 10
0.773226
 20
12.133520
 30
0.0
  0
LWPOLYLINE
  5
12a
100
AcDbEntity
  8
Your_Design
 62
5
100
AcDbPolyline
 90
4
 70
1
 10
1.281001
 20
12.913562
 30
0.0
 10
1.312249
 20
12.363267
 30
0.0
 10
0.761954
 20
12.332019
 30
0.0
 10
0.730706
 20
12.882314
 30
0.0
  0
LWPOLYLINE
  5
12b
100
AcDbEntity
  8
Your_Design
 62
5
100
AcDbPolyline
 90
65
 70
1
 10
3.119320
 20
15.217841
 30
0.0
 10
3.119320
 20
15.217841
 30
0.0
 10
3.119037
 20
15.212053
 30
0.0
 10
3.118186
 20
15.206320
 30
0.0
 10
3.116778
 20
15.200699
 30
0.0
 10
3.114826
 20
15.195242
 30
0.0
 10
3.112348
 20
15.190003
 30
0.0
 10
3.109368
 20
15.185032
 30
0.0
 10
3.105916
 20
15.180377
 30
0.0
 10
3.102024
 20
15.176083
 30
0.0
 10
3.097729
 20
15.172191
 30
0.0
 10
3.093075
 20
15.168739
 30
0.0
 10
3.088104
 20
15.165760
 30
0.0
 10
3.082865
 20
15.163282
 30
0.0
 10
3.077408
 20
15.161329
 30
0.0
 10
3.071786
 20
15.159921
 30
0.0
 10
3.066054
 20
15.159071
 30
0.0
 10
3.060265
 20
15.158787
 30
0.0
 10
3.054477
 20
15.159071
 30
0.0
 10
3.048744
 20
15.159921
 30
0.0
 10
3.043122
 20
15.161329
 30
0.0
 10
3.037666
 20
15.163282
 30
0.0
 10
3.032427
 20
15.165760
 30
0.0
 10
3.027456
 20
15.168739
 30
0.0
 10
3.022801
 20
15.172191
 30
0.0
 10
3.018507
 20
15.176083
 30
0.0
 10
3.014615
 20
15.180377
 30
0.0
 10
3.011163
 20
15.185032
 30
0.0
 10
3.008183
 20
15.190003
 30
0.0
 10
3.005705
 20
15.195242
 30
0.0
 10
3.003753
 20
15.200699
 30
0.0
 10
3.002344
 20
15.206320
 30
0.0
 10
3.001494
 20
15.212053
 30
0.0
 10
3.001211
 20
15.217841
 30
0.0
 10
3.001494
 20
15.223630
 30
0.0
 10
3.002344
 20
15.229363
 30
0.0
 10
3.003753
 20
15.234984
 30
0.0
 10
3.005705
 20
15.240441
 30
0.0
 10
3.008183
 20
15.245680
 30
0.0
 10
3.011163
 20
15.250651
 30
0.0
 10
3.014615
 20
15.255306
 30
0.0
 10
3.018507
 20
15.259600
 30
0.0
 10
3.022801
 20
15.263492
 30
0.0
 10
3.027456
 20
15.266944
 30
0.0
 10
3.032427
 20
15.269923
 30
0.0
 10
3.037666
 20
15.272401
 30
0.0
 10
3.043122
 20
15.274354
 30
0.0
 10
3.048744
 20
15.275762
 30
0.0
 10
3.054477
 20
15.276612
 30
0.0
 10
3.060265
 20
15.276896
 30
0.0
 10
3.066054
 20
15.276612
 30
0.0
 10
3.071786
 20
15.275762
 30
0.0
 10
3.077408
 20
15.274354
 30
0.0
 10
3.082865
 20
15.272401
 30
0.0
 10
3.088104
 20
15.269923
 30
0.0
 10
3.093075
 20
15.266944
 30
0.0
 10
3.097729
 20
15.263492
 30
0.0
 10
3.102024
 20
15.259600
 30
0.0
 10
3.105916
 20
15.255306
 30
0.0
 10
3.109368
 20
15.250651
 30
0.0
 10
3.112348
 20
15.245680
 30
0.0
 10
3.114826
 20
15.240441
 30
0.0
 10
3.116778
 20
15.234984
 30
0.0
 10
3.118186
 20
15.229363
 30
0.0
 10
3.119037
 20
15.223630
 30
0.0
  0
LWPOLYLINE
  5
12c
100
AcDbEntity
  8
Your_Design
 62
5
100
AcDbPolyline
 90
65
 70
1
 10
0.577976
 20
14.678055
 30
0.0
 10
0.577976
 20
14.678055
 30
0.0
 10
0.577692
 20
14.672266
 30
0.0
 10
0.576842
 20
14.666533
 30
0.0
 10
0.575434
 20
14.660912
 30
0.0
 10
0.573481
 20
14.655455
 30
0.0
 10
0.571003
 20
14.650216
 30
0.0
 10
0.568024
 20
14.645245
 30
0.0
 10
0.564572
 20
14.640590
 30
0.0
 10
0.560679
 20
14.636296
 30
0.0
 10
0.556385
 20
14.632404
 30
0.0
 10
0.551730
 20
14.628952
 30
0.0
 10
0.546760
 20
14.625972
 30
0.0
 10
0.541521
 20
14.623494
 30
0.0
 10
0.536064
 20
14.621542
 30
0.0
 10
0.530442
 20
14.620134
 30
0.0
 10
0.524710
 20
14.619283
 30
0.0
 10
0.518921
 20
14.619000
 30
0.0
 10
0.513133
 20
14.619283
 30
0.0
 10
0.507400
 20
14.620134
 30
0.0
 10
0.501778
 20
14.621542
 30
0.0
 10
0.496322
 20
14.623494
 30
0.0
 10
0.491083
 20
14.625972
 30
0.0
 10
0.486112
 20
14.628952
 30
0.0
 10
0.481457
 20
14.632404
 30
0.0
 10
0.477163
 20
14.636296
 30
0.0
 10
0.473271
 20
14.640590
 30
0.0
 10
0.469818
 20
14.645245
 30
0.0
 10
0.466839
 20
14.650216
 30
0.0
 10
0.464361
 20
14.655455
 30
0.0
 10
0.462409
 20
14.660912
 30
0.0
 10
0.461000
 20
14.666533
 30
0.0
 10
0.460150
 20
14.672266
 30
0.0
 10
0.459866
 20
14.678055
 30
0.0
 10
0.460150
 20
14.683843
 30
0.0
 10
0.461000
 20
14.689576
 30
0.0
 10
0.462409
 20
14.695197
 30
0.0
 10
0.464361
 20
14.700654
 30
0.0
 10
0.466839
 20
14.705893
 30
0.0
 10
0.469818
 20
14.710864
 30
0.0
 10
0.473271
 20
14.715519
 30
0.0
 10
0.477163
 20
14.719813
 30
0.0
 10
0.481457
 20
14.723705
 30
0.0
 10
0.486112
 20
14.727157
 30
0.0
 10
0.491083
 20
14.730137
 30
0.0
 10
0.496322
 20
14.732615
 30
0.0
 10
0.501778
 20
14.734567
 30
0.0
 10
0.507400
 20
14.735975
 30
0.0
 10
0.513133
 20
14.736826
 30
0.0
 10
0.518921
 20
14.737109
 30
0.0
 10
0.524710
 20
14.736826
 30
0.0
 10
0.530442
 20
14.735975
 30
0.0
 10
0.536064
 20
14.734567
 30
0.0
 10
0.541521
 20
14.732615
 30
0.0
 10
0.546760
 20
14.730137
 30
0.0
 10
0.551730
 20
14.727157
 30
0.0
 10
0.556385
 20
14.723705
 30
0.0
 10
0.560679
 20
14.719813
 30
0.0
 10
0.564572
 20
14.715519
 30
0.0
 10
0.568024
 20
14.710864
 30
0.0
 10
0.571003
 20
14.705893
 30
0.0
 10
0.573481
 20
14.700654
 30
0.0
 10
0.575434
 20
14.695197
 30
0.0
 10
0.576842
 20
14.689576
 30
0.0
 10
0.577692
 20
14.683843
 30
0.0
  0
LWPOLYLINE
  5
12d
100
AcDbEntity
  8
Your_Design
 62
5
100
AcDbPolyline
 90
65
 70
1
 10
0.274391
 20
13.084530
 30
0.0
 10
0.274391
 20
13.084530
 30
0.0
 10
0.274107
 20
13.078742
 30
0.0
 10
0.273257
 20
13.073009
 30
0.0
 10
0.271849
 20
13.067387
 30
0.0
 10
0.269896
 20
13.061930
 30
0.0
 10
0.267418
 20
13.056692
 30
0.0
 10
0.264439
 20
13.051721
 30
0.0
 10
0.260987
 20
13.047066
 30
0.0
 10
0.257095
 20
13.042772
 30
0.0
 10
0.252801
 20
13.038880
 30
0.0
 10
0.248146
 20
13.035427
 30
0.0
 10
0.243175
 20
13.032448
 30
0.0
 10
0.237936
 20
13.029970
 30
0.0
 10
0.232479
 20
13.028017
 30
0.0
 10
0.226857
 20
13.026609
 30
0.0
 10
0.221125
 20
13.025759
 30
0.0
 10
0.215336
 20
13.025475
 30
0.0
 10
0.209548
 20
13.025759
 30
0.0
 10
0.203815
 20
13.026609
 30
0.0
 10
0.198194
 20
13.028017
 30
0.0
 10
0.192737
 20
13.029970
 30
0.0
 10
0.187498
 20
13.032448
 30
0.0
 10
0.182527
 20
13.035427
 30
0.0
 10
0.177872
 20
13.038880
 30
0.0
 10
0.173578
 20
13.042772
 30
0.0
 10
0.169686
 20
13.047066
 30
0.0
 10
0.166234
 20
13.051721
 30
0.0
 10
0.163254
 20
13.056692
 30
0.0
 10
0.160777
 20
13.061930
 30
0.0
 10
0.158824
 20
13.067387
 30
0.0
 10
0.157416
 20
13.073009
 30
0.0
 10
0.156566
 20
13.078742
 30
0.0
 10
0.156281
 20
13.084530
 30
0.0
 10
0.156566
 20
13.090318
 30
0.0
 10
0.157416
 20
13.096051
 30
0.0
 10
0.158824
 20
13.101673
 30
0.0
 10
0.160777
 20
13.107129
 30
0.0
 10
0.163254
 20
13.112368
 30
0.0
 10
0.166234
 20
13.117339
 30
0.0
 10
0.169686
 20
13.121994
 30
0.0
 10
0.173578
 20
13.126288
 30
0.0
 10
0.177872
 20
13.130180
 30
0.0
 10
0.182527
 20
13.133633
 30
0.0
 10
0.187498
 20
13.136612
 30
0.0
 10
0.192737
 20
13.139090
 30
0.0
 10
0.198194
 20
13.141042
 30
0.0
 10
0.203815
 20
13.142451
 30
0.0
 10
0.209548
 20
13.143301
 30
0.0
 10
0.215336
 20
13.143585
 30
0.0
 10
0.221125
 20
13.143301
 30
0.0
 10
0.226857
 20
13.142451
 30
0.0
 10
0.232479
 20
13.141042
 30
0.0
 10
0.237936
 20
13.139090
 30
0.0
 10
0.243175
 20
13.136612
 30
0.0
 10
0.248146
 20
13.133633
 30
0.0
 10
0.252801
 20
13.130180
 30
0.0
 10
0.257095
 20
13.126288
 30
0.0
 10
0.260987
 20
13.121994
 30
0.0
 10
0.264439
 20
13.117339
 30
0.0
 10
0.267418
 20
13.112368
 30
0.0
 10
0.269896
 20
13.107129
 30
0.0
 10
0.271849
 20
13.101673
 30
0.0
 10
0.273257
 20
13.096051
 30
0.0
 10
0.274107
 20
13.090318
 30
0.0
  0
LWPOLYLINE
  5
12e
100
AcDbEntity
  8
Your_Design
 62
5
100
AcDbPolyline
 90
65
 70
1
 10
0.417847
 20
10.558440
 30
0.0
 10
0.417847
 20
10.558440
 30
0.0
 10
0.417564
 20
10.552652
 30
0.0
 10
0.416713
 20
10.546919
 30
0.0
 10
0.415305
 20
10.541297
 30
0.0
 10
0.413353
 20
10.535841
 30
0.0
 10
0.410875
 20
10.530602
 30
0.0
 10
0.407895
 20
10.525631
 30
0.0
 10
0.404443
 20
10.520976
 30
0.0
 10
0.400551
 20
10.516682
 30
0.0
 10
0.396257
 20
10.512792
 30
0.0
 10
0.391602
 20
10.509339
 30
0.0
 10
0.386631
 20
10.506359
 30
0.0
 10
0.381392
 20
10.503882
 30
0.0
 10
0.375936
 20
10.501930
 30
0.0
 10
0.370314
 20
10.500520
 30
0.0
 10
0.364581
 20
10.499670
 30
0.0
 10
0.358793
 20
10.499394
 30
0.0
 10
0.353004
 20
10.499670
 30
0.0
 10
0.347272
 20
10.500520
 30
0.0
 10
0.341650
 20
10.501930
 30
0.0
 10
0.336193
 20
10.503882
 30
0.0
 10
0.330954
 20
10.506359
 30
0.0
 10
0.325984
 20
10.509339
 30
0.0
 10
0.321329
 20
10.512792
 30
0.0
 10
0.317035
 20
10.516682
 30
0.0
 10
0.313143
 20
10.520976
 30
0.0
 10
0.309690
 20
10.525631
 30
0.0
 10
0.306711
 20
10.530602
 30
0.0
 10
0.304233
 20
10.535841
 30
0.0
 10
0.302281
 20
10.541297
 30
0.0
 10
0.300872
 20
10.546919
 30
0.0
 10
0.300022
 20
10.552652
 30
0.0
 10
0.299738
 20
10.558440
 30
0.0
 10
0.300022
 20
10.564228
 30
0.0
 10
0.300872
 20
10.569961
 30
0.0
 10
0.302281
 20
10.575583
 30
0.0
 10
0.304233
 20
10.581039
 30
0.0
 10
0.306711
 20
10.586278
 30
0.0
 10
0.309690
 20
10.591249
 30
0.0
 10
0.313143
 20
10.595904
 30
0.0
 10
0.317035
 20
10.600198
 30
0.0
 10
0.321329
 20
10.604092
 30
0.0
 10
0.325984
 20
10.607545
 30
0.0
 10
0.330954
 20
10.610525
 30
0.0
 10
0.336193
 20
10.613001
 30
0.0
 10
0.341650
 20
10.614954
 30
0.0
 10
0.347272
 20
10.616363
 30
0.0
 10
0.353004
 20
10.617214
 30
0.0
 10
0.358793
 20
10.617489
 30
0.0
 10
0.364581
 20
10.617214
 30
0.0
 10
0.370314
 20
10.616363
 30
0.0
 10
0.375936
 20
10.614954
 30
0.0
 10
0.381392
 20
10.613001
 30
0.0
 10
0.386631
 20
10.610525
 30
0.0
 10
0.391602
 20
10.607545
 30
0.0
 10
0.396257
 20
10.604092
 30
0.0
 10
0.400551
 20
10.600198
 30
0.0
 10
0.404443
 20
10.595904
 30
0.0
 10
0.407895
 20
10.591249
 30
0.0
 10
0.410875
 20
10.586278
 30
0.0
 10
0.413353
 20
10.581039
 30
0.0
 10
0.415305
 20
10.575583
 30
0.0
 10
0.416713
 20
10.569961
 30
0.0
 10
0.417564
 20
10.564228
 30
0.0
  0
LWPOLYLINE
  5
12f
100
AcDbEntity
  8
Your_Design
 62
5
100
AcDbPolyline
 90
64
 70
1
 10
1.574989
 20
9.018115
 30
0.0
 10
1.574706
 20
9.012327
 30
0.0
 10
1.573855
 20
9.006594
 30
0.0
 10
1.572447
 20
9.000972
 30
0.0
 10
1.570495
 20
8.995516
 30
0.0
 10
1.568017
 20
8.990277
 30
0.0
 10
1.565037
 20
8.985306
 30
0.0
 10
1.561585
 20
8.980651
 30
0.0
 10
1.557693
 20
8.976357
 30
0.0
 10
1.553399
 20
8.972467
 30
0.0
 10
1.548744
 20
8.969014
 30
0.0
 10
1.543773
 20
8.966034
 30
0.0
 10
1.538534
 20
8.963558
 30
0.0
 10
1.533077
 20
8.961605
 30
0.0
 10
1.527455
 20
8.960195
 30
0.0
 10
1.521723
 20
8.959345
 30
0.0
 10
1.515934
 20
8.959069
 30
0.0
 10
1.510146
 20
8.959345
 30
0.0
 10
1.504413
 20
8.960195
 30
0.0
 10
1.498792
 20
8.961605
 30
0.0
 10
1.493335
 20
8.963558
 30
0.0
 10
1.488096
 20
8.966034
 30
0.0
 10
1.483125
 20
8.969014
 30
0.0
 10
1.478470
 20
8.972467
 30
0.0
 10
1.474176
 20
8.976357
 30
0.0
 10
1.470284
 20
8.980651
 30
0.0
 10
1.466832
 20
8.985306
 30
0.0
 10
1.463852
 20
8.990277
 30
0.0
 10
1.461374
 20
8.995516
 30
0.0
 10
1.459422
 20
9.000972
 30
0.0
 10
1.458014
 20
9.006594
 30
0.0
 10
1.457163
 20
9.012327
 30
0.0
 10
1.456880
 20
9.018115
 30
0.0
 10
1.457163
 20
9.023904
 30
0.0
 10
1.458014
 20
9.029636
 30
0.0
 10
1.459422
 20
9.035258
 30
0.0
 10
1.461374
 20
9.040715
 30
0.0
 10
1.463852
 20
9.045954
 30
0.0
 10
1.466832
 20
9.050924
 30
0.0
 10
1.470284
 20
9.055579
 30
0.0
 10
1.474176
 20
9.059873
 30
0.0
 10
1.478470
 20
9.063767
 30
0.0
 10
1.483125
 20
9.067220
 30
0.0
 10
1.488096
 20
9.070200
 30
0.0
 10
1.493335
 20
9.072676
 30
0.0
 10
1.498792
 20
9.074629
 30
0.0
 10
1.504413
 20
9.076039
 30
0.0
 10
1.510146
 20
9.076889
 30
0.0
 10
1.515934
 20
9.077165
 30
0.0
 10
1.521723
 20
9.076889
 30
0.0
 10
1.527455
 20
9.076039
 30
0.0
 10
1.533077
 20
9.074629
 30
0.0
 10
1.538534
 20
9.072676
 30
0.0
 10
1.543773
 20
9.070200
 30
0.0
 10
1.548744
 20
9.067220
 30
0.0
 10
1.553399
 20
9.063767
 30
0.0
 10
1.557693
 20
9.059873
 30
0.0
 10
1.561585
 20
9.055579
 30
0.0
 10
1.565037
 20
9.050924
 30
0.0
 10
1.568017
 20
9.045954
 30
0.0
 10
1.570495
 20
9.040715
 30
0.0
 10
1.572447
 20
9.035258
 30
0.0
 10
1.573855
 20
9.029636
 30
0.0
 10
1.574706
 20
9.023904
 30
0.0
  0
LWPOLYLINE
  5
130
100
AcDbEntity
  8
Your_Design
 62
5
100
AcDbPolyline
 90
64
 70
1
 10
4.113998
 20
8.572608
 30
0.0
 10
4.113722
 20
8.566820
 30
0.0
 10
4.112872
 20
8.561087
 30
0.0
 10
4.111462
 20
8.555465
 30
0.0
 10
4.109510
 20
8.550009
 30
0.0
 10
4.107033
 20
8.544770
 30
0.0
 10
4.104053
 20
8.539799
 30
0.0
 10
4.100600
 20
8.535144
 30
0.0
 10
4.096706
 20
8.530850
 30
0.0
 10
4.092412
 20
8.526960
 30
0.0
 10
4.087758
 20
8.523508
 30
0.0
 10
4.082787
 20
8.520527
 30
0.0
 10
4.077548
 20
8.518051
 30
0.0
 10
4.072091
 20
8.516098
 30
0.0
 10
4.066469
 20
8.514689
 30
0.0
 10
4.060737
 20
8.513838
 30
0.0
 10
4.054948
 20
8.513563
 30
0.0
 10
4.049160
 20
8.513838
 30
0.0
 10
4.043427
 20
8.514689
 30
0.0
 10
4.037806
 20
8.516098
 30
0.0
 10
4.032349
 20
8.518051
 30
0.0
 10
4.027110
 20
8.520527
 30
0.0
 10
4.022139
 20
8.523508
 30
0.0
 10
4.017484
 20
8.526960
 30
0.0
 10
4.013190
 20
8.530850
 30
0.0
 10
4.009300
 20
8.535144
 30
0.0
 10
4.005847
 20
8.539799
 30
0.0
 10
4.002867
 20
8.544770
 30
0.0
 10
4.000391
 20
8.550009
 30
0.0
 10
3.998438
 20
8.555465
 30
0.0
 10
3.997028
 20
8.561087
 30
0.0
 10
3.996178
 20
8.566820
 30
0.0
 10
3.995902
 20
8.572608
 30
0.0
 10
3.996178
 20
8.578397
 30
0.0
 10
3.997028
 20
8.584130
 30
0.0
 10
3.998438
 20
8.589751
 30
0.0
 10
4.000391
 20
8.595208
 30
0.0
 10
4.002867
 20
8.600447
 30
0.0
 10
4.005847
 20
8.605418
 30
0.0
 10
4.009300
 20
8.610073
 30
0.0
 10
4.013190
 20
8.614367
 30
0.0
 10
4.017484
 20
8.618260
 30
0.0
 10
4.022139
 20
8.621713
 30
0.0
 10
4.027110
 20
8.624693
 30
0.0
 10
4.032349
 20
8.627170
 30
0.0
 10
4.037806
 20
8.629123
 30
0.0
 10
4.043427
 20
8.630532
 30
0.0
 10
4.049160
 20
8.631382
 30
0.0
 10
4.054948
 20
8.631658
 30
0.0
 10
4.060737
 20
8.631382
 30
0.0
 10
4.066469
 20
8.630532
 30
0.0
 10
4.072091
 20
8.629123
 30
0.0
 10
4.077548
 20
8.627170
 30
0.0
 10
4.082787
 20
8.624693
 30
0.0
 10
4.087758
 20
8.621713
 30
0.0
 10
4.092412
 20
8.618260
 30
0.0
 10
4.096706
 20
8.614367
 30
0.0
 10
4.100600
 20
8.610073
 30
0.0
 10
4.104053
 20
8.605418
 30
0.0
 10
4.107033
 20
8.600447
 30
0.0
 10
4.109510
 20
8.595208
 30
0.0
 10
4.111462
 20
8.589751
 30
0.0
 10
4.112872
 20
8.584130
 30
0.0
 10
4.113722
 20
8.578397
 30
0.0
  0
LWPOLYLINE
  5
131
100
AcDbEntity
  8
Your_Design
 62
5
100
AcDbPolyline
 90
64
 70
1
 10
6.653007
 20
8.127102
 30
0.0
 10
6.652731
 20
8.121313
 30
0.0
 10
6.651881
 20
8.115581
 30
0.0
 10
6.650471
 20
8.109959
 30
0.0
 10
6.648519
 20
8.104502
 30
0.0
 10
6.646042
 20
8.099263
 30
0.0
 10
6.643062
 20
8.094293
 30
0.0
 10
6.639609
 20
8.089638
 30
0.0
 10
6.635719
 20
8.085343
 30
0.0
 10
6.631425
 20
8.081450
 30
0.0
 10
6.626770
 20
8.077997
 30
0.0
 10
6.621799
 20
8.075017
 30
0.0
 10
6.616560
 20
8.072540
 30
0.0
 10
6.611104
 20
8.070588
 30
0.0
 10
6.605482
 20
8.069178
 30
0.0
 10
6.599749
 20
8.068328
 30
0.0
 10
6.593961
 20
8.068052
 30
0.0
 10
6.588172
 20
8.068328
 30
0.0
 10
6.582440
 20
8.069178
 30
0.0
 10
6.576818
 20
8.070588
 30
0.0
 10
6.571361
 20
8.072540
 30
0.0
 10
6.566122
 20
8.075017
 30
0.0
 10
6.561152
 20
8.077997
 30
0.0
 10
6.556497
 20
8.081450
 30
0.0
 10
6.552203
 20
8.085343
 30
0.0
 10
6.548309
 20
8.089638
 30
0.0
 10
6.544856
 20
8.094293
 30
0.0
 10
6.541876
 20
8.099263
 30
0.0
 10
6.539400
 20
8.104502
 30
0.0
 10
6.537447
 20
8.109959
 30
0.0
 10
6.536037
 20
8.115581
 30
0.0
 10
6.535187
 20
8.121313
 30
0.0
 10
6.534911
 20
8.127102
 30
0.0
 10
6.535187
 20
8.132890
 30
0.0
 10
6.536037
 20
8.138623
 30
0.0
 10
6.537447
 20
8.144245
 30
0.0
 10
6.539400
 20
8.149701
 30
0.0
 10
6.541876
 20
8.154940
 30
0.0
 10
6.544856
 20
8.159911
 30
0.0
 10
6.548309
 20
8.164566
 30
0.0
 10
6.552203
 20
8.168860
 30
0.0
 10
6.556497
 20
8.172754
 30
0.0
 10
6.561152
 20
8.176206
 30
0.0
 10
6.566122
 20
8.179187
 30
0.0
 10
6.571361
 20
8.181663
 30
0.0
 10
6.576818
 20
8.183616
 30
0.0
 10
6.582440
 20
8.185025
 30
0.0
 10
6.588172
 20
8.185876
 30
0.0
 10
6.593961
 20
8.186151
 30
0.0
 10
6.599749
 20
8.185876
 30
0.0
 10
6.605482
 20
8.185025
 30
0.0
 10
6.611104
 20
8.183616
 30
0.0
 10
6.616560
 20
8.181663
 30
0.0
 10
6.621799
 20
8.179187
 30
0.0
 10
6.626770
 20
8.176206
 30
0.0
 10
6.631425
 20
8.172754
 30
0.0
 10
6.635719
 20
8.168860
 30
0.0
 10
6.639609
 20
8.164566
 30
0.0
 10
6.643062
 20
8.159911
 30
0.0
 10
6.646042
 20
8.154940
 30
0.0
 10
6.648519
 20
8.149701
 30
0.0
 10
6.650471
 20
8.144245
 30
0.0
 10
6.651881
 20
8.138623
 30
0.0
 10
6.652731
 20
8.132890
 30
0.0
  0
LWPOLYLINE
  5
132
100
AcDbEntity
  8
Your_Design
 62
5
100
AcDbPolyline
 90
65
 70
1
 10
7.228284
 20
10.274066
 30
0.0
 10
7.228284
 20
10.274066
 30
0.0
 10
7.228008
 20
10.268278
 30
0.0
 10
7.227158
 20
10.262545
 30
0.0
 10
7.225748
 20
10.256923
 30
0.0
 10
7.223796
 20
10.251467
 30
0.0
 10
7.221319
 20
10.246228
 30
0.0
 10
7.218339
 20
10.241257
 30
0.0
 10
7.214886
 20
10.236602
 30
0.0
 10
7.210993
 20
10.232308
 30
0.0
 10
7.206698
 20
10.228414
 30
0.0
 10
7.202044
 20
10.224961
 30
0.0
 10
7.197073
 20
10.221981
 30
0.0
 10
7.191834
 20
10.219505
 30
0.0
 10
7.186377
 20
10.217552
 30
0.0
 10
7.180756
 20
10.216143
 30
0.0
 10
7.175023
 20
10.215292
 30
0.0
 10
7.169234
 20
10.215017
 30
0.0
 10
7.163446
 20
10.215292
 30
0.0
 10
7.157713
 20
10.216143
 30
0.0
 10
7.152091
 20
10.217552
 30
0.0
 10
7.146635
 20
10.219505
 30
0.0
 10
7.141396
 20
10.221981
 30
0.0
 10
7.136425
 20
10.224961
 30
0.0
 10
7.131770
 20
10.228414
 30
0.0
 10
7.127476
 20
10.232308
 30
0.0
 10
7.123586
 20
10.236602
 30
0.0
 10
7.120133
 20
10.241257
 30
0.0
 10
7.117153
 20
10.246228
 30
0.0
 10
7.114677
 20
10.251467
 30
0.0
 10
7.112724
 20
10.256923
 30
0.0
 10
7.111315
 20
10.262545
 30
0.0
 10
7.110464
 20
10.268278
 30
0.0
 10
7.110189
 20
10.274066
 30
0.0
 10
7.110464
 20
10.279855
 30
0.0
 10
7.111315
 20
10.285587
 30
0.0
 10
7.112724
 20
10.291209
 30
0.0
 10
7.114677
 20
10.296666
 30
0.0
 10
7.117153
 20
10.301905
 30
0.0
 10
7.120133
 20
10.306876
 30
0.0
 10
7.123586
 20
10.311530
 30
0.0
 10
7.127476
 20
10.315824
 30
0.0
 10
7.131770
 20
10.319718
 30
0.0
 10
7.136425
 20
10.323171
 30
0.0
 10
7.141396
 20
10.326151
 30
0.0
 10
7.146635
 20
10.328628
 30
0.0
 10
7.152091
 20
10.330580
 30
0.0
 10
7.157713
 20
10.331990
 30
0.0
 10
7.163446
 20
10.332840
 30
0.0
 10
7.169234
 20
10.333116
 30
0.0
 10
7.175023
 20
10.332840
 30
0.0
 10
7.180756
 20
10.331990
 30
0.0
 10
7.186377
 20
10.330580
 30
0.0
 10
7.191834
 20
10.328628
 30
0.0
 10
7.197073
 20
10.326151
 30
0.0
 10
7.202044
 20
10.323171
 30
0.0
 10
7.206698
 20
10.319718
 30
0.0
 10
7.210993
 20
10.315824
 30
0.0
 10
7.214886
 20
10.311530
 30
0.0
 10
7.218339
 20
10.306876
 30
0.0
 10
7.221319
 20
10.301905
 30
0.0
 10
7.223796
 20
10.296666
 30
0.0
 10
7.225748
 20
10.291209
 30
0.0
 10
7.227158
 20
10.285587
 30
0.0
 10
7.228008
 20
10.279855
 30
0.0
  0
LWPOLYLINE
  5
133
100
AcDbEntity
  8
Your_Design
 62
5
100
AcDbPolyline
 90
65
 70
1
 10
6.811516
 20
12.765709
 30
0.0
 10
6.811516
 20
12.765709
 30
0.0
 10
6.811241
 20
12.759920
 30
0.0
 10
6.810390
 20
12.754188
 30
0.0
 10
6.808981
 20
12.748566
 30
0.0
 10
6.807028
 20
12.743109
 30
0.0
 10
6.804552
 20
12.737870
 30
0.0
 10
6.801571
 20
12.732900
 30
0.0
 10
6.798119
 20
12.728245
 30
0.0
 10
6.794229
 20
12.723951
 30
0.0
 10
6.789935
 20
12.720058
 30
0.0
 10
6.785280
 20
12.716606
 30
0.0
 10
6.780309
 20
12.713627
 30
0.0
 10
6.775070
 20
12.711149
 30
0.0
 10
6.769613
 20
12.709196
 30
0.0
 10
6.763991
 20
12.707788
 30
0.0
 10
6.758259
 20
12.706938
 30
0.0
 10
6.752471
 20
12.706654
 30
0.0
 10
6.746682
 20
12.706938
 30
0.0
 10
6.740949
 20
12.707788
 30
0.0
 10
6.735328
 20
12.709196
 30
0.0
 10
6.729871
 20
12.711149
 30
0.0
 10
6.724632
 20
12.713627
 30
0.0
 10
6.719661
 20
12.716606
 30
0.0
 10
6.715006
 20
12.720058
 30
0.0
 10
6.710712
 20
12.723951
 30
0.0
 10
6.706819
 20
12.728245
 30
0.0
 10
6.703366
 20
12.732900
 30
0.0
 10
6.700385
 20
12.737870
 30
0.0
 10
6.697909
 20
12.743109
 30
0.0
 10
6.695956
 20
12.748566
 30
0.0
 10
6.694547
 20
12.754188
 30
0.0
 10
6.693696
 20
12.759920
 30
0.0
 10
6.693421
 20
12.765709
 30
0.0
 10
6.693696
 20
12.771497
 30
0.0
 10
6.694547
 20
12.777230
 30
0.0
 10
6.695956
 20
12.782852
 30
0.0
 10
6.697909
 20
12.788308
 30
0.0
 10
6.700385
 20
12.793547
 30
0.0
 10
6.703366
 20
12.798518
 30
0.0
 10
6.706819
 20
12.803173
 30
0.0
 10
6.710712
 20
12.807467
 30
0.0
 10
6.715006
 20
12.811359
 30
0.0
 10
6.719661
 20
12.814812
 30
0.0
 10
6.724632
 20
12.817791
 30
0.0
 10
6.729871
 20
12.820269
 30
0.0
 10
6.735328
 20
12.822221
 30
0.0
 10
6.740949
 20
12.823630
 30
0.0
 10
6.746682
 20
12.824480
 30
0.0
 10
6.752471
 20
12.824764
 30
0.0
 10
6.758259
 20
12.824480
 30
0.0
 10
6.763991
 20
12.823630
 30
0.0
 10
6.769613
 20
12.822221
 30
0.0
 10
6.775070
 20
12.820269
 30
0.0
 10
6.780309
 20
12.817791
 30
0.0
 10
6.785280
 20
12.814812
 30
0.0
 10
6.789935
 20
12.811359
 30
0.0
 10
6.794229
 20
12.807467
 30
0.0
 10
6.798119
 20
12.803173
 30
0.0
 10
6.801571
 20
12.798518
 30
0.0
 10
6.804552
 20
12.793547
 30
0.0
 10
6.807028
 20
12.788308
 30
0.0
 10
6.808981
 20
12.782852
 30
0.0
 10
6.810390
 20
12.777230
 30
0.0
 10
6.811241
 20
12.771497
 30
0.0
  0
LWPOLYLINE
  5
134
100
AcDbEntity
  8
Your_Design
 62
5
100
AcDbPolyline
 90
65
 70
1
 10
6.394748
 20
15.257351
 30
0.0
 10
6.394748
 20
15.257351
 30
0.0
 10
6.394472
 20
15.251563
 30
0.0
 10
6.393622
 20
15.245830
 30
0.0
 10
6.392213
 20
15.240209
 30
0.0
 10
6.390260
 20
15.234752
 30
0.0
 10
6.387784
 20
15.229513
 30
0.0
 10
6.384803
 20
15.224542
 30
0.0
 10
6.381350
 20
15.219887
 30
0.0
 10
6.377457
 20
15.215593
 30
0.0
 10
6.373163
 20
15.211701
 30
0.0
 10
6.368508
 20
15.208249
 30
0.0
 10
6.363537
 20
15.205269
 30
0.0
 10
6.358298
 20
15.202792
 30
0.0
 10
6.352841
 20
15.200839
 30
0.0
 10
6.347220
 20
15.199431
 30
0.0
 10
6.341487
 20
15.198581
 30
0.0
 10
6.335693
 20
15.198296
 30
0.0
 10
6.329905
 20
15.198581
 30
0.0
 10
6.324172
 20
15.199431
 30
0.0
 10
6.318550
 20
15.200839
 30
0.0
 10
6.313094
 20
15.202792
 30
0.0
 10
6.307855
 20
15.205269
 30
0.0
 10
6.302884
 20
15.208249
 30
0.0
 10
6.298229
 20
15.211701
 30
0.0
 10
6.293935
 20
15.215593
 30
0.0
 10
6.290045
 20
15.219887
 30
0.0
 10
6.286592
 20
15.224542
 30
0.0
 10
6.283612
 20
15.229513
 30
0.0
 10
6.281135
 20
15.234752
 30
0.0
 10
6.279183
 20
15.240209
 30
0.0
 10
6.277773
 20
15.245830
 30
0.0
 10
6.276923
 20
15.251563
 30
0.0
 10
6.276638
 20
15.257351
 30
0.0
 10
6.276913
 20
15.263140
 30
0.0
 10
6.277764
 20
15.268873
 30
0.0
 10
6.279173
 20
15.274494
 30
0.0
 10
6.281126
 20
15.279951
 30
0.0
 10
6.283602
 20
15.285190
 30
0.0
 10
6.286583
 20
15.290161
 30
0.0
 10
6.290035
 20
15.294816
 30
0.0
 10
6.293925
 20
15.299110
 30
0.0
 10
6.298219
 20
15.303002
 30
0.0
 10
6.302874
 20
15.306454
 30
0.0
 10
6.307845
 20
15.309433
 30
0.0
 10
6.313084
 20
15.311911
 30
0.0
 10
6.318541
 20
15.313864
 30
0.0
 10
6.324163
 20
15.315272
 30
0.0
 10
6.329895
 20
15.316122
 30
0.0
 10
6.335693
 20
15.316407
 30
0.0
 10
6.341482
 20
15.316122
 30
0.0
 10
6.347214
 20
15.315272
 30
0.0
 10
6.352836
 20
15.313864
 30
0.0
 10
6.358293
 20
15.311911
 30
0.0
 10
6.363532
 20
15.309434
 30
0.0
 10
6.368502
 20
15.306454
 30
0.0
 10
6.373157
 20
15.303002
 30
0.0
 10
6.377451
 20
15.299110
 30
0.0
 10
6.381345
 20
15.294816
 30
0.0
 10
6.384798
 20
15.290161
 30
0.0
 10
6.387778
 20
15.285190
 30
0.0
 10
6.390254
 20
15.279951
 30
0.0
 10
6.392207
 20
15.274494
 30
0.0
 10
6.393617
 20
15.268873
 30
0.0
 10
6.394467
 20
15.263140
 30
0.0
  0
LWPOLYLINE
  5
135
100
AcDbEntity
  8
Your_Design
 62
5
100
AcDbPolyline
 90
76
 70
1
 10
9.289679
 20
15.302831
 30
0.0
 10
9.291013
 20
15.302822
 30
0.0
 10
12.206855
 20
15.263312
 30
0.0
 10
12.216465
 20
15.262711
 30
0.0
 10
12.225971
 20
15.261173
 30
0.0
 10
14.767315
 20
14.721387
 30
0.0
 10
14.776615
 20
14.718931
 30
0.0
 10
14.785632
 20
14.715579
 30
0.0
 10
14.794278
 20
14.711362
 30
0.0
 10
14.802471
 20
14.706322
 30
0.0
 10
14.810133
 20
14.700507
 30
0.0
 10
14.817191
 20
14.693971
 30
0.0
 10
14.823577
 20
14.686777
 30
0.0
 10
14.829230
 20
14.678994
 30
0.0
 10
14.834097
 20
14.670697
 30
0.0
 10
14.838130
 20
14.661964
 30
0.0
 10
14.841292
 20
14.652879
 30
0.0
 10
14.843552
 20
14.643529
 30
0.0
 10
15.147135
 20
13.050004
 30
0.0
 10
15.148551
 20
13.039546
 30
0.0
 10
15.148840
 20
13.028997
 30
0.0
 10
15.129083
 20
12.277871
 30
0.0
 10
15.128879
 20
12.273616
 30
0.0
 10
15.005180
 20
10.498652
 30
0.0
 10
15.004076
 20
10.489293
 30
0.0
 10
15.002081
 20
10.480082
 30
0.0
 10
14.999215
 20
10.471105
 30
0.0
 10
14.995503
 20
10.462442
 30
0.0
 10
14.990980
 20
10.454175
 30
0.0
 10
14.985687
 20
10.446378
 30
0.0
 10
13.828545
 20
8.906052
 30
0.0
 10
13.822642
 20
8.898920
 30
0.0
 10
13.816095
 20
8.892373
 30
0.0
 10
13.808961
 20
8.886471
 30
0.0
 10
13.801305
 20
8.881265
 30
0.0
 10
13.793194
 20
8.876802
 30
0.0
 10
13.784699
 20
8.873120
 30
0.0
 10
13.775895
 20
8.870254
 30
0.0
 10
13.766861
 20
8.868227
 30
0.0
 10
8.688844
 20
7.977213
 30
0.0
 10
8.679194
 20
7.976009
 30
0.0
 10
8.669472
 20
7.975772
 30
0.0
 10
8.659773
 20
7.976485
 30
0.0
 10
8.650192
 20
7.978150
 30
0.0
 10
8.640822
 20
7.980753
 30
0.0
 10
8.631755
 20
7.984269
 30
0.0
 10
8.623079
 20
7.988662
 30
0.0
 10
8.614880
 20
7.993891
 30
0.0
 10
8.607236
 20
7.999904
 30
0.0
 10
8.600223
 20
8.006641
 30
0.0
 10
8.593909
 20
8.014037
 30
0.0
 10
8.588355
 20
8.022021
 30
0.0
 10
8.583617
 20
8.030513
 30
0.0
 10
8.579739
 20
8.039432
 30
0.0
 10
8.576763
 20
8.048690
 30
0.0
 10
8.300607
 20
9.079318
 30
0.0
 10
8.001485
 20
10.195654
 30
0.0
 10
7.999312
 20
10.205942
 30
0.0
 10
7.998245
 20
10.216403
 30
0.0
 10
7.998285
 20
10.226918
 30
0.0
 10
7.999462
 20
10.237367
 30
0.0
 10
8.832998
 20
15.220652
 30
0.0
 10
8.835112
 20
15.230296
 30
0.0
 10
8.838183
 20
15.239681
 30
0.0
 10
8.842178
 20
15.248710
 30
0.0
 10
8.847059
 20
15.257293
 30
0.0
 10
8.852775
 20
15.265345
 30
0.0
 10
8.859288
 20
15.272775
 30
0.0
 10
8.866494
 20
15.279525
 30
0.0
 10
8.874340
 20
15.285519
 30
0.0
 10
8.882748
 20
15.290697
 30
0.0
 10
8.891632
 20
15.295006
 30
0.0
 10
8.900903
 20
15.298404
 30
0.0
 10
8.910468
 20
15.300855
 30
0.0
 10
8.920230
 20
15.302336
 30
0.0
 10
8.930092
 20
15.302831
 30
0.0
  0
LWPOLYLINE
  5
136
100
AcDbEntity
  8
Your_Design
 62
5
100
AcDbPolyline
 90
4
 70
1
 10
8.487828
 20
9.981592
 30
0.0
 10
8.630484
 20
9.449192
 30
0.0
 10
9.162884
 20
9.591848
 30
0.0
 10
9.020228
 20
10.124248
 30
0.0
  0
LWPOLYLINE
  5
137
100
AcDbEntity
  8
Your_Design
 62
5
100
AcDbPolyline
 90
4
 70
1
 10
8.730471
 20
9.076036
 30
0.0
 10
8.873127
 20
8.543636
 30
0.0
 10
9.405527
 20
8.686292
 30
0.0
 10
9.262871
 20
9.218693
 30
0.0
  0
LWPOLYLINE
  5
138
100
AcDbEntity
  8
Your_Design
 62
5
100
AcDbPolyline
 90
4
 70
1
 10
9.188008
 20
10.266261
 30
0.0
 10
9.330664
 20
9.733861
 30
0.0
 10
9.863064
 20
9.876518
 30
0.0
 10
9.720408
 20
10.408918
 30
0.0
  0
LWPOLYLINE
  5
139
100
AcDbEntity
  8
Your_Design
 62
5
100
AcDbPolyline
 90
4
 70
1
 10
9.406386
 20
9.451261
 30
0.0
 10
9.549043
 20
8.918861
 30
0.0
 10
10.081443
 20
9.061518
 30
0.0
 10
9.938787
 20
9.593918
 30
0.0
  0
LWPOLYLINE
  5
13a
100
AcDbEntity
  8
Your_Design
 62
5
100
AcDbPolyline
 90
4
 70
1
 10
9.714102
 20
14.354706
 30
0.0
 10
9.745350
 20
13.804412
 30
0.0
 10
10.295645
 20
13.835660
 30
0.0
 10
10.264397
 20
14.385954
 30
0.0
  0
LWPOLYLINE
  5
13b
100
AcDbEntity
  8
Your_Design
 62
5
100
AcDbPolyline
 90
4
 70
1
 10
9.756622
 20
13.605912
 30
0.0
 10
9.787870
 20
13.055618
 30
0.0
 10
10.338164
 20
13.086866
 30
0.0
 10
10.306916
 20
13.637160
 30
0.0
  0
LWPOLYLINE
  5
13c
100
AcDbEntity
  8
Your_Design
 62
5
100
AcDbPolyline
 90
4
 70
1
 10
9.799141
 20
12.857119
 30
0.0
 10
9.830389
 20
12.306824
 30
0.0
 10
10.380684
 20
12.338072
 30
0.0
 10
10.349436
 20
12.888367
 30
0.0
  0
LWPOLYLINE
  5
13d
100
AcDbEntity
  8
Your_Design
 62
5
100
AcDbPolyline
 90
4
 70
1
 10
9.841661
 20
12.108325
 30
0.0
 10
9.872909
 20
11.558030
 30
0.0
 10
10.423203
 20
11.589278
 30
0.0
 10
10.391955
 20
12.139573
 30
0.0
  0
LWPOLYLINE
  5
13e
100
AcDbEntity
  8
Your_Design
 62
5
100
AcDbPolyline
 90
4
 70
1
 10
9.884181
 20
11.359531
 30
0.0
 10
9.915429
 20
10.809237
 30
0.0
 10
10.465723
 20
10.840485
 30
0.0
 10
10.434475
 20
11.390779
 30
0.0
  0
LWPOLYLINE
  5
13f
100
AcDbEntity
  8
Your_Design
 62
5
100
AcDbPolyline
 90
4
 70
1
 10
9.912453
 20
10.460376
 30
0.0
 10
10.055109
 20
9.927976
 30
0.0
 10
10.587509
 20
10.070632
 30
0.0
 10
10.444853
 20
10.603032
 30
0.0
  0
LWPOLYLINE
  5
140
100
AcDbEntity
  8
Your_Design
 62
5
100
AcDbPolyline
 90
4
 70
1
 10
10.130831
 20
9.645376
 30
0.0
 10
10.273487
 20
9.112976
 30
0.0
 10
10.805887
 20
9.255632
 30
0.0
 10
10.663231
 20
9.788032
 30
0.0
  0
LWPOLYLINE
  5
141
100
AcDbEntity
  8
Your_Design
 62
5
100
AcDbPolyline
 90
4
 70
1
 10
10.462896
 20
14.397226
 30
0.0
 10
10.494144
 20
13.846931
 30
0.0
 10
11.044438
 20
13.878179
 30
0.0
 10
11.013190
 20
14.428474
 30
0.0
  0
LWPOLYLINE
  5
142
100
AcDbEntity
  8
Your_Design
 62
5
100
AcDbPolyline
 90
4
 70
1
 10
10.505415
 20
13.648432
 30
0.0
 10
10.536663
 20
13.098137
 30
0.0
 10
11.086958
 20
13.129385
 30
0.0
 10
11.055710
 20
13.679680
 30
0.0
  0
LWPOLYLINE
  5
143
100
AcDbEntity
  8
Your_Design
 62
5
100
AcDbPolyline
 90
4
 70
1
 10
10.547935
 20
12.899638
 30
0.0
 10
10.579183
 20
12.349344
 30
0.0
 10
11.129477
 20
12.380592
 30
0.0
 10
11.098230
 20
12.930886
 30
0.0
  0
LWPOLYLINE
  5
144
100
AcDbEntity
  8
Your_Design
 62
5
100
AcDbPolyline
 90
4
 70
1
 10
10.590455
 20
12.150845
 30
0.0
 10
10.621703
 20
11.600550
 30
0.0
 10
11.171997
 20
11.631798
 30
0.0
 10
11.140749
 20
12.182093
 30
0.0
  0
LWPOLYLINE
  5
145
100
AcDbEntity
  8
Your_Design
 62
5
100
AcDbPolyline
 90
4
 70
1
 10
10.632974
 20
11.402051
 30
0.0
 10
10.664222
 20
10.851756
 30
0.0
 10
11.214517
 20
10.883004
 30
0.0
 10
11.183269
 20
11.433299
 30
0.0
  0
LWPOLYLINE
  5
146
100
AcDbEntity
  8
Your_Design
 62
5
100
AcDbPolyline
 90
4
 70
1
 10
11.425823
 20
14.099091
 30
0.0
 10
11.425823
 20
13.547910
 30
0.0
 10
11.977004
 20
13.547910
 30
0.0
 10
11.977004
 20
14.099091
 30
0.0
  0
LWPOLYLINE
  5
147
100
AcDbEntity
  8
Your_Design
 62
5
100
AcDbPolyline
 90
4
 70
1
 10
11.425823
 20
9.824091
 30
0.0
 10
11.425823
 20
9.272910
 30
0.0
 10
11.977004
 20
9.272910
 30
0.0
 10
11.977004
 20
9.824091
 30
0.0
  0
LWPOLYLINE
  5
148
100
AcDbEntity
  8
Your_Design
 62
5
100
AcDbPolyline
 90
4
 70
1
 10
11.425823
 20
10.574091
 30
0.0
 10
11.425823
 20
10.022910
 30
0.0
 10
11.977004
 20
10.022910
 30
0.0
 10
11.977004
 20
10.574091
 30
0.0
  0
LWPOLYLINE
  5
149
100
AcDbEntity
  8
Your_Design
 62
5
100
AcDbPolyline
 90
4
 70
1
 10
11.425823
 20
11.849091
 30
0.0
 10
11.425823
 20
11.297910
 30
0.0
 10
11.977004
 20
11.297910
 30
0.0
 10
11.977004
 20
11.849091
 30
0.0
  0
LWPOLYLINE
  5
14a
100
AcDbEntity
  8
Your_Design
 62
5
100
AcDbPolyline
 90
4
 70
1
 10
11.425823
 20
12.599091
 30
0.0
 10
11.425823
 20
12.047910
 30
0.0
 10
11.977004
 20
12.047910
 30
0.0
 10
11.977004
 20
12.599091
 30
0.0
  0
LWPOLYLINE
  5
14b
100
AcDbEntity
  8
Your_Design
 62
5
100
AcDbPolyline
 90
4
 70
1
 10
11.425823
 20
14.849091
 30
0.0
 10
11.425823
 20
14.297910
 30
0.0
 10
11.977004
 20
14.297910
 30
0.0
 10
11.977004
 20
14.849091
 30
0.0
  0
LWPOLYLINE
  5
14c
100
AcDbEntity
  8
Your_Design
 62
5
100
AcDbPolyline
 90
4
 70
1
 10
11.425823
 20
13.349091
 30
0.0
 10
11.425823
 20
12.797910
 30
0.0
 10
11.977004
 20
12.797910
 30
0.0
 10
11.977004
 20
13.349091
 30
0.0
  0
LWPOLYLINE
  5
14d
100
AcDbEntity
  8
Your_Design
 62
5
100
AcDbPolyline
 90
4
 70
1
 10
12.175823
 20
12.411591
 30
0.0
 10
12.175823
 20
11.860410
 30
0.0
 10
12.727004
 20
11.860410
 30
0.0
 10
12.727004
 20
12.411591
 30
0.0
  0
LWPOLYLINE
  5
14e
100
AcDbEntity
  8
Your_Design
 62
5
100
AcDbPolyline
 90
4
 70
1
 10
12.175823
 20
13.161591
 30
0.0
 10
12.175823
 20
12.610410
 30
0.0
 10
12.727004
 20
12.610410
 30
0.0
 10
12.727004
 20
13.161591
 30
0.0
  0
LWPOLYLINE
  5
14f
100
AcDbEntity
  8
Your_Design
 62
5
100
AcDbPolyline
 90
4
 70
1
 10
12.175823
 20
14.661591
 30
0.0
 10
12.175823
 20
14.110410
 30
0.0
 10
12.727004
 20
14.110410
 30
0.0
 10
12.727004
 20
14.661591
 30
0.0
  0
LWPOLYLINE
  5
150
100
AcDbEntity
  8
Your_Design
 62
5
100
AcDbPolyline
 90
4
 70
1
 10
12.175823
 20
9.824091
 30
0.0
 10
12.175823
 20
9.272910
 30
0.0
 10
12.727004
 20
9.272910
 30
0.0
 10
12.727004
 20
9.824091
 30
0.0
  0
LWPOLYLINE
  5
151
100
AcDbEntity
  8
Your_Design
 62
5
100
AcDbPolyline
 90
4
 70
1
 10
12.175823
 20
10.574091
 30
0.0
 10
12.175823
 20
10.022910
 30
0.0
 10
12.727004
 20
10.022910
 30
0.0
 10
12.727004
 20
10.574091
 30
0.0
  0
LWPOLYLINE
  5
152
100
AcDbEntity
  8
Your_Design
 62
5
100
AcDbPolyline
 90
4
 70
1
 10
12.175823
 20
11.661591
 30
0.0
 10
12.175823
 20
11.110410
 30
0.0
 10
12.727004
 20
11.110410
 30
0.0
 10
12.727004
 20
11.661591
 30
0.0
  0
LWPOLYLINE
  5
153
100
AcDbEntity
  8
Your_Design
 62
5
100
AcDbPolyline
 90
4
 70
1
 10
12.175823
 20
13.911591
 30
0.0
 10
12.175823
 20
13.360410
 30
0.0
 10
12.727004
 20
13.360410
 30
0.0
 10
12.727004
 20
13.911591
 30
0.0
  0
LWPOLYLINE
  5
154
100
AcDbEntity
  8
Your_Design
 62
5
100
AcDbPolyline
 90
4
 70
1
 10
12.925823
 20
9.824091
 30
0.0
 10
12.925823
 20
9.272910
 30
0.0
 10
13.477004
 20
9.272910
 30
0.0
 10
13.477004
 20
9.824091
 30
0.0
  0
LWPOLYLINE
  5
155
100
AcDbEntity
  8
Your_Design
 62
5
100
AcDbPolyline
 90
4
 70
1
 10
12.925823
 20
10.574091
 30
0.0
 10
12.925823
 20
10.022910
 30
0.0
 10
13.477004
 20
10.022910
 30
0.0
 10
13.477004
 20
10.574091
 30
0.0
  0
LWPOLYLINE
  5
156
100
AcDbEntity
  8
Your_Design
 62
5
100
AcDbPolyline
 90
4
 70
1
 10
12.963753
 20
11.416179
 30
0.0
 10
12.932505
 20
10.865884
 30
0.0
 10
13.482799
 20
10.834636
 30
0.0
 10
13.514047
 20
11.384931
 30
0.0
  0
LWPOLYLINE
  5
157
100
AcDbEntity
  8
Your_Design
 62
5
100
AcDbPolyline
 90
4
 70
1
 10
13.006272
 20
12.164972
 30
0.0
 10
12.975024
 20
11.614678
 30
0.0
 10
13.525319
 20
11.583430
 30
0.0
 10
13.556567
 20
12.133724
 30
0.0
  0
LWPOLYLINE
  5
158
100
AcDbEntity
  8
Your_Design
 62
5
100
AcDbPolyline
 90
4
 70
1
 10
13.048792
 20
12.913766
 30
0.0
 10
13.017544
 20
12.363472
 30
0.0
 10
13.567839
 20
12.332224
 30
0.0
 10
13.599087
 20
12.882518
 30
0.0
  0
LWPOLYLINE
  5
159
100
AcDbEntity
  8
Your_Design
 62
5
100
AcDbPolyline
 90
4
 70
1
 10
13.091312
 20
13.662560
 30
0.0
 10
13.060064
 20
13.112265
 30
0.0
 10
13.610358
 20
13.081017
 30
0.0
 10
13.641606
 20
13.631312
 30
0.0
  0
LWPOLYLINE
  5
15a
100
AcDbEntity
  8
Your_Design
 62
5
100
AcDbPolyline
 90
4
 70
1
 10
13.133831
 20
14.411354
 30
0.0
 10
13.102583
 20
13.861059
 30
0.0
 10
13.652878
 20
13.829811
 30
0.0
 10
13.684126
 20
14.380106
 30
0.0
  0
LWPOLYLINE
  5
15b
100
AcDbEntity
  8
Your_Design
 62
5
100
AcDbPolyline
 90
4
 70
1
 10
13.840105
 20
13.620040
 30
0.0
 10
13.808857
 20
13.069746
 30
0.0
 10
14.359152
 20
13.038498
 30
0.0
 10
14.390400
 20
13.588792
 30
0.0
  0
LWPOLYLINE
  5
15c
100
AcDbEntity
  8
Your_Design
 62
5
100
AcDbPolyline
 90
4
 70
1
 10
13.882625
 20
14.368834
 30
0.0
 10
13.851377
 20
13.818539
 30
0.0
 10
14.401672
 20
13.787291
 30
0.0
 10
14.432920
 20
14.337586
 30
0.0
  0
LWPOLYLINE
  5
15d
100
AcDbEntity
  8
Your_Design
 62
5
100
AcDbPolyline
 90
4
 70
1
 10
13.899745
 20
11.363029
 30
0.0
 10
13.868497
 20
10.812735
 30
0.0
 10
14.418792
 20
10.781487
 30
0.0
 10
14.450040
 20
11.331781
 30
0.0
  0
LWPOLYLINE
  5
15e
100
AcDbEntity
  8
Your_Design
 62
5
100
AcDbPolyline
 90
4
 70
1
 10
13.942265
 20
12.111823
 30
0.0
 10
13.911017
 20
11.561528
 30
0.0
 10
14.461311
 20
11.530280
 30
0.0
 10
14.492559
 20
12.080575
 30
0.0
  0
LWPOLYLINE
  5
15f
100
AcDbEntity
  8
Your_Design
 62
5
100
AcDbPolyline
 90
4
 70
1
 10
13.984784
 20
12.860617
 30
0.0
 10
13.953536
 20
12.310322
 30
0.0
 10
14.503831
 20
12.279074
 30
0.0
 10
14.535079
 20
12.829369
 30
0.0
  0
LWPOLYLINE
  5
160
100
AcDbEntity
  8
Your_Design
 62
5
100
AcDbPolyline
 90
65
 70
1
 10
12.146465
 20
15.164896
 30
0.0
 10
12.146465
 20
15.164896
 30
0.0
 10
12.146748
 20
15.159108
 30
0.0
 10
12.147599
 20
15.153375
 30
0.0
 10
12.149007
 20
15.147753
 30
0.0
 10
12.150959
 20
15.142297
 30
0.0
 10
12.153437
 20
15.137058
 30
0.0
 10
12.156417
 20
15.132087
 30
0.0
 10
12.159869
 20
15.127432
 30
0.0
 10
12.163761
 20
15.123138
 30
0.0
 10
12.168056
 20
15.119246
 30
0.0
 10
12.172710
 20
15.115794
 30
0.0
 10
12.177681
 20
15.112814
 30
0.0
 10
12.182920
 20
15.110336
 30
0.0
 10
12.188377
 20
15.108384
 30
0.0
 10
12.193999
 20
15.106976
 30
0.0
 10
12.199731
 20
15.106125
 30
0.0
 10
12.205520
 20
15.105841
 30
0.0
 10
12.211308
 20
15.106125
 30
0.0
 10
12.217041
 20
15.106976
 30
0.0
 10
12.222662
 20
15.108384
 30
0.0
 10
12.228119
 20
15.110336
 30
0.0
 10
12.233358
 20
15.112814
 30
0.0
 10
12.238329
 20
15.115794
 30
0.0
 10
12.242984
 20
15.119246
 30
0.0
 10
12.247278
 20
15.123138
 30
0.0
 10
12.251170
 20
15.127432
 30
0.0
 10
12.254622
 20
15.132087
 30
0.0
 10
12.257602
 20
15.137058
 30
0.0
 10
12.260080
 20
15.142297
 30
0.0
 10
12.262032
 20
15.147753
 30
0.0
 10
12.263441
 20
15.153375
 30
0.0
 10
12.264291
 20
15.159108
 30
0.0
 10
12.264574
 20
15.164896
 30
0.0
 10
12.264291
 20
15.170685
 30
0.0
 10
12.263441
 20
15.176417
 30
0.0
 10
12.262032
 20
15.182039
 30
0.0
 10
12.260080
 20
15.187496
 30
0.0
 10
12.257602
 20
15.192735
 30
0.0
 10
12.254622
 20
15.197705
 30
0.0
 10
12.251170
 20
15.202360
 30
0.0
 10
12.247278
 20
15.206654
 30
0.0
 10
12.242984
 20
15.210546
 30
0.0
 10
12.238329
 20
15.213999
 30
0.0
 10
12.233358
 20
15.216978
 30
0.0
 10
12.228119
 20
15.219456
 30
0.0
 10
12.222662
 20
15.221408
 30
0.0
 10
12.217041
 20
15.222816
 30
0.0
 10
12.211308
 20
15.223667
 30
0.0
 10
12.205520
 20
15.223951
 30
0.0
 10
12.199731
 20
15.223667
 30
0.0
 10
12.193999
 20
15.222816
 30
0.0
 10
12.188377
 20
15.221408
 30
0.0
 10
12.182920
 20
15.219456
 30
0.0
 10
12.177681
 20
15.216978
 30
0.0
 10
12.172710
 20
15.213999
 30
0.0
 10
12.168056
 20
15.210546
 30
0.0
 10
12.163761
 20
15.206654
 30
0.0
 10
12.159869
 20
15.202360
 30
0.0
 10
12.156417
 20
15.197705
 30
0.0
 10
12.153437
 20
15.192735
 30
0.0
 10
12.150959
 20
15.187496
 30
0.0
 10
12.149007
 20
15.182039
 30
0.0
 10
12.147599
 20
15.176417
 30
0.0
 10
12.146748
 20
15.170685
 30
0.0
  0
LWPOLYLINE
  5
161
100
AcDbEntity
  8
Your_Design
 62
5
100
AcDbPolyline
 90
65
 70
1
 10
14.687809
 20
14.625109
 30
0.0
 10
14.687809
 20
14.625109
 30
0.0
 10
14.688092
 20
14.619321
 30
0.0
 10
14.688943
 20
14.613588
 30
0.0
 10
14.690351
 20
14.607966
 30
0.0
 10
14.692304
 20
14.602510
 30
0.0
 10
14.694781
 20
14.597271
 30
0.0
 10
14.697761
 20
14.592300
 30
0.0
 10
14.701213
 20
14.587645
 30
0.0
 10
14.705105
 20
14.583351
 30
0.0
 10
14.709400
 20
14.579459
 30
0.0
 10
14.714055
 20
14.576006
 30
0.0
 10
14.719025
 20
14.573027
 30
0.0
 10
14.724264
 20
14.570549
 30
0.0
 10
14.729721
 20
14.568597
 30
0.0
 10
14.735343
 20
14.567188
 30
0.0
 10
14.741075
 20
14.566338
 30
0.0
 10
14.746864
 20
14.566054
 30
0.0
 10
14.752652
 20
14.566338
 30
0.0
 10
14.758385
 20
14.567188
 30
0.0
 10
14.764007
 20
14.568597
 30
0.0
 10
14.769463
 20
14.570549
 30
0.0
 10
14.774702
 20
14.573027
 30
0.0
 10
14.779673
 20
14.576006
 30
0.0
 10
14.784328
 20
14.579459
 30
0.0
 10
14.788622
 20
14.583351
 30
0.0
 10
14.792514
 20
14.587645
 30
0.0
 10
14.795967
 20
14.592300
 30
0.0
 10
14.798946
 20
14.597271
 30
0.0
 10
14.801424
 20
14.602510
 30
0.0
 10
14.803376
 20
14.607966
 30
0.0
 10
14.804785
 20
14.613588
 30
0.0
 10
14.805635
 20
14.619321
 30
0.0
 10
14.805918
 20
14.625109
 30
0.0
 10
14.805635
 20
14.630898
 30
0.0
 10
14.804785
 20
14.636630
 30
0.0
 10
14.803376
 20
14.642252
 30
0.0
 10
14.801424
 20
14.647709
 30
0.0
 10
14.798946
 20
14.652948
 30
0.0
 10
14.795967
 20
14.657918
 30
0.0
 10
14.792514
 20
14.662573
 30
0.0
 10
14.788622
 20
14.666867
 30
0.0
 10
14.784328
 20
14.670760
 30
0.0
 10
14.779673
 20
14.674212
 30
0.0
 10
14.774702
 20
14.677191
 30
0.0
 10
14.769463
 20
14.679669
 30
0.0
 10
14.764007
 20
14.681622
 30
0.0
 10
14.758385
 20
14.683030
 30
0.0
 10
14.752652
 20
14.683880
 30
0.0
 10
14.746864
 20
14.684164
 30
0.0
 10
14.741075
 20
14.683880
 30
0.0
 10
14.735343
 20
14.683030
 30
0.0
 10
14.729721
 20
14.681622
 30
0.0
 10
14.724264
 20
14.679669
 30
0.0
 10
14.719025
 20
14.677191
 30
0.0
 10
14.714055
 20
14.674212
 30
0.0
 10
14.709400
 20
14.670760
 30
0.0
 10
14.705105
 20
14.666867
 30
0.0
 10
14.701213
 20
14.662573
 30
0.0
 10
14.697761
 20
14.657918
 30
0.0
 10
14.694781
 20
14.652948
 30
0.0
 10
14.692304
 20
14.647709
 30
0.0
 10
14.690351
 20
14.642252
 30
0.0
 10
14.688943
 20
14.636630
 30
0.0
 10
14.688092
 20
14.630898
 30
0.0
  0
LWPOLYLINE
  5
162
100
AcDbEntity
  8
Your_Design
 62
5
100
AcDbPolyline
 90
65
 70
1
 10
14.991394
 20
13.031585
 30
0.0
 10
14.991394
 20
13.031585
 30
0.0
 10
14.991678
 20
13.025796
 30
0.0
 10
14.992528
 20
13.020064
 30
0.0
 10
14.993936
 20
13.014442
 30
0.0
 10
14.995889
 20
13.008985
 30
0.0
 10
14.998367
 20
13.003746
 30
0.0
 10
15.001346
 20
12.998775
 30
0.0
 10
15.004798
 20
12.994120
 30
0.0
 10
15.008690
 20
12.989826
 30
0.0
 10
15.012984
 20
12.985934
 30
0.0
 10
15.017639
 20
12.982482
 30
0.0
 10
15.022610
 20
12.979502
 30
0.0
 10
15.027849
 20
12.977024
 30
0.0
 10
15.033306
 20
12.975072
 30
0.0
 10
15.038928
 20
12.973664
 30
0.0
 10
15.044660
 20
12.972813
 30
0.0
 10
15.050449
 20
12.972530
 30
0.0
 10
15.056237
 20
12.972813
 30
0.0
 10
15.061970
 20
12.973664
 30
0.0
 10
15.067591
 20
12.975072
 30
0.0
 10
15.073048
 20
12.977024
 30
0.0
 10
15.078287
 20
12.979502
 30
0.0
 10
15.083258
 20
12.982482
 30
0.0
 10
15.087913
 20
12.985934
 30
0.0
 10
15.092207
 20
12.989826
 30
0.0
 10
15.096099
 20
12.994120
 30
0.0
 10
15.099551
 20
12.998775
 30
0.0
 10
15.102531
 20
13.003746
 30
0.0
 10
15.105008
 20
13.008985
 30
0.0
 10
15.106961
 20
13.014442
 30
0.0
 10
15.108369
 20
13.020064
 30
0.0
 10
15.109219
 20
13.025796
 30
0.0
 10
15.109504
 20
13.031585
 30
0.0
 10
15.109219
 20
13.037373
 30
0.0
 10
15.108369
 20
13.043106
 30
0.0
 10
15.106961
 20
13.048727
 30
0.0
 10
15.105008
 20
13.054184
 30
0.0
 10
15.102531
 20
13.059423
 30
0.0
 10
15.099551
 20
13.064394
 30
0.0
 10
15.096099
 20
13.069049
 30
0.0
 10
15.092207
 20
13.073343
 30
0.0
 10
15.087913
 20
13.077235
 30
0.0
 10
15.083258
 20
13.080687
 30
0.0
 10
15.078287
 20
13.083667
 30
0.0
 10
15.073048
 20
13.086145
 30
0.0
 10
15.067591
 20
13.088097
 30
0.0
 10
15.061970
 20
13.089505
 30
0.0
 10
15.056237
 20
13.090356
 30
0.0
 10
15.050449
 20
13.090639
 30
0.0
 10
15.044660
 20
13.090356
 30
0.0
 10
15.038928
 20
13.089505
 30
0.0
 10
15.033306
 20
13.088097
 30
0.0
 10
15.027849
 20
13.086145
 30
0.0
 10
15.022610
 20
13.083667
 30
0.0
 10
15.017639
 20
13.080687
 30
0.0
 10
15.012984
 20
13.077235
 30
0.0
 10
15.008690
 20
13.073343
 30
0.0
 10
15.004798
 20
13.069049
 30
0.0
 10
15.001346
 20
13.064394
 30
0.0
 10
14.998367
 20
13.059423
 30
0.0
 10
14.995889
 20
13.054184
 30
0.0
 10
14.993936
 20
13.048727
 30
0.0
 10
14.992528
 20
13.043106
 30
0.0
 10
14.991678
 20
13.037373
 30
0.0
  0
LWPOLYLINE
  5
163
100
AcDbEntity
  8
Your_Design
 62
5
100
AcDbPolyline
 90
65
 70
1
 10
14.847938
 20
10.505494
 30
0.0
 10
14.847938
 20
10.505494
 30
0.0
 10
14.848221
 20
10.499706
 30
0.0
 10
14.849072
 20
10.493974
 30
0.0
 10
14.850480
 20
10.488352
 30
0.0
 10
14.852432
 20
10.482895
 30
0.0
 10
14.854910
 20
10.477656
 30
0.0
 10
14.857890
 20
10.472685
 30
0.0
 10
14.861342
 20
10.468030
 30
0.0
 10
14.865234
 20
10.463736
 30
0.0
 10
14.869528
 20
10.459846
 30
0.0
 10
14.874183
 20
10.456394
 30
0.0
 10
14.879154
 20
10.453413
 30
0.0
 10
14.884393
 20
10.450937
 30
0.0
 10
14.889849
 20
10.448984
 30
0.0
 10
14.895471
 20
10.447575
 30
0.0
 10
14.901204
 20
10.446724
 30
0.0
 10
14.906992
 20
10.446449
 30
0.0
 10
14.912781
 20
10.446724
 30
0.0
 10
14.918513
 20
10.447575
 30
0.0
 10
14.924135
 20
10.448984
 30
0.0
 10
14.929592
 20
10.450937
 30
0.0
 10
14.934831
 20
10.453413
 30
0.0
 10
14.939801
 20
10.456394
 30
0.0
 10
14.944456
 20
10.459846
 30
0.0
 10
14.948750
 20
10.463736
 30
0.0
 10
14.952642
 20
10.468030
 30
0.0
 10
14.956095
 20
10.472685
 30
0.0
 10
14.959074
 20
10.477656
 30
0.0
 10
14.961552
 20
10.482895
 30
0.0
 10
14.963504
 20
10.488352
 30
0.0
 10
14.964912
 20
10.493974
 30
0.0
 10
14.965763
 20
10.499706
 30
0.0
 10
14.966047
 20
10.505494
 30
0.0
 10
14.965763
 20
10.511283
 30
0.0
 10
14.964912
 20
10.517016
 30
0.0
 10
14.963504
 20
10.522637
 30
0.0
 10
14.961552
 20
10.528094
 30
0.0
 10
14.959074
 20
10.533333
 30
0.0
 10
14.956095
 20
10.538304
 30
0.0
 10
14.952642
 20
10.542959
 30
0.0
 10
14.948750
 20
10.547253
 30
0.0
 10
14.944456
 20
10.551146
 30
0.0
 10
14.939801
 20
10.554599
 30
0.0
 10
14.934831
 20
10.557580
 30
0.0
 10
14.929592
 20
10.560056
 30
0.0
 10
14.924135
 20
10.562009
 30
0.0
 10
14.918513
 20
10.563418
 30
0.0
 10
14.912781
 20
10.564268
 30
0.0
 10
14.906992
 20
10.564544
 30
0.0
 10
14.901204
 20
10.564268
 30
0.0
 10
14.895471
 20
10.563418
 30
0.0
 10
14.889849
 20
10.562009
 30
0.0
 10
14.884393
 20
10.560056
 30
0.0
 10
14.879154
 20
10.557580
 30
0.0
 10
14.874183
 20
10.554599
 30
0.0
 10
14.869528
 20
10.551146
 30
0.0
 10
14.865234
 20
10.547253
 30
0.0
 10
14.861342
 20
10.542959
 30
0.0
 10
14.857890
 20
10.538304
 30
0.0
 10
14.854910
 20
10.533333
 30
0.0
 10
14.852432
 20
10.528094
 30
0.0
 10
14.850480
 20
10.522637
 30
0.0
 10
14.849072
 20
10.517016
 30
0.0
 10
14.848221
 20
10.511283
 30
0.0
  0
LWPOLYLINE
  5
164
100
AcDbEntity
  8
Your_Design
 62
5
100
AcDbPolyline
 90
64
 70
1
 10
13.690796
 20
8.965170
 30
0.0
 10
13.691079
 20
8.959382
 30
0.0
 10
13.691930
 20
8.953649
 30
0.0
 10
13.693338
 20
8.948027
 30
0.0
 10
13.695290
 20
8.942570
 30
0.0
 10
13.697768
 20
8.937332
 30
0.0
 10
13.700748
 20
8.932361
 30
0.0
 10
13.704200
 20
8.927706
 30
0.0
 10
13.708092
 20
8.923411
 30
0.0
 10
13.712386
 20
8.919522
 30
0.0
 10
13.717041
 20
8.916069
 30
0.0
 10
13.722012
 20
8.913089
 30
0.0
 10
13.727251
 20
8.910612
 30
0.0
 10
13.732708
 20
8.908659
 30
0.0
 10
13.738329
 20
8.907250
 30
0.0
 10
13.744062
 20
8.906400
 30
0.0
 10
13.749851
 20
8.906124
 30
0.0
 10
13.755639
 20
8.906400
 30
0.0
 10
13.761372
 20
8.907250
 30
0.0
 10
13.766993
 20
8.908659
 30
0.0
 10
13.772450
 20
8.910612
 30
0.0
 10
13.777689
 20
8.913089
 30
0.0
 10
13.782660
 20
8.916069
 30
0.0
 10
13.787315
 20
8.919522
 30
0.0
 10
13.791609
 20
8.923411
 30
0.0
 10
13.795501
 20
8.927706
 30
0.0
 10
13.798953
 20
8.932361
 30
0.0
 10
13.801933
 20
8.937332
 30
0.0
 10
13.804411
 20
8.942570
 30
0.0
 10
13.806363
 20
8.948027
 30
0.0
 10
13.807771
 20
8.953649
 30
0.0
 10
13.808622
 20
8.959382
 30
0.0
 10
13.808905
 20
8.965170
 30
0.0
 10
13.808622
 20
8.970958
 30
0.0
 10
13.807771
 20
8.976691
 30
0.0
 10
13.806363
 20
8.982313
 30
0.0
 10
13.804411
 20
8.987769
 30
0.0
 10
13.801933
 20
8.993008
 30
0.0
 10
13.798953
 20
8.997979
 30
0.0
 10
13.795501
 20
9.002634
 30
0.0
 10
13.791609
 20
9.006928
 30
0.0
 10
13.787315
 20
9.010822
 30
0.0
 10
13.782660
 20
9.014274
 30
0.0
 10
13.777689
 20
9.017255
 30
0.0
 10
13.772450
 20
9.019731
 30
0.0
 10
13.766993
 20
9.021684
 30
0.0
 10
13.761372
 20
9.023093
 30
0.0
 10
13.755639
 20
9.023944
 30
0.0
 10
13.749851
 20
9.024219
 30
0.0
 10
13.744062
 20
9.023944
 30
0.0
 10
13.738329
 20
9.023093
 30
0.0
 10
13.732708
 20
9.021684
 30
0.0
 10
13.727251
 20
9.019731
 30
0.0
 10
13.722012
 20
9.017255
 30
0.0
 10
13.717041
 20
9.014274
 30
0.0
 10
13.712386
 20
9.010822
 30
0.0
 10
13.708092
 20
9.006928
 30
0.0
 10
13.704200
 20
9.002634
 30
0.0
 10
13.700748
 20
8.997979
 30
0.0
 10
13.697768
 20
8.993008
 30
0.0
 10
13.695290
 20
8.987769
 30
0.0
 10
13.693338
 20
8.982313
 30
0.0
 10
13.691930
 20
8.976691
 30
0.0
 10
13.691079
 20
8.970958
 30
0.0
  0
LWPOLYLINE
  5
165
100
AcDbEntity
  8
Your_Design
 62
5
100
AcDbPolyline
 90
64
 70
1
 10
11.151787
 20
8.519663
 30
0.0
 10
11.152063
 20
8.513875
 30
0.0
 10
11.152913
 20
8.508142
 30
0.0
 10
11.154323
 20
8.502520
 30
0.0
 10
11.156275
 20
8.497064
 30
0.0
 10
11.158752
 20
8.491825
 30
0.0
 10
11.161732
 20
8.486854
 30
0.0
 10
11.165185
 20
8.482199
 30
0.0
 10
11.169079
 20
8.477905
 30
0.0
 10
11.173373
 20
8.474015
 30
0.0
 10
11.178027
 20
8.470562
 30
0.0
 10
11.182998
 20
8.467582
 30
0.0
 10
11.188237
 20
8.465106
 30
0.0
 10
11.193694
 20
8.463153
 30
0.0
 10
11.199316
 20
8.461743
 30
0.0
 10
11.205048
 20
8.460893
 30
0.0
 10
11.210837
 20
8.460617
 30
0.0
 10
11.216625
 20
8.460893
 30
0.0
 10
11.222358
 20
8.461743
 30
0.0
 10
11.227979
 20
8.463153
 30
0.0
 10
11.233436
 20
8.465106
 30
0.0
 10
11.238675
 20
8.467582
 30
0.0
 10
11.243646
 20
8.470562
 30
0.0
 10
11.248301
 20
8.474015
 30
0.0
 10
11.252595
 20
8.477905
 30
0.0
 10
11.256485
 20
8.482199
 30
0.0
 10
11.259938
 20
8.486854
 30
0.0
 10
11.262918
 20
8.491825
 30
0.0
 10
11.265394
 20
8.497064
 30
0.0
 10
11.267347
 20
8.502520
 30
0.0
 10
11.268757
 20
8.508142
 30
0.0
 10
11.269607
 20
8.513875
 30
0.0
 10
11.269883
 20
8.519663
 30
0.0
 10
11.269607
 20
8.525452
 30
0.0
 10
11.268757
 20
8.531184
 30
0.0
 10
11.267347
 20
8.536806
 30
0.0
 10
11.265394
 20
8.542263
 30
0.0
 10
11.262918
 20
8.547502
 30
0.0
 10
11.259938
 20
8.552472
 30
0.0
 10
11.256485
 20
8.557127
 30
0.0
 10
11.252595
 20
8.561421
 30
0.0
 10
11.248301
 20
8.565315
 30
0.0
 10
11.243646
 20
8.568768
 30
0.0
 10
11.238675
 20
8.571748
 30
0.0
 10
11.233436
 20
8.574224
 30
0.0
 10
11.227979
 20
8.576177
 30
0.0
 10
11.222358
 20
8.577587
 30
0.0
 10
11.216625
 20
8.578437
 30
0.0
 10
11.210837
 20
8.578713
 30
0.0
 10
11.205048
 20
8.578437
 30
0.0
 10
11.199316
 20
8.577587
 30
0.0
 10
11.193694
 20
8.576177
 30
0.0
 10
11.188237
 20
8.574224
 30
0.0
 10
11.182998
 20
8.571748
 30
0.0
 10
11.178027
 20
8.568768
 30
0.0
 10
11.173373
 20
8.565315
 30
0.0
 10
11.169079
 20
8.561421
 30
0.0
 10
11.165185
 20
8.557127
 30
0.0
 10
11.161732
 20
8.552472
 30
0.0
 10
11.158752
 20
8.547502
 30
0.0
 10
11.156275
 20
8.542263
 30
0.0
 10
11.154323
 20
8.536806
 30
0.0
 10
11.152913
 20
8.531184
 30
0.0
 10
11.152063
 20
8.525452
 30
0.0
  0
LWPOLYLINE
  5
166
100
AcDbEntity
  8
Your_Design
 62
5
100
AcDbPolyline
 90
64
 70
1
 10
8.612778
 20
8.074156
 30
0.0
 10
8.613054
 20
8.068368
 30
0.0
 10
8.613904
 20
8.062635
 30
0.0
 10
8.615314
 20
8.057013
 30
0.0
 10
8.617266
 20
8.051557
 30
0.0
 10
8.619743
 20
8.046318
 30
0.0
 10
8.622723
 20
8.041347
 30
0.0
 10
8.626176
 20
8.036692
 30
0.0
 10
8.630066
 20
8.032398
 30
0.0
 10
8.634360
 20
8.028504
 30
0.0
 10
8.639015
 20
8.025052
 30
0.0
 10
8.643986
 20
8.022071
 30
0.0
 10
8.649225
 20
8.019595
 30
0.0
 10
8.654681
 20
8.017642
 30
0.0
 10
8.660303
 20
8.016233
 30
0.0
 10
8.666036
 20
8.015382
 30
0.0
 10
8.671824
 20
8.015107
 30
0.0
 10
8.677612
 20
8.015382
 30
0.0
 10
8.683345
 20
8.016233
 30
0.0
 10
8.688967
 20
8.017642
 30
0.0
 10
8.694424
 20
8.019595
 30
0.0
 10
8.699662
 20
8.022071
 30
0.0
 10
8.704633
 20
8.025052
 30
0.0
 10
8.709288
 20
8.028504
 30
0.0
 10
8.713582
 20
8.032398
 30
0.0
 10
8.717476
 20
8.036692
 30
0.0
 10
8.720929
 20
8.041347
 30
0.0
 10
8.723909
 20
8.046318
 30
0.0
 10
8.726385
 20
8.051557
 30
0.0
 10
8.728338
 20
8.057013
 30
0.0
 10
8.729748
 20
8.062635
 30
0.0
 10
8.730598
 20
8.068368
 30
0.0
 10
8.730874
 20
8.074156
 30
0.0
 10
8.730598
 20
8.079945
 30
0.0
 10
8.729748
 20
8.085678
 30
0.0
 10
8.728338
 20
8.091299
 30
0.0
 10
8.726385
 20
8.096756
 30
0.0
 10
8.723909
 20
8.101995
 30
0.0
 10
8.720929
 20
8.106966
 30
0.0
 10
8.717476
 20
8.111621
 30
0.0
 10
8.713582
 20
8.115915
 30
0.0
 10
8.709288
 20
8.119808
 30
0.0
 10
8.704633
 20
8.123261
 30
0.0
 10
8.699662
 20
8.126241
 30
0.0
 10
8.694424
 20
8.128718
 30
0.0
 10
8.688967
 20
8.130671
 30
0.0
 10
8.683345
 20
8.132080
 30
0.0
 10
8.677612
 20
8.132930
 30
0.0
 10
8.671824
 20
8.133206
 30
0.0
 10
8.666036
 20
8.132930
 30
0.0
 10
8.660303
 20
8.132080
 30
0.0
 10
8.654681
 20
8.130671
 30
0.0
 10
8.649225
 20
8.128718
 30
0.0
 10
8.643986
 20
8.126241
 30
0.0
 10
8.639015
 20
8.123261
 30
0.0
 10
8.634360
 20
8.119808
 30
0.0
 10
8.630066
 20
8.115915
 30
0.0
 10
8.626176
 20
8.111621
 30
0.0
 10
8.622723
 20
8.106966
 30
0.0
 10
8.619743
 20
8.101995
 30
0.0
 10
8.617266
 20
8.096756
 30
0.0
 10
8.615314
 20
8.091299
 30
0.0
 10
8.613904
 20
8.085678
 30
0.0
 10
8.613054
 20
8.079945
 30
0.0
  0
LWPOLYLINE
  5
167
100
AcDbEntity
  8
Your_Design
 62
5
100
AcDbPolyline
 90
65
 70
1
 10
8.037501
 20
10.221121
 30
0.0
 10
8.037501
 20
10.221121
 30
0.0
 10
8.037777
 20
10.215332
 30
0.0
 10
8.038627
 20
10.209600
 30
0.0
 10
8.040037
 20
10.203978
 30
0.0
 10
8.041989
 20
10.198522
 30
0.0
 10
8.044466
 20
10.193283
 30
0.0
 10
8.047446
 20
10.188312
 30
0.0
 10
8.050899
 20
10.183657
 30
0.0
 10
8.054792
 20
10.179363
 30
0.0
 10
8.059087
 20
10.175469
 30
0.0
 10
8.063741
 20
10.172016
 30
0.0
 10
8.068712
 20
10.169036
 30
0.0
 10
8.073951
 20
10.166559
 30
0.0
 10
8.079408
 20
10.164607
 30
0.0
 10
8.085029
 20
10.163197
 30
0.0
 10
8.090762
 20
10.162347
 30
0.0
 10
8.096551
 20
10.162071
 30
0.0
 10
8.102339
 20
10.162347
 30
0.0
 10
8.108072
 20
10.163197
 30
0.0
 10
8.113694
 20
10.164607
 30
0.0
 10
8.119150
 20
10.166559
 30
0.0
 10
8.124389
 20
10.169036
 30
0.0
 10
8.129360
 20
10.172016
 30
0.0
 10
8.134015
 20
10.175469
 30
0.0
 10
8.138309
 20
10.179363
 30
0.0
 10
8.142199
 20
10.183657
 30
0.0
 10
8.145651
 20
10.188312
 30
0.0
 10
8.148632
 20
10.193283
 30
0.0
 10
8.151108
 20
10.198522
 30
0.0
 10
8.153061
 20
10.203978
 30
0.0
 10
8.154470
 20
10.209600
 30
0.0
 10
8.155321
 20
10.215332
 30
0.0
 10
8.155596
 20
10.221121
 30
0.0
 10
8.155321
 20
10.226909
 30
0.0
 10
8.154470
 20
10.232642
 30
0.0
 10
8.153061
 20
10.238264
 30
0.0
 10
8.151108
 20
10.243720
 30
0.0
 10
8.148632
 20
10.248959
 30
0.0
 10
8.145651
 20
10.253930
 30
0.0
 10
8.142199
 20
10.258585
 30
0.0
 10
8.138309
 20
10.262879
 30
0.0
 10
8.134015
 20
10.266773
 30
0.0
 10
8.129360
 20
10.270226
 30
0.0
 10
8.124389
 20
10.273206
 30
0.0
 10
8.119150
 20
10.275682
 30
0.0
 10
8.113694
 20
10.277635
 30
0.0
 10
8.108072
 20
10.279044
 30
0.0
 10
8.102339
 20
10.279895
 30
0.0
 10
8.096551
 20
10.280170
 30
0.0
 10
8.090762
 20
10.279895
 30
0.0
 10
8.085029
 20
10.279044
 30
0.0
 10
8.079408
 20
10.277635
 30
0.0
 10
8.073951
 20
10.275682
 30
0.0
 10
8.068712
 20
10.273206
 30
0.0
 10
8.063741
 20
10.270226
 30
0.0
 10
8.059087
 20
10.266773
 30
0.0
 10
8.054792
 20
10.262879
 30
0.0
 10
8.050899
 20
10.258585
 30
0.0
 10
8.047446
 20
10.253930
 30
0.0
 10
8.044466
 20
10.248959
 30
0.0
 10
8.041989
 20
10.243720
 30
0.0
 10
8.040037
 20
10.238264
 30
0.0
 10
8.038627
 20
10.232642
 30
0.0
 10
8.037777
 20
10.226909
 30
0.0
  0
LWPOLYLINE
  5
168
100
AcDbEntity
  8
Your_Design
 62
5
100
AcDbPolyline
 90
65
 70
1
 10
8.454269
 20
12.712764
 30
0.0
 10
8.454269
 20
12.712764
 30
0.0
 10
8.454544
 20
12.706975
 30
0.0
 10
8.455395
 20
12.701242
 30
0.0
 10
8.456804
 20
12.695621
 30
0.0
 10
8.458757
 20
12.690164
 30
0.0
 10
8.461233
 20
12.684925
 30
0.0
 10
8.464214
 20
12.679954
 30
0.0
 10
8.467666
 20
12.675299
 30
0.0
 10
8.471556
 20
12.671005
 30
0.0
 10
8.475850
 20
12.667113
 30
0.0
 10
8.480505
 20
12.663661
 30
0.0
 10
8.485476
 20
12.660681
 30
0.0
 10
8.490715
 20
12.658203
 30
0.0
 10
8.496172
 20
12.656251
 30
0.0
 10
8.501794
 20
12.654843
 30
0.0
 10
8.507526
 20
12.653992
 30
0.0
 10
8.513314
 20
12.653709
 30
0.0
 10
8.519103
 20
12.653992
 30
0.0
 10
8.524836
 20
12.654843
 30
0.0
 10
8.530457
 20
12.656251
 30
0.0
 10
8.535914
 20
12.658203
 30
0.0
 10
8.541153
 20
12.660681
 30
0.0
 10
8.546124
 20
12.663661
 30
0.0
 10
8.550779
 20
12.667113
 30
0.0
 10
8.555073
 20
12.671005
 30
0.0
 10
8.558966
 20
12.675299
 30
0.0
 10
8.562419
 20
12.679954
 30
0.0
 10
8.565399
 20
12.684925
 30
0.0
 10
8.567876
 20
12.690164
 30
0.0
 10
8.569829
 20
12.695621
 30
0.0
 10
8.571238
 20
12.701242
 30
0.0
 10
8.572088
 20
12.706975
 30
0.0
 10
8.572364
 20
12.712764
 30
0.0
 10
8.572088
 20
12.718552
 30
0.0
 10
8.571238
 20
12.724285
 30
0.0
 10
8.569829
 20
12.729906
 30
0.0
 10
8.567876
 20
12.735363
 30
0.0
 10
8.565399
 20
12.740602
 30
0.0
 10
8.562419
 20
12.745573
 30
0.0
 10
8.558966
 20
12.750228
 30
0.0
 10
8.555073
 20
12.754522
 30
0.0
 10
8.550779
 20
12.758414
 30
0.0
 10
8.546124
 20
12.761866
 30
0.0
 10
8.541153
 20
12.764846
 30
0.0
 10
8.535914
 20
12.767324
 30
0.0
 10
8.530457
 20
12.769276
 30
0.0
 10
8.524836
 20
12.770684
 30
0.0
 10
8.519103
 20
12.771535
 30
0.0
 10
8.513314
 20
12.771818
 30
0.0
 10
8.507526
 20
12.771535
 30
0.0
 10
8.501794
 20
12.770684
 30
0.0
 10
8.496172
 20
12.769276
 30
0.0
 10
8.490715
 20
12.767324
 30
0.0
 10
8.485476
 20
12.764846
 30
0.0
 10
8.480505
 20
12.761866
 30
0.0
 10
8.475850
 20
12.758414
 30
0.0
 10
8.471556
 20
12.754522
 30
0.0
 10
8.467666
 20
12.750228
 30
0.0
 10
8.464214
 20
12.745573
 30
0.0
 10
8.461233
 20
12.740602
 30
0.0
 10
8.458757
 20
12.735363
 30
0.0
 10
8.456804
 20
12.729906
 30
0.0
 10
8.455395
 20
12.724285
 30
0.0
 10
8.454544
 20
12.718552
 30
0.0
  0
LWPOLYLINE
  5
169
100
AcDbEntity
  8
Your_Design
 62
5
100
AcDbPolyline
 90
65
 70
1
 10
8.871037
 20
15.204406
 30
0.0
 10
8.871037
 20
15.204406
 30
0.0
 10
8.871312
 20
15.198618
 30
0.0
 10
8.872163
 20
15.192885
 30
0.0
 10
8.873572
 20
15.187263
 30
0.0
 10
8.875525
 20
15.181807
 30
0.0
 10
8.878001
 20
15.176568
 30
0.0
 10
8.880982
 20
15.171597
 30
0.0
 10
8.884435
 20
15.166942
 30
0.0
 10
8.888328
 20
15.162648
 30
0.0
 10
8.892622
 20
15.158756
 30
0.0
 10
8.897277
 20
15.155304
 30
0.0
 10
8.902248
 20
15.152324
 30
0.0
 10
8.907487
 20
15.149846
 30
0.0
 10
8.912944
 20
15.147894
 30
0.0
 10
8.918565
 20
15.146486
 30
0.0
 10
8.924298
 20
15.145635
 30
0.0
 10
8.930092
 20
15.145351
 30
0.0
 10
8.935880
 20
15.145635
 30
0.0
 10
8.941613
 20
15.146486
 30
0.0
 10
8.947235
 20
15.147894
 30
0.0
 10
8.952691
 20
15.149846
 30
0.0
 10
8.957930
 20
15.152324
 30
0.0
 10
8.962901
 20
15.155303
 30
0.0
 10
8.967556
 20
15.158756
 30
0.0
 10
8.971850
 20
15.162648
 30
0.0
 10
8.975740
 20
15.166942
 30
0.0
 10
8.979193
 20
15.171597
 30
0.0
 10
8.982173
 20
15.176568
 30
0.0
 10
8.984649
 20
15.181807
 30
0.0
 10
8.986602
 20
15.187263
 30
0.0
 10
8.988012
 20
15.192885
 30
0.0
 10
8.988862
 20
15.198618
 30
0.0
 10
8.989147
 20
15.204406
 30
0.0
 10
8.988872
 20
15.210195
 30
0.0
 10
8.988021
 20
15.215927
 30
0.0
 10
8.986612
 20
15.221549
 30
0.0
 10
8.984659
 20
15.227006
 30
0.0
 10
8.982183
 20
15.232245
 30
0.0
 10
8.979202
 20
15.237215
 30
0.0
 10
8.975749
 20
15.241870
 30
0.0
 10
8.971860
 20
15.246164
 30
0.0
 10
8.967566
 20
15.250056
 30
0.0
 10
8.962911
 20
15.253509
 30
0.0
 10
8.957940
 20
15.256488
 30
0.0
 10
8.952701
 20
15.258966
 30
0.0
 10
8.947244
 20
15.260918
 30
0.0
 10
8.941622
 20
15.262326
 30
0.0
 10
8.935890
 20
15.263177
 30
0.0
 10
8.930092
 20
15.263461
 30
0.0
 10
8.924303
 20
15.263177
 30
0.0
 10
8.918571
 20
15.262327
 30
0.0
 10
8.912949
 20
15.260919
 30
0.0
 10
8.907492
 20
15.258966
 30
0.0
 10
8.902253
 20
15.256488
 30
0.0
 10
8.897283
 20
15.253509
 30
0.0
 10
8.892628
 20
15.250057
 30
0.0
 10
8.888334
 20
15.246165
 30
0.0
 10
8.884440
 20
15.241871
 30
0.0
 10
8.880987
 20
15.237216
 30
0.0
 10
8.878007
 20
15.232245
 30
0.0
 10
8.875531
 20
15.227006
 30
0.0
 10
8.873578
 20
15.221549
 30
0.0
 10
8.872168
 20
15.215927
 30
0.0
 10
8.871318
 20
15.210195
 30
0.0
  0
LWPOLYLINE
  5
16a
100
AcDbEntity
  8
Your_Design
 62
5
100
AcDbPolyline
 90
76
 70
1
 10
6.075953
 20
7.652895
 30
0.0
 10
6.074618
 20
7.652886
 30
0.0
 10
3.158777
 20
7.613376
 30
0.0
 10
3.149166
 20
7.612775
 30
0.0
 10
3.139661
 20
7.611238
 30
0.0
 10
0.598316
 20
7.071451
 30
0.0
 10
0.589016
 20
7.068995
 30
0.0
 10
0.580000
 20
7.065643
 30
0.0
 10
0.571354
 20
7.061427
 30
0.0
 10
0.563160
 20
7.056386
 30
0.0
 10
0.555498
 20
7.050571
 30
0.0
 10
0.548441
 20
7.044035
 30
0.0
 10
0.542055
 20
7.036841
 30
0.0
 10
0.536401
 20
7.029058
 30
0.0
 10
0.531535
 20
7.020761
 30
0.0
 10
0.527501
 20
7.012028
 30
0.0
 10
0.524339
 20
7.002943
 30
0.0
 10
0.522080
 20
6.993593
 30
0.0
 10
0.218496
 20
5.400068
 30
0.0
 10
0.217080
 20
5.389610
 30
0.0
 10
0.216791
 20
5.379061
 30
0.0
 10
0.236548
 20
4.627935
 30
0.0
 10
0.236752
 20
4.623680
 30
0.0
 10
0.360451
 20
2.848716
 30
0.0
 10
0.361556
 20
2.839357
 30
0.0
 10
0.363550
 20
2.830146
 30
0.0
 10
0.366417
 20
2.821169
 30
0.0
 10
0.370128
 20
2.812506
 30
0.0
 10
0.374652
 20
2.804239
 30
0.0
 10
0.379945
 20
2.796442
 30
0.0
 10
1.537087
 20
1.256116
 30
0.0
 10
1.542990
 20
1.248984
 30
0.0
 10
1.549537
 20
1.242437
 30
0.0
 10
1.556670
 20
1.236535
 30
0.0
 10
1.564326
 20
1.231329
 30
0.0
 10
1.572438
 20
1.226866
 30
0.0
 10
1.580933
 20
1.223185
 30
0.0
 10
1.589736
 20
1.220318
 30
0.0
 10
1.598770
 20
1.218291
 30
0.0
 10
6.676787
 20
0.327278
 30
0.0
 10
6.686437
 20
0.326073
 30
0.0
 10
6.696159
 20
0.325837
 30
0.0
 10
6.705858
 20
0.326549
 30
0.0
 10
6.715439
 20
0.328215
 30
0.0
 10
6.724809
 20
0.330817
 30
0.0
 10
6.733876
 20
0.334333
 30
0.0
 10
6.742552
 20
0.338726
 30
0.0
 10
6.750751
 20
0.343955
 30
0.0
 10
6.758395
 20
0.349968
 30
0.0
 10
6.765409
 20
0.356705
 30
0.0
 10
6.771722
 20
0.364102
 30
0.0
 10
6.777276
 20
0.372085
 30
0.0
 10
6.782014
 20
0.380578
 30
0.0
 10
6.785892
 20
0.389496
 30
0.0
 10
6.788868
 20
0.398754
 30
0.0
 10
7.065024
 20
1.429382
 30
0.0
 10
7.364146
 20
2.545718
 30
0.0
 10
7.366319
 20
2.556006
 30
0.0
 10
7.367386
 20
2.566467
 30
0.0
 10
7.367347
 20
2.576982
 30
0.0
 10
7.366170
 20
2.587431
 30
0.0
 10
6.532634
 20
7.570716
 30
0.0
 10
6.530520
 20
7.580360
 30
0.0
 10
6.527449
 20
7.589745
 30
0.0
 10
6.523453
 20
7.598774
 30
0.0
 10
6.518572
 20
7.607358
 30
0.0
 10
6.512857
 20
7.615409
 30
0.0
 10
6.506344
 20
7.622839
 30
0.0
 10
6.499137
 20
7.629589
 30
0.0
 10
6.491291
 20
7.635583
 30
0.0
 10
6.482883
 20
7.640761
 30
0.0
 10
6.473999
 20
7.645070
 30
0.0
 10
6.464728
 20
7.648468
 30
0.0
 10
6.455163
 20
7.650919
 30
0.0
 10
6.445401
 20
7.652400
 30
0.0
 10
6.435539
 20
7.652895
 30
0.0
  0
LWPOLYLINE
  5
16b
100
AcDbEntity
  8
Your_Design
 62
5
100
AcDbPolyline
 90
65
 70
1
 10
3.219166
 20
7.514960
 30
0.0
 10
3.219166
 20
7.514960
 30
0.0
 10
3.218883
 20
7.509172
 30
0.0
 10
3.218032
 20
7.503439
 30
0.0
 10
3.216624
 20
7.497817
 30
0.0
 10
3.214672
 20
7.492361
 30
0.0
 10
3.212194
 20
7.487122
 30
0.0
 10
3.209214
 20
7.482151
 30
0.0
 10
3.205762
 20
7.477496
 30
0.0
 10
3.201870
 20
7.473202
 30
0.0
 10
3.197576
 20
7.469310
 30
0.0
 10
3.192921
 20
7.465858
 30
0.0
 10
3.187950
 20
7.462878
 30
0.0
 10
3.182711
 20
7.460400
 30
0.0
 10
3.177254
 20
7.458448
 30
0.0
 10
3.171633
 20
7.457040
 30
0.0
 10
3.165900
 20
7.456190
 30
0.0
 10
3.160112
 20
7.455905
 30
0.0
 10
3.154323
 20
7.456190
 30
0.0
 10
3.148591
 20
7.457040
 30
0.0
 10
3.142969
 20
7.458448
 30
0.0
 10
3.137512
 20
7.460400
 30
0.0
 10
3.132273
 20
7.462878
 30
0.0
 10
3.127302
 20
7.465858
 30
0.0
 10
3.122647
 20
7.469310
 30
0.0
 10
3.118353
 20
7.473202
 30
0.0
 10
3.114461
 20
7.477496
 30
0.0
 10
3.111009
 20
7.482151
 30
0.0
 10
3.108029
 20
7.487122
 30
0.0
 10
3.105551
 20
7.492361
 30
0.0
 10
3.103599
 20
7.497817
 30
0.0
 10
3.102191
 20
7.503439
 30
0.0
 10
3.101340
 20
7.509172
 30
0.0
 10
3.101057
 20
7.514960
 30
0.0
 10
3.101340
 20
7.520749
 30
0.0
 10
3.102191
 20
7.526481
 30
0.0
 10
3.103599
 20
7.532103
 30
0.0
 10
3.105551
 20
7.537560
 30
0.0
 10
3.108029
 20
7.542799
 30
0.0
 10
3.111009
 20
7.547769
 30
0.0
 10
3.114461
 20
7.552424
 30
0.0
 10
3.118353
 20
7.556718
 30
0.0
 10
3.122647
 20
7.560610
 30
0.0
 10
3.127302
 20
7.564063
 30
0.0
 10
3.132273
 20
7.567042
 30
0.0
 10
3.137512
 20
7.569520
 30
0.0
 10
3.142969
 20
7.571472
 30
0.0
 10
3.148591
 20
7.572881
 30
0.0
 10
3.154323
 20
7.573731
 30
0.0
 10
3.160112
 20
7.574015
 30
0.0
 10
3.165900
 20
7.573731
 30
0.0
 10
3.171633
 20
7.572881
 30
0.0
 10
3.177254
 20
7.571472
 30
0.0
 10
3.182711
 20
7.569520
 30
0.0
 10
3.187950
 20
7.567042
 30
0.0
 10
3.192921
 20
7.564063
 30
0.0
 10
3.197576
 20
7.560610
 30
0.0
 10
3.201870
 20
7.556718
 30
0.0
 10
3.205762
 20
7.552424
 30
0.0
 10
3.209214
 20
7.547769
 30
0.0
 10
3.212194
 20
7.542799
 30
0.0
 10
3.214672
 20
7.537560
 30
0.0
 10
3.216624
 20
7.532103
 30
0.0
 10
3.218032
 20
7.526481
 30
0.0
 10
3.218883
 20
7.520749
 30
0.0
  0
LWPOLYLINE
  5
16c
100
AcDbEntity
  8
Your_Design
 62
5
100
AcDbPolyline
 90
65
 70
1
 10
0.677822
 20
6.975173
 30
0.0
 10
0.677822
 20
6.975173
 30
0.0
 10
0.677539
 20
6.969385
 30
0.0
 10
0.676688
 20
6.963652
 30
0.0
 10
0.675280
 20
6.958030
 30
0.0
 10
0.673328
 20
6.952574
 30
0.0
 10
0.670850
 20
6.947335
 30
0.0
 10
0.667870
 20
6.942364
 30
0.0
 10
0.664418
 20
6.937709
 30
0.0
 10
0.660526
 20
6.933415
 30
0.0
 10
0.656232
 20
6.929523
 30
0.0
 10
0.651577
 20
6.926071
 30
0.0
 10
0.646606
 20
6.923091
 30
0.0
 10
0.641367
 20
6.920613
 30
0.0
 10
0.635910
 20
6.918661
 30
0.0
 10
0.630289
 20
6.917252
 30
0.0
 10
0.624556
 20
6.916402
 30
0.0
 10
0.618768
 20
6.916119
 30
0.0
 10
0.612979
 20
6.916402
 30
0.0
 10
0.607246
 20
6.917252
 30
0.0
 10
0.601625
 20
6.918661
 30
0.0
 10
0.596168
 20
6.920613
 30
0.0
 10
0.590929
 20
6.923091
 30
0.0
 10
0.585958
 20
6.926071
 30
0.0
 10
0.581303
 20
6.929523
 30
0.0
 10
0.577009
 20
6.933415
 30
0.0
 10
0.573117
 20
6.937709
 30
0.0
 10
0.569665
 20
6.942364
 30
0.0
 10
0.566685
 20
6.947335
 30
0.0
 10
0.564207
 20
6.952574
 30
0.0
 10
0.562255
 20
6.958030
 30
0.0
 10
0.560847
 20
6.963652
 30
0.0
 10
0.559996
 20
6.969385
 30
0.0
 10
0.559713
 20
6.975173
 30
0.0
 10
0.559996
 20
6.980962
 30
0.0
 10
0.560847
 20
6.986694
 30
0.0
 10
0.562255
 20
6.992316
 30
0.0
 10
0.564207
 20
6.997773
 30
0.0
 10
0.566685
 20
7.003012
 30
0.0
 10
0.569665
 20
7.007983
 30
0.0
 10
0.573117
 20
7.012637
 30
0.0
 10
0.577009
 20
7.016932
 30
0.0
 10
0.581303
 20
7.020824
 30
0.0
 10
0.585958
 20
7.024276
 30
0.0
 10
0.590929
 20
7.027256
 30
0.0
 10
0.596168
 20
7.029733
 30
0.0
 10
0.601625
 20
7.031686
 30
0.0
 10
0.607246
 20
7.033094
 30
0.0
 10
0.612979
 20
7.033945
 30
0.0
 10
0.618768
 20
7.034228
 30
0.0
 10
0.624556
 20
7.033945
 30
0.0
 10
0.630289
 20
7.033094
 30
0.0
 10
0.635910
 20
7.031686
 30
0.0
 10
0.641367
 20
7.029733
 30
0.0
 10
0.646606
 20
7.027256
 30
0.0
 10
0.651577
 20
7.024276
 30
0.0
 10
0.656232
 20
7.020824
 30
0.0
 10
0.660526
 20
7.016932
 30
0.0
 10
0.664418
 20
7.012637
 30
0.0
 10
0.667870
 20
7.007983
 30
0.0
 10
0.670850
 20
7.003012
 30
0.0
 10
0.673328
 20
6.997773
 30
0.0
 10
0.675280
 20
6.992316
 30
0.0
 10
0.676688
 20
6.986694
 30
0.0
 10
0.677539
 20
6.980962
 30
0.0
  0
LWPOLYLINE
  5
16d
100
AcDbEntity
  8
Your_Design
 62
5
100
AcDbPolyline
 90
65
 70
1
 10
0.374238
 20
5.381649
 30
0.0
 10
0.374238
 20
5.381649
 30
0.0
 10
0.373953
 20
5.375860
 30
0.0
 10
0.373103
 20
5.370128
 30
0.0
 10
0.371695
 20
5.364506
 30
0.0
 10
0.369742
 20
5.359049
 30
0.0
 10
0.367265
 20
5.353810
 30
0.0
 10
0.364285
 20
5.348839
 30
0.0
 10
0.360833
 20
5.344184
 30
0.0
 10
0.356941
 20
5.339890
 30
0.0
 10
0.352647
 20
5.335998
 30
0.0
 10
0.347992
 20
5.332546
 30
0.0
 10
0.343021
 20
5.329566
 30
0.0
 10
0.337782
 20
5.327088
 30
0.0
 10
0.332325
 20
5.325136
 30
0.0
 10
0.326704
 20
5.323728
 30
0.0
 10
0.320971
 20
5.322877
 30
0.0
 10
0.315183
 20
5.322594
 30
0.0
 10
0.309394
 20
5.322877
 30
0.0
 10
0.303662
 20
5.323728
 30
0.0
 10
0.298040
 20
5.325136
 30
0.0
 10
0.292583
 20
5.327088
 30
0.0
 10
0.287344
 20
5.329566
 30
0.0
 10
0.282373
 20
5.332546
 30
0.0
 10
0.277718
 20
5.335998
 30
0.0
 10
0.273424
 20
5.339890
 30
0.0
 10
0.269532
 20
5.344184
 30
0.0
 10
0.266080
 20
5.348839
 30
0.0
 10
0.263101
 20
5.353810
 30
0.0
 10
0.260623
 20
5.359049
 30
0.0
 10
0.258670
 20
5.364506
 30
0.0
 10
0.257262
 20
5.370128
 30
0.0
 10
0.256412
 20
5.375860
 30
0.0
 10
0.256128
 20
5.381649
 30
0.0
 10
0.256412
 20
5.387437
 30
0.0
 10
0.257262
 20
5.393170
 30
0.0
 10
0.258670
 20
5.398791
 30
0.0
 10
0.260623
 20
5.404248
 30
0.0
 10
0.263101
 20
5.409487
 30
0.0
 10
0.266080
 20
5.414458
 30
0.0
 10
0.269532
 20
5.419113
 30
0.0
 10
0.273424
 20
5.423407
 30
0.0
 10
0.277718
 20
5.427299
 30
0.0
 10
0.282373
 20
5.430751
 30
0.0
 10
0.287344
 20
5.433731
 30
0.0
 10
0.292583
 20
5.436209
 30
0.0
 10
0.298040
 20
5.438161
 30
0.0
 10
0.303662
 20
5.439570
 30
0.0
 10
0.309394
 20
5.440420
 30
0.0
 10
0.315183
 20
5.440703
 30
0.0
 10
0.320971
 20
5.440420
 30
0.0
 10
0.326704
 20
5.439570
 30
0.0
 10
0.332325
 20
5.438161
 30
0.0
 10
0.337782
 20
5.436209
 30
0.0
 10
0.343021
 20
5.433731
 30
0.0
 10
0.347992
 20
5.430751
 30
0.0
 10
0.352647
 20
5.427299
 30
0.0
 10
0.356941
 20
5.423407
 30
0.0
 10
0.360833
 20
5.419113
 30
0.0
 10
0.364285
 20
5.414458
 30
0.0
 10
0.367265
 20
5.409487
 30
0.0
 10
0.369742
 20
5.404248
 30
0.0
 10
0.371695
 20
5.398791
 30
0.0
 10
0.373103
 20
5.393170
 30
0.0
 10
0.373953
 20
5.387437
 30
0.0
  0
LWPOLYLINE
  5
16e
100
AcDbEntity
  8
Your_Design
 62
5
100
AcDbPolyline
 90
65
 70
1
 10
0.517694
 20
2.855559
 30
0.0
 10
0.517694
 20
2.855559
 30
0.0
 10
0.517410
 20
2.849770
 30
0.0
 10
0.516560
 20
2.844038
 30
0.0
 10
0.515151
 20
2.838416
 30
0.0
 10
0.513199
 20
2.832959
 30
0.0
 10
0.510721
 20
2.827720
 30
0.0
 10
0.507742
 20
2.822749
 30
0.0
 10
0.504289
 20
2.818094
 30
0.0
 10
0.500397
 20
2.813800
 30
0.0
 10
0.496103
 20
2.809911
 30
0.0
 10
0.491448
 20
2.806458
 30
0.0
 10
0.486478
 20
2.803477
 30
0.0
 10
0.481239
 20
2.801001
 30
0.0
 10
0.475782
 20
2.799048
 30
0.0
 10
0.470160
 20
2.797639
 30
0.0
 10
0.464428
 20
2.796788
 30
0.0
 10
0.458639
 20
2.796513
 30
0.0
 10
0.452851
 20
2.796788
 30
0.0
 10
0.447118
 20
2.797639
 30
0.0
 10
0.441496
 20
2.799048
 30
0.0
 10
0.436040
 20
2.801001
 30
0.0
 10
0.430801
 20
2.803477
 30
0.0
 10
0.425830
 20
2.806458
 30
0.0
 10
0.421175
 20
2.809911
 30
0.0
 10
0.416881
 20
2.813800
 30
0.0
 10
0.412989
 20
2.818094
 30
0.0
 10
0.409537
 20
2.822749
 30
0.0
 10
0.406557
 20
2.827720
 30
0.0
 10
0.404079
 20
2.832959
 30
0.0
 10
0.402127
 20
2.838416
 30
0.0
 10
0.400719
 20
2.844038
 30
0.0
 10
0.399868
 20
2.849770
 30
0.0
 10
0.399584
 20
2.855559
 30
0.0
 10
0.399868
 20
2.861347
 30
0.0
 10
0.400719
 20
2.867080
 30
0.0
 10
0.402127
 20
2.872701
 30
0.0
 10
0.404079
 20
2.878158
 30
0.0
 10
0.406557
 20
2.883397
 30
0.0
 10
0.409537
 20
2.888368
 30
0.0
 10
0.412989
 20
2.893023
 30
0.0
 10
0.416881
 20
2.897317
 30
0.0
 10
0.421175
 20
2.901211
 30
0.0
 10
0.425830
 20
2.904663
 30
0.0
 10
0.430801
 20
2.907644
 30
0.0
 10
0.436040
 20
2.910120
 30
0.0
 10
0.441496
 20
2.912073
 30
0.0
 10
0.447118
 20
2.913482
 30
0.0
 10
0.452851
 20
2.914333
 30
0.0
 10
0.458639
 20
2.914608
 30
0.0
 10
0.464428
 20
2.914333
 30
0.0
 10
0.470160
 20
2.913482
 30
0.0
 10
0.475782
 20
2.912073
 30
0.0
 10
0.481239
 20
2.910120
 30
0.0
 10
0.486478
 20
2.907644
 30
0.0
 10
0.491448
 20
2.904663
 30
0.0
 10
0.496103
 20
2.901211
 30
0.0
 10
0.500397
 20
2.897317
 30
0.0
 10
0.504289
 20
2.893023
 30
0.0
 10
0.507742
 20
2.888368
 30
0.0
 10
0.510721
 20
2.883397
 30
0.0
 10
0.513199
 20
2.878158
 30
0.0
 10
0.515151
 20
2.872701
 30
0.0
 10
0.516560
 20
2.867080
 30
0.0
 10
0.517410
 20
2.861347
 30
0.0
  0
LWPOLYLINE
  5
16f
100
AcDbEntity
  8
Your_Design
 62
5
100
AcDbPolyline
 90
64
 70
1
 10
1.674835
 20
1.315234
 30
0.0
 10
1.674552
 20
1.309446
 30
0.0
 10
1.673702
 20
1.303713
 30
0.0
 10
1.672293
 20
1.298091
 30
0.0
 10
1.670341
 20
1.292635
 30
0.0
 10
1.667863
 20
1.287396
 30
0.0
 10
1.664883
 20
1.282425
 30
0.0
 10
1.661431
 20
1.277770
 30
0.0
 10
1.657539
 20
1.273476
 30
0.0
 10
1.653245
 20
1.269586
 30
0.0
 10
1.648590
 20
1.266133
 30
0.0
 10
1.643619
 20
1.263153
 30
0.0
 10
1.638380
 20
1.260676
 30
0.0
 10
1.632924
 20
1.258724
 30
0.0
 10
1.627302
 20
1.257314
 30
0.0
 10
1.621569
 20
1.256464
 30
0.0
 10
1.615781
 20
1.256188
 30
0.0
 10
1.609992
 20
1.256464
 30
0.0
 10
1.604260
 20
1.257314
 30
0.0
 10
1.598638
 20
1.258724
 30
0.0
 10
1.593181
 20
1.260676
 30
0.0
 10
1.587942
 20
1.263153
 30
0.0
 10
1.582971
 20
1.266133
 30
0.0
 10
1.578317
 20
1.269586
 30
0.0
 10
1.574022
 20
1.273476
 30
0.0
 10
1.570130
 20
1.277770
 30
0.0
 10
1.566678
 20
1.282425
 30
0.0
 10
1.563698
 20
1.287396
 30
0.0
 10
1.561220
 20
1.292635
 30
0.0
 10
1.559268
 20
1.298091
 30
0.0
 10
1.557860
 20
1.303713
 30
0.0
 10
1.557009
 20
1.309446
 30
0.0
 10
1.556726
 20
1.315234
 30
0.0
 10
1.557009
 20
1.321022
 30
0.0
 10
1.557860
 20
1.326755
 30
0.0
 10
1.559268
 20
1.332377
 30
0.0
 10
1.561220
 20
1.337833
 30
0.0
 10
1.563698
 20
1.343072
 30
0.0
 10
1.566678
 20
1.348043
 30
0.0
 10
1.570130
 20
1.352698
 30
0.0
 10
1.574022
 20
1.356992
 30
0.0
 10
1.578317
 20
1.360886
 30
0.0
 10
1.582971
 20
1.364339
 30
0.0
 10
1.587942
 20
1.367319
 30
0.0
 10
1.593181
 20
1.369795
 30
0.0
 10
1.598638
 20
1.371748
 30
0.0
 10
1.604260
 20
1.373157
 30
0.0
 10
1.609992
 20
1.374008
 30
0.0
 10
1.615781
 20
1.374283
 30
0.0
 10
1.621569
 20
1.374008
 30
0.0
 10
1.627302
 20
1.373157
 30
0.0
 10
1.632924
 20
1.371748
 30
0.0
 10
1.638380
 20
1.369795
 30
0.0
 10
1.643619
 20
1.367319
 30
0.0
 10
1.648590
 20
1.364339
 30
0.0
 10
1.653245
 20
1.360886
 30
0.0
 10
1.657539
 20
1.356992
 30
0.0
 10
1.661431
 20
1.352698
 30
0.0
 10
1.664883
 20
1.348043
 30
0.0
 10
1.667863
 20
1.343072
 30
0.0
 10
1.670341
 20
1.337833
 30
0.0
 10
1.672293
 20
1.332377
 30
0.0
 10
1.673702
 20
1.326755
 30
0.0
 10
1.674552
 20
1.321022
 30
0.0
  0
LWPOLYLINE
  5
170
100
AcDbEntity
  8
Your_Design
 62
5
100
AcDbPolyline
 90
64
 70
1
 10
4.213844
 20
0.869727
 30
0.0
 10
4.213568
 20
0.863939
 30
0.0
 10
4.212718
 20
0.858206
 30
0.0
 10
4.211309
 20
0.852584
 30
0.0
 10
4.209356
 20
0.847128
 30
0.0
 10
4.206879
 20
0.841889
 30
0.0
 10
4.203899
 20
0.836918
 30
0.0
 10
4.200446
 20
0.832263
 30
0.0
 10
4.196553
 20
0.827969
 30
0.0
 10
4.192259
 20
0.824079
 30
0.0
 10
4.187604
 20
0.820626
 30
0.0
 10
4.182633
 20
0.817646
 30
0.0
 10
4.177394
 20
0.815170
 30
0.0
 10
4.171937
 20
0.813217
 30
0.0
 10
4.166316
 20
0.811807
 30
0.0
 10
4.160583
 20
0.810957
 30
0.0
 10
4.154794
 20
0.810681
 30
0.0
 10
4.149006
 20
0.810957
 30
0.0
 10
4.143274
 20
0.811807
 30
0.0
 10
4.137652
 20
0.813217
 30
0.0
 10
4.132195
 20
0.815170
 30
0.0
 10
4.126956
 20
0.817646
 30
0.0
 10
4.121985
 20
0.820626
 30
0.0
 10
4.117330
 20
0.824079
 30
0.0
 10
4.113036
 20
0.827969
 30
0.0
 10
4.109146
 20
0.832263
 30
0.0
 10
4.105694
 20
0.836918
 30
0.0
 10
4.102713
 20
0.841889
 30
0.0
 10
4.100237
 20
0.847128
 30
0.0
 10
4.098284
 20
0.852584
 30
0.0
 10
4.096875
 20
0.858206
 30
0.0
 10
4.096024
 20
0.863939
 30
0.0
 10
4.095749
 20
0.869727
 30
0.0
 10
4.096024
 20
0.875516
 30
0.0
 10
4.096875
 20
0.881248
 30
0.0
 10
4.098284
 20
0.886870
 30
0.0
 10
4.100237
 20
0.892327
 30
0.0
 10
4.102713
 20
0.897566
 30
0.0
 10
4.105694
 20
0.902537
 30
0.0
 10
4.109146
 20
0.907191
 30
0.0
 10
4.113036
 20
0.911485
 30
0.0
 10
4.117330
 20
0.915379
 30
0.0
 10
4.121985
 20
0.918832
 30
0.0
 10
4.126956
 20
0.921812
 30
0.0
 10
4.132195
 20
0.924289
 30
0.0
 10
4.137652
 20
0.926241
 30
0.0
 10
4.143274
 20
0.927651
 30
0.0
 10
4.149006
 20
0.928501
 30
0.0
 10
4.154794
 20
0.928777
 30
0.0
 10
4.160583
 20
0.928501
 30
0.0
 10
4.166316
 20
0.927651
 30
0.0
 10
4.171937
 20
0.926241
 30
0.0
 10
4.177394
 20
0.924289
 30
0.0
 10
4.182633
 20
0.921812
 30
0.0
 10
4.187604
 20
0.918832
 30
0.0
 10
4.192259
 20
0.915379
 30
0.0
 10
4.196553
 20
0.911485
 30
0.0
 10
4.200446
 20
0.907191
 30
0.0
 10
4.203899
 20
0.902537
 30
0.0
 10
4.206879
 20
0.897566
 30
0.0
 10
4.209356
 20
0.892327
 30
0.0
 10
4.211309
 20
0.886870
 30
0.0
 10
4.212718
 20
0.881248
 30
0.0
 10
4.213568
 20
0.875516
 30
0.0
  0
LWPOLYLINE
  5
171
100
AcDbEntity
  8
Your_Design
 62
5
100
AcDbPolyline
 90
64
 70
1
 10
6.752853
 20
0.424220
 30
0.0
 10
6.752577
 20
0.418432
 30
0.0
 10
6.751727
 20
0.412700
 30
0.0
 10
6.750318
 20
0.407078
 30
0.0
 10
6.748365
 20
0.401621
 30
0.0
 10
6.745888
 20
0.396382
 30
0.0
 10
6.742908
 20
0.391411
 30
0.0
 10
6.739455
 20
0.386756
 30
0.0
 10
6.735566
 20
0.382462
 30
0.0
 10
6.731272
 20
0.378568
 30
0.0
 10
6.726616
 20
0.375116
 30
0.0
 10
6.721646
 20
0.372135
 30
0.0
 10
6.716407
 20
0.369659
 30
0.0
 10
6.710950
 20
0.367706
 30
0.0
 10
6.705328
 20
0.366297
 30
0.0
 10
6.699596
 20
0.365446
 30
0.0
 10
6.693807
 20
0.365171
 30
0.0
 10
6.688019
 20
0.365446
 30
0.0
 10
6.682286
 20
0.366297
 30
0.0
 10
6.676664
 20
0.367706
 30
0.0
 10
6.671208
 20
0.369659
 30
0.0
 10
6.665969
 20
0.372135
 30
0.0
 10
6.660998
 20
0.375116
 30
0.0
 10
6.656343
 20
0.378568
 30
0.0
 10
6.652049
 20
0.382462
 30
0.0
 10
6.648155
 20
0.386756
 30
0.0
 10
6.644703
 20
0.391411
 30
0.0
 10
6.641722
 20
0.396382
 30
0.0
 10
6.639246
 20
0.401621
 30
0.0
 10
6.637293
 20
0.407078
 30
0.0
 10
6.635884
 20
0.412700
 30
0.0
 10
6.635033
 20
0.418432
 30
0.0
 10
6.634758
 20
0.424220
 30
0.0
 10
6.635033
 20
0.430009
 30
0.0
 10
6.635884
 20
0.435742
 30
0.0
 10
6.637293
 20
0.441363
 30
0.0
 10
6.639246
 20
0.446820
 30
0.0
 10
6.641722
 20
0.452059
 30
0.0
 10
6.644703
 20
0.457030
 30
0.0
 10
6.648155
 20
0.461685
 30
0.0
 10
6.652049
 20
0.465979
 30
0.0
 10
6.656343
 20
0.469872
 30
0.0
 10
6.660998
 20
0.473325
 30
0.0
 10
6.665969
 20
0.476305
 30
0.0
 10
6.671208
 20
0.478782
 30
0.0
 10
6.676664
 20
0.480735
 30
0.0
 10
6.682286
 20
0.482144
 30
0.0
 10
6.688019
 20
0.482994
 30
0.0
 10
6.693807
 20
0.483270
 30
0.0
 10
6.699596
 20
0.482994
 30
0.0
 10
6.705328
 20
0.482144
 30
0.0
 10
6.710950
 20
0.480735
 30
0.0
 10
6.716407
 20
0.478782
 30
0.0
 10
6.721646
 20
0.476305
 30
0.0
 10
6.726616
 20
0.473325
 30
0.0
 10
6.731272
 20
0.469872
 30
0.0
 10
6.735566
 20
0.465979
 30
0.0
 10
6.739455
 20
0.461685
 30
0.0
 10
6.742908
 20
0.457030
 30
0.0
 10
6.745888
 20
0.452059
 30
0.0
 10
6.748365
 20
0.446820
 30
0.0
 10
6.750318
 20
0.441363
 30
0.0
 10
6.751727
 20
0.435742
 30
0.0
 10
6.752577
 20
0.430009
 30
0.0
  0
LWPOLYLINE
  5
172
100
AcDbEntity
  8
Your_Design
 62
5
100
AcDbPolyline
 90
65
 70
1
 10
7.328130
 20
2.571185
 30
0.0
 10
7.328130
 20
2.571185
 30
0.0
 10
7.327855
 20
2.565396
 30
0.0
 10
7.327004
 20
2.559664
 30
0.0
 10
7.325595
 20
2.554042
 30
0.0
 10
7.323642
 20
2.548586
 30
0.0
 10
7.321166
 20
2.543347
 30
0.0
 10
7.318185
 20
2.538376
 30
0.0
 10
7.314733
 20
2.533721
 30
0.0
 10
7.310839
 20
2.529427
 30
0.0
 10
7.306545
 20
2.525533
 30
0.0
 10
7.301890
 20
2.522080
 30
0.0
 10
7.296919
 20
2.519100
 30
0.0
 10
7.291680
 20
2.516624
 30
0.0
 10
7.286223
 20
2.514671
 30
0.0
 10
7.280602
 20
2.513261
 30
0.0
 10
7.274869
 20
2.512411
 30
0.0
 10
7.269081
 20
2.512135
 30
0.0
 10
7.263292
 20
2.512411
 30
0.0
 10
7.257560
 20
2.513261
 30
0.0
 10
7.251938
 20
2.514671
 30
0.0
 10
7.246481
 20
2.516624
 30
0.0
 10
7.241242
 20
2.519100
 30
0.0
 10
7.236272
 20
2.522080
 30
0.0
 10
7.231616
 20
2.525533
 30
0.0
 10
7.227322
 20
2.529427
 30
0.0
 10
7.223433
 20
2.533721
 30
0.0
 10
7.219980
 20
2.538376
 30
0.0
 10
7.216999
 20
2.543347
 30
0.0
 10
7.214523
 20
2.548586
 30
0.0
 10
7.212570
 20
2.554042
 30
0.0
 10
7.211161
 20
2.559664
 30
0.0
 10
7.210311
 20
2.565396
 30
0.0
 10
7.210035
 20
2.571185
 30
0.0
 10
7.210311
 20
2.576974
 30
0.0
 10
7.211161
 20
2.582706
 30
0.0
 10
7.212570
 20
2.588328
 30
0.0
 10
7.214523
 20
2.593785
 30
0.0
 10
7.216999
 20
2.599024
 30
0.0
 10
7.219980
 20
2.603994
 30
0.0
 10
7.223433
 20
2.608649
 30
0.0
 10
7.227322
 20
2.612943
 30
0.0
 10
7.231616
 20
2.616837
 30
0.0
 10
7.236272
 20
2.620290
 30
0.0
 10
7.241242
 20
2.623270
 30
0.0
 10
7.246481
 20
2.625746
 30
0.0
 10
7.251938
 20
2.627699
 30
0.0
 10
7.257560
 20
2.629109
 30
0.0
 10
7.263292
 20
2.629959
 30
0.0
 10
7.269081
 20
2.630235
 30
0.0
 10
7.274869
 20
2.629959
 30
0.0
 10
7.280602
 20
2.629109
 30
0.0
 10
7.286223
 20
2.627699
 30
0.0
 10
7.291680
 20
2.625746
 30
0.0
 10
7.296919
 20
2.623270
 30
0.0
 10
7.301890
 20
2.620290
 30
0.0
 10
7.306545
 20
2.616837
 30
0.0
 10
7.310839
 20
2.612943
 30
0.0
 10
7.314733
 20
2.608649
 30
0.0
 10
7.318185
 20
2.603994
 30
0.0
 10
7.321166
 20
2.599024
 30
0.0
 10
7.323642
 20
2.593785
 30
0.0
 10
7.325595
 20
2.588328
 30
0.0
 10
7.327004
 20
2.582706
 30
0.0
 10
7.327855
 20
2.576974
 30
0.0
  0
LWPOLYLINE
  5
173
100
AcDbEntity
  8
Your_Design
 62
5
100
AcDbPolyline
 90
65
 70
1
 10
6.911362
 20
5.062828
 30
0.0
 10
6.911362
 20
5.062828
 30
0.0
 10
6.911087
 20
5.057039
 30
0.0
 10
6.910236
 20
5.051307
 30
0.0
 10
6.908827
 20
5.045685
 30
0.0
 10
6.906874
 20
5.040228
 30
0.0
 10
6.904398
 20
5.034989
 30
0.0
 10
6.901418
 20
5.030018
 30
0.0
 10
6.897965
 20
5.025363
 30
0.0
 10
6.894075
 20
5.021069
 30
0.0
 10
6.889781
 20
5.017177
 30
0.0
 10
6.885126
 20
5.013725
 30
0.0
 10
6.880155
 20
5.010745
 30
0.0
 10
6.874916
 20
5.008267
 30
0.0
 10
6.869459
 20
5.006315
 30
0.0
 10
6.863838
 20
5.004907
 30
0.0
 10
6.858105
 20
5.004056
 30
0.0
 10
6.852317
 20
5.003773
 30
0.0
 10
6.846528
 20
5.004056
 30
0.0
 10
6.840796
 20
5.004907
 30
0.0
 10
6.835174
 20
5.006315
 30
0.0
 10
6.829717
 20
5.008267
 30
0.0
 10
6.824478
 20
5.010745
 30
0.0
 10
6.819507
 20
5.013725
 30
0.0
 10
6.814853
 20
5.017177
 30
0.0
 10
6.810559
 20
5.021069
 30
0.0
 10
6.806665
 20
5.025363
 30
0.0
 10
6.803212
 20
5.030018
 30
0.0
 10
6.800232
 20
5.034989
 30
0.0
 10
6.797755
 20
5.040228
 30
0.0
 10
6.795803
 20
5.045685
 30
0.0
 10
6.794393
 20
5.051307
 30
0.0
 10
6.793543
 20
5.057039
 30
0.0
 10
6.793267
 20
5.062828
 30
0.0
 10
6.793543
 20
5.068616
 30
0.0
 10
6.794393
 20
5.074349
 30
0.0
 10
6.795803
 20
5.079970
 30
0.0
 10
6.797755
 20
5.085427
 30
0.0
 10
6.800232
 20
5.090666
 30
0.0
 10
6.803212
 20
5.095637
 30
0.0
 10
6.806665
 20
5.100292
 30
0.0
 10
6.810559
 20
5.104586
 30
0.0
 10
6.814853
 20
5.108478
 30
0.0
 10
6.819507
 20
5.111930
 30
0.0
 10
6.824478
 20
5.114910
 30
0.0
 10
6.829717
 20
5.117388
 30
0.0
 10
6.835174
 20
5.119340
 30
0.0
 10
6.840796
 20
5.120748
 30
0.0
 10
6.846528
 20
5.121599
 30
0.0
 10
6.852317
 20
5.121882
 30
0.0
 10
6.858105
 20
5.121599
 30
0.0
 10
6.863838
 20
5.120748
 30
0.0
 10
6.869459
 20
5.119340
 30
0.0
 10
6.874916
 20
5.117388
 30
0.0
 10
6.880155
 20
5.114910
 30
0.0
 10
6.885126
 20
5.111930
 30
0.0
 10
6.889781
 20
5.108478
 30
0.0
 10
6.894075
 20
5.104586
 30
0.0
 10
6.897965
 20
5.100292
 30
0.0
 10
6.901418
 20
5.095637
 30
0.0
 10
6.904398
 20
5.090666
 30
0.0
 10
6.906874
 20
5.085427
 30
0.0
 10
6.908827
 20
5.079970
 30
0.0
 10
6.910236
 20
5.074349
 30
0.0
 10
6.911087
 20
5.068616
 30
0.0
  0
LWPOLYLINE
  5
174
100
AcDbEntity
  8
Your_Design
 62
5
100
AcDbPolyline
 90
65
 70
1
 10
6.494594
 20
7.554470
 30
0.0
 10
6.494594
 20
7.554470
 30
0.0
 10
6.494319
 20
7.548682
 30
0.0
 10
6.493468
 20
7.542949
 30
0.0
 10
6.492059
 20
7.537327
 30
0.0
 10
6.490106
 20
7.531871
 30
0.0
 10
6.487630
 20
7.526632
 30
0.0
 10
6.484650
 20
7.521661
 30
0.0
 10
6.481197
 20
7.517006
 30
0.0
 10
6.477303
 20
7.512712
 30
0.0
 10
6.473009
 20
7.508820
 30
0.0
 10
6.468354
 20
7.505368
 30
0.0
 10
6.463383
 20
7.502388
 30
0.0
 10
6.458144
 20
7.499910
 30
0.0
 10
6.452688
 20
7.497958
 30
0.0
 10
6.447066
 20
7.496550
 30
0.0
 10
6.441333
 20
7.495699
 30
0.0
 10
6.435539
 20
7.495415
 30
0.0
 10
6.429751
 20
7.495699
 30
0.0
 10
6.424018
 20
7.496550
 30
0.0
 10
6.418397
 20
7.497958
 30
0.0
 10
6.412940
 20
7.499910
 30
0.0
 10
6.407701
 20
7.502388
 30
0.0
 10
6.402730
 20
7.505368
 30
0.0
 10
6.398075
 20
7.508820
 30
0.0
 10
6.393781
 20
7.512712
 30
0.0
 10
6.389891
 20
7.517006
 30
0.0
 10
6.386438
 20
7.521661
 30
0.0
 10
6.383458
 20
7.526632
 30
0.0
 10
6.380982
 20
7.531871
 30
0.0
 10
6.379029
 20
7.537327
 30
0.0
 10
6.377620
 20
7.542949
 30
0.0
 10
6.376769
 20
7.548682
 30
0.0
 10
6.376484
 20
7.554470
 30
0.0
 10
6.376760
 20
7.560259
 30
0.0
 10
6.377610
 20
7.565991
 30
0.0
 10
6.379020
 20
7.571613
 30
0.0
 10
6.380972
 20
7.577070
 30
0.0
 10
6.383449
 20
7.582309
 30
0.0
 10
6.386429
 20
7.587280
 30
0.0
 10
6.389882
 20
7.591934
 30
0.0
 10
6.393772
 20
7.596229
 30
0.0
 10
6.398066
 20
7.600120
 30
0.0
 10
6.402721
 20
7.603573
 30
0.0
 10
6.407692
 20
7.606552
 30
0.0
 10
6.412931
 20
7.609030
 30
0.0
 10
6.418387
 20
7.610982
 30
0.0
 10
6.424009
 20
7.612391
 30
0.0
 10
6.429742
 20
7.613241
 30
0.0
 10
6.435539
 20
7.613525
 30
0.0
 10
6.441328
 20
7.613241
 30
0.0
 10
6.447061
 20
7.612391
 30
0.0
 10
6.452682
 20
7.610983
 30
0.0
 10
6.458139
 20
7.609030
 30
0.0
 10
6.463378
 20
7.606552
 30
0.0
 10
6.468349
 20
7.603573
 30
0.0
 10
6.473003
 20
7.600121
 30
0.0
 10
6.477298
 20
7.596229
 30
0.0
 10
6.481191
 20
7.591935
 30
0.0
 10
6.484644
 20
7.587280
 30
0.0
 10
6.487624
 20
7.582309
 30
0.0
 10
6.490101
 20
7.577070
 30
0.0
 10
6.492053
 20
7.571613
 30
0.0
 10
6.493463
 20
7.565992
 30
0.0
 10
6.494313
 20
7.560259
 30
0.0
  0
LWPOLYLINE
  5
175
100
AcDbEntity
  8
Your_Design
 62
5
100
AcDbPolyline
 90
76
 70
1
 10
9.004723
 20
7.674815
 30
0.0
 10
9.006058
 20
7.674806
 30
0.0
 10
11.921899
 20
7.635296
 30
0.0
 10
11.931510
 20
7.634695
 30
0.0
 10
11.941015
 20
7.633157
 30
0.0
 10
14.482359
 20
7.093370
 30
0.0
 10
14.491660
 20
7.090914
 30
0.0
 10
14.500676
 20
7.087562
 30
0.0
 10
14.509322
 20
7.083346
 30
0.0
 10
14.517515
 20
7.078306
 30
0.0
 10
14.525177
 20
7.072490
 30
0.0
 10
14.532235
 20
7.065954
 30
0.0
 10
14.538621
 20
7.058760
 30
0.0
 10
14.544274
 20
7.050978
 30
0.0
 10
14.549141
 20
7.042680
 30
0.0
 10
14.553174
 20
7.033948
 30
0.0
 10
14.556336
 20
7.024863
 30
0.0
 10
14.558596
 20
7.015513
 30
0.0
 10
14.862179
 20
5.421988
 30
0.0
 10
14.863596
 20
5.411530
 30
0.0
 10
14.863884
 20
5.400980
 30
0.0
 10
14.844127
 20
4.649854
 30
0.0
 10
14.843923
 20
4.645600
 30
0.0
 10
14.720225
 20
2.870635
 30
0.0
 10
14.719120
 20
2.861276
 30
0.0
 10
14.717125
 20
2.852066
 30
0.0
 10
14.714259
 20
2.843088
 30
0.0
 10
14.710547
 20
2.834426
 30
0.0
 10
14.706024
 20
2.826158
 30
0.0
 10
14.700731
 20
2.818361
 30
0.0
 10
13.543589
 20
1.278036
 30
0.0
 10
13.537686
 20
1.270903
 30
0.0
 10
13.531139
 20
1.264357
 30
0.0
 10
13.524006
 20
1.258454
 30
0.0
 10
13.516350
 20
1.253249
 30
0.0
 10
13.508238
 20
1.248785
 30
0.0
 10
13.499743
 20
1.245104
 30
0.0
 10
13.490940
 20
1.242238
 30
0.0
 10
13.481906
 20
1.240210
 30
0.0
 10
8.403888
 20
0.349197
 30
0.0
 10
8.394238
 20
0.347992
 30
0.0
 10
8.384516
 20
0.347756
 30
0.0
 10
8.374818
 20
0.348469
 30
0.0
 10
8.365236
 20
0.350134
 30
0.0
 10
8.355867
 20
0.352736
 30
0.0
 10
8.346800
 20
0.356252
 30
0.0
 10
8.338124
 20
0.360646
 30
0.0
 10
8.329924
 20
0.365875
 30
0.0
 10
8.322281
 20
0.371887
 30
0.0
 10
8.315267
 20
0.378624
 30
0.0
 10
8.308953
 20
0.386021
 30
0.0
 10
8.303400
 20
0.394004
 30
0.0
 10
8.298662
 20
0.402497
 30
0.0
 10
8.294784
 20
0.411416
 30
0.0
 10
8.291807
 20
0.420673
 30
0.0
 10
8.015651
 20
1.451301
 30
0.0
 10
7.716530
 20
2.567638
 30
0.0
 10
7.714357
 20
2.577926
 30
0.0
 10
7.713290
 20
2.588386
 30
0.0
 10
7.713329
 20
2.598901
 30
0.0
 10
7.714506
 20
2.609350
 30
0.0
 10
8.548042
 20
7.592635
 30
0.0
 10
8.550156
 20
7.602280
 30
0.0
 10
8.553227
 20
7.611664
 30
0.0
 10
8.557223
 20
7.620693
 30
0.0
 10
8.562103
 20
7.629277
 30
0.0
 10
8.567819
 20
7.637328
 30
0.0
 10
8.574332
 20
7.644759
 30
0.0
 10
8.581539
 20
7.651509
 30
0.0
 10
8.589385
 20
7.657503
 30
0.0
 10
8.597793
 20
7.662680
 30
0.0
 10
8.606677
 20
7.666990
 30
0.0
 10
8.615947
 20
7.670387
 30
0.0
 10
8.625512
 20
7.672839
 30
0.0
 10
8.635275
 20
7.674320
 30
0.0
 10
8.645136
 20
7.674815
 30
0.0
  0
LWPOLYLINE
  5
176
100
AcDbEntity
  8
Your_Design
 62
5
100
AcDbPolyline
 90
65
 70
1
 10
11.861509
 20
7.536880
 30
0.0
 10
11.861509
 20
7.536880
 30
0.0
 10
11.861793
 20
7.531091
 30
0.0
 10
11.862643
 20
7.525359
 30
0.0
 10
11.864051
 20
7.519737
 30
0.0
 10
11.866004
 20
7.514280
 30
0.0
 10
11.868482
 20
7.509041
 30
0.0
 10
11.871461
 20
7.504070
 30
0.0
 10
11.874914
 20
7.499415
 30
0.0
 10
11.878806
 20
7.495121
 30
0.0
 10
11.883100
 20
7.491229
 30
0.0
 10
11.887755
 20
7.487777
 30
0.0
 10
11.892726
 20
7.484798
 30
0.0
 10
11.897965
 20
7.482320
 30
0.0
 10
11.903421
 20
7.480367
 30
0.0
 10
11.909043
 20
7.478959
 30
0.0
 10
11.914776
 20
7.478109
 30
0.0
 10
11.920564
 20
7.477825
 30
0.0
 10
11.926353
 20
7.478109
 30
0.0
 10
11.932085
 20
7.478959
 30
0.0
 10
11.937707
 20
7.480367
 30
0.0
 10
11.943164
 20
7.482320
 30
0.0
 10
11.948403
 20
7.484798
 30
0.0
 10
11.953373
 20
7.487777
 30
0.0
 10
11.958028
 20
7.491229
 30
0.0
 10
11.962322
 20
7.495121
 30
0.0
 10
11.966215
 20
7.499415
 30
0.0
 10
11.969667
 20
7.504070
 30
0.0
 10
11.972646
 20
7.509041
 30
0.0
 10
11.975124
 20
7.514280
 30
0.0
 10
11.977077
 20
7.519737
 30
0.0
 10
11.978485
 20
7.525359
 30
0.0
 10
11.979335
 20
7.531091
 30
0.0
 10
11.979619
 20
7.536880
 30
0.0
 10
11.979335
 20
7.542668
 30
0.0
 10
11.978485
 20
7.548401
 30
0.0
 10
11.977077
 20
7.554022
 30
0.0
 10
11.975124
 20
7.559479
 30
0.0
 10
11.972646
 20
7.564718
 30
0.0
 10
11.969667
 20
7.569689
 30
0.0
 10
11.966215
 20
7.574344
 30
0.0
 10
11.962322
 20
7.578638
 30
0.0
 10
11.958028
 20
7.582530
 30
0.0
 10
11.953373
 20
7.585982
 30
0.0
 10
11.948403
 20
7.588962
 30
0.0
 10
11.943164
 20
7.591439
 30
0.0
 10
11.937707
 20
7.593392
 30
0.0
 10
11.932085
 20
7.594800
 30
0.0
 10
11.926353
 20
7.595650
 30
0.0
 10
11.920564
 20
7.595935
 30
0.0
 10
11.914776
 20
7.595650
 30
0.0
 10
11.909043
 20
7.594800
 30
0.0
 10
11.903421
 20
7.593392
 30
0.0
 10
11.897965
 20
7.591439
 30
0.0
 10
11.892726
 20
7.588962
 30
0.0
 10
11.887755
 20
7.585982
 30
0.0
 10
11.883100
 20
7.582530
 30
0.0
 10
11.878806
 20
7.578638
 30
0.0
 10
11.874914
 20
7.574344
 30
0.0
 10
11.871461
 20
7.569689
 30
0.0
 10
11.868482
 20
7.564718
 30
0.0
 10
11.866004
 20
7.559479
 30
0.0
 10
11.864051
 20
7.554022
 30
0.0
 10
11.862643
 20
7.548401
 30
0.0
 10
11.861793
 20
7.542668
 30
0.0
  0
LWPOLYLINE
  5
177
100
AcDbEntity
  8
Your_Design
 62
5
100
AcDbPolyline
 90
65
 70
1
 10
14.402853
 20
6.997093
 30
0.0
 10
14.402853
 20
6.997093
 30
0.0
 10
14.403137
 20
6.991304
 30
0.0
 10
14.403987
 20
6.985572
 30
0.0
 10
14.405396
 20
6.979950
 30
0.0
 10
14.407348
 20
6.974493
 30
0.0
 10
14.409826
 20
6.969254
 30
0.0
 10
14.412805
 20
6.964283
 30
0.0
 10
14.416258
 20
6.959629
 30
0.0
 10
14.420150
 20
6.955334
 30
0.0
 10
14.424444
 20
6.951442
 30
0.0
 10
14.429099
 20
6.947990
 30
0.0
 10
14.434070
 20
6.945010
 30
0.0
 10
14.439309
 20
6.942532
 30
0.0
 10
14.444765
 20
6.940580
 30
0.0
 10
14.450387
 20
6.939172
 30
0.0
 10
14.456120
 20
6.938321
 30
0.0
 10
14.461908
 20
6.938038
 30
0.0
 10
14.467697
 20
6.938321
 30
0.0
 10
14.473429
 20
6.939172
 30
0.0
 10
14.479051
 20
6.940580
 30
0.0
 10
14.484508
 20
6.942532
 30
0.0
 10
14.489747
 20
6.945010
 30
0.0
 10
14.494717
 20
6.947990
 30
0.0
 10
14.499372
 20
6.951442
 30
0.0
 10
14.503666
 20
6.955334
 30
0.0
 10
14.507559
 20
6.959629
 30
0.0
 10
14.511011
 20
6.964283
 30
0.0
 10
14.513990
 20
6.969254
 30
0.0
 10
14.516468
 20
6.974493
 30
0.0
 10
14.518421
 20
6.979950
 30
0.0
 10
14.519829
 20
6.985572
 30
0.0
 10
14.520679
 20
6.991304
 30
0.0
 10
14.520963
 20
6.997093
 30
0.0
 10
14.520679
 20
7.002881
 30
0.0
 10
14.519829
 20
7.008614
 30
0.0
 10
14.518421
 20
7.014235
 30
0.0
 10
14.516468
 20
7.019692
 30
0.0
 10
14.513990
 20
7.024931
 30
0.0
 10
14.511011
 20
7.029902
 30
0.0
 10
14.507559
 20
7.034557
 30
0.0
 10
14.503666
 20
7.038851
 30
0.0
 10
14.499372
 20
7.042743
 30
0.0
 10
14.494717
 20
7.046195
 30
0.0
 10
14.489747
 20
7.049175
 30
0.0
 10
14.484508
 20
7.051653
 30
0.0
 10
14.479051
 20
7.053605
 30
0.0
 10
14.473429
 20
7.055014
 30
0.0
 10
14.467697
 20
7.055864
 30
0.0
 10
14.461908
 20
7.056147
 30
0.0
 10
14.456120
 20
7.055864
 30
0.0
 10
14.450387
 20
7.055014
 30
0.0
 10
14.444765
 20
7.053605
 30
0.0
 10
14.439309
 20
7.051653
 30
0.0
 10
14.434070
 20
7.049175
 30
0.0
 10
14.429099
 20
7.046195
 30
0.0
 10
14.424444
 20
7.042743
 30
0.0
 10
14.420150
 20
7.038851
 30
0.0
 10
14.416258
 20
7.034557
 30
0.0
 10
14.412805
 20
7.029902
 30
0.0
 10
14.409826
 20
7.024931
 30
0.0
 10
14.407348
 20
7.019692
 30
0.0
 10
14.405396
 20
7.014235
 30
0.0
 10
14.403987
 20
7.008614
 30
0.0
 10
14.403137
 20
7.002881
 30
0.0
  0
LWPOLYLINE
  5
178
100
AcDbEntity
  8
Your_Design
 62
5
100
AcDbPolyline
 90
65
 70
1
 10
14.706438
 20
5.403568
 30
0.0
 10
14.706438
 20
5.403568
 30
0.0
 10
14.706722
 20
5.397780
 30
0.0
 10
14.707573
 20
5.392047
 30
0.0
 10
14.708981
 20
5.386425
 30
0.0
 10
14.710933
 20
5.380969
 30
0.0
 10
14.713411
 20
5.375730
 30
0.0
 10
14.716390
 20
5.370759
 30
0.0
 10
14.719843
 20
5.366104
 30
0.0
 10
14.723735
 20
5.361810
 30
0.0
 10
14.728029
 20
5.357918
 30
0.0
 10
14.732684
 20
5.354465
 30
0.0
 10
14.737655
 20
5.351486
 30
0.0
 10
14.742894
 20
5.349008
 30
0.0
 10
14.748350
 20
5.347055
 30
0.0
 10
14.753972
 20
5.345647
 30
0.0
 10
14.759705
 20
5.344797
 30
0.0
 10
14.765493
 20
5.344513
 30
0.0
 10
14.771281
 20
5.344797
 30
0.0
 10
14.777014
 20
5.345647
 30
0.0
 10
14.782636
 20
5.347055
 30
0.0
 10
14.788092
 20
5.349008
 30
0.0
 10
14.793331
 20
5.351486
 30
0.0
 10
14.798302
 20
5.354465
 30
0.0
 10
14.802957
 20
5.357918
 30
0.0
 10
14.807251
 20
5.361810
 30
0.0
 10
14.811143
 20
5.366104
 30
0.0
 10
14.814596
 20
5.370759
 30
0.0
 10
14.817575
 20
5.375730
 30
0.0
 10
14.820053
 20
5.380969
 30
0.0
 10
14.822005
 20
5.386425
 30
0.0
 10
14.823413
 20
5.392047
 30
0.0
 10
14.824264
 20
5.397780
 30
0.0
 10
14.824548
 20
5.403568
 30
0.0
 10
14.824264
 20
5.409357
 30
0.0
 10
14.823413
 20
5.415089
 30
0.0
 10
14.822005
 20
5.420711
 30
0.0
 10
14.820053
 20
5.426168
 30
0.0
 10
14.817575
 20
5.431406
 30
0.0
 10
14.814596
 20
5.436377
 30
0.0
 10
14.811143
 20
5.441032
 30
0.0
 10
14.807251
 20
5.445326
 30
0.0
 10
14.802957
 20
5.449218
 30
0.0
 10
14.798302
 20
5.452671
 30
0.0
 10
14.793331
 20
5.455650
 30
0.0
 10
14.788092
 20
5.458128
 30
0.0
 10
14.782636
 20
5.460081
 30
0.0
 10
14.777014
 20
5.461489
 30
0.0
 10
14.771281
 20
5.462339
 30
0.0
 10
14.765493
 20
5.462623
 30
0.0
 10
14.759705
 20
5.462339
 30
0.0
 10
14.753972
 20
5.461489
 30
0.0
 10
14.748350
 20
5.460081
 30
0.0
 10
14.742894
 20
5.458128
 30
0.0
 10
14.737655
 20
5.455650
 30
0.0
 10
14.732684
 20
5.452671
 30
0.0
 10
14.728029
 20
5.449218
 30
0.0
 10
14.723735
 20
5.445326
 30
0.0
 10
14.719843
 20
5.441032
 30
0.0
 10
14.716390
 20
5.436377
 30
0.0
 10
14.713411
 20
5.431406
 30
0.0
 10
14.710933
 20
5.426168
 30
0.0
 10
14.708981
 20
5.420711
 30
0.0
 10
14.707573
 20
5.415089
 30
0.0
 10
14.706722
 20
5.409357
 30
0.0
  0
LWPOLYLINE
  5
179
100
AcDbEntity
  8
Your_Design
 62
5
100
AcDbPolyline
 90
65
 70
1
 10
14.562982
 20
2.877478
 30
0.0
 10
14.562982
 20
2.877478
 30
0.0
 10
14.563266
 20
2.871690
 30
0.0
 10
14.564116
 20
2.865957
 30
0.0
 10
14.565524
 20
2.860335
 30
0.0
 10
14.567477
 20
2.854879
 30
0.0
 10
14.569955
 20
2.849640
 30
0.0
 10
14.572934
 20
2.844669
 30
0.0
 10
14.576387
 20
2.840014
 30
0.0
 10
14.580278
 20
2.835720
 30
0.0
 10
14.584572
 20
2.831830
 30
0.0
 10
14.589227
 20
2.828377
 30
0.0
 10
14.594198
 20
2.825397
 30
0.0
 10
14.599437
 20
2.822921
 30
0.0
 10
14.604894
 20
2.820968
 30
0.0
 10
14.610515
 20
2.819558
 30
0.0
 10
14.616248
 20
2.818708
 30
0.0
 10
14.622037
 20
2.818432
 30
0.0
 10
14.627825
 20
2.818708
 30
0.0
 10
14.633558
 20
2.819558
 30
0.0
 10
14.639179
 20
2.820968
 30
0.0
 10
14.644636
 20
2.822921
 30
0.0
 10
14.649875
 20
2.825397
 30
0.0
 10
14.654846
 20
2.828377
 30
0.0
 10
14.659501
 20
2.831830
 30
0.0
 10
14.663795
 20
2.835720
 30
0.0
 10
14.667687
 20
2.840014
 30
0.0
 10
14.671139
 20
2.844669
 30
0.0
 10
14.674119
 20
2.849640
 30
0.0
 10
14.676596
 20
2.854879
 30
0.0
 10
14.678549
 20
2.860335
 30
0.0
 10
14.679957
 20
2.865957
 30
0.0
 10
14.680807
 20
2.871690
 30
0.0
 10
14.681092
 20
2.877478
 30
0.0
 10
14.680807
 20
2.883267
 30
0.0
 10
14.679957
 20
2.888999
 30
0.0
 10
14.678549
 20
2.894621
 30
0.0
 10
14.676596
 20
2.900078
 30
0.0
 10
14.674119
 20
2.905317
 30
0.0
 10
14.671139
 20
2.910287
 30
0.0
 10
14.667687
 20
2.914942
 30
0.0
 10
14.663795
 20
2.919236
 30
0.0
 10
14.659501
 20
2.923130
 30
0.0
 10
14.654846
 20
2.926583
 30
0.0
 10
14.649875
 20
2.929563
 30
0.0
 10
14.644636
 20
2.932039
 30
0.0
 10
14.639179
 20
2.933992
 30
0.0
 10
14.633558
 20
2.935402
 30
0.0
 10
14.627825
 20
2.936252
 30
0.0
 10
14.622037
 20
2.936528
 30
0.0
 10
14.616248
 20
2.936252
 30
0.0
 10
14.610515
 20
2.935402
 30
0.0
 10
14.604894
 20
2.933992
 30
0.0
 10
14.599437
 20
2.932039
 30
0.0
 10
14.594198
 20
2.929563
 30
0.0
 10
14.589227
 20
2.926583
 30
0.0
 10
14.584572
 20
2.923130
 30
0.0
 10
14.580278
 20
2.919236
 30
0.0
 10
14.576387
 20
2.914942
 30
0.0
 10
14.572934
 20
2.910287
 30
0.0
 10
14.569955
 20
2.905317
 30
0.0
 10
14.567477
 20
2.900078
 30
0.0
 10
14.565524
 20
2.894621
 30
0.0
 10
14.564116
 20
2.888999
 30
0.0
 10
14.563266
 20
2.883267
 30
0.0
  0
LWPOLYLINE
  5
17a
100
AcDbEntity
  8
Your_Design
 62
5
100
AcDbPolyline
 90
64
 70
1
 10
13.405840
 20
1.337153
 30
0.0
 10
13.406124
 20
1.331365
 30
0.0
 10
13.406974
 20
1.325632
 30
0.0
 10
13.408382
 20
1.320010
 30
0.0
 10
13.410335
 20
1.314554
 30
0.0
 10
13.412813
 20
1.309315
 30
0.0
 10
13.415792
 20
1.304344
 30
0.0
 10
13.419245
 20
1.299689
 30
0.0
 10
13.423137
 20
1.295395
 30
0.0
 10
13.427431
 20
1.291505
 30
0.0
 10
13.432086
 20
1.288052
 30
0.0
 10
13.437057
 20
1.285072
 30
0.0
 10
13.442296
 20
1.282596
 30
0.0
 10
13.447752
 20
1.280643
 30
0.0
 10
13.453374
 20
1.279234
 30
0.0
 10
13.459107
 20
1.278383
 30
0.0
 10
13.464895
 20
1.278108
 30
0.0
 10
13.470683
 20
1.278383
 30
0.0
 10
13.476416
 20
1.279234
 30
0.0
 10
13.482038
 20
1.280643
 30
0.0
 10
13.487494
 20
1.282596
 30
0.0
 10
13.492733
 20
1.285072
 30
0.0
 10
13.497704
 20
1.288052
 30
0.0
 10
13.502359
 20
1.291505
 30
0.0
 10
13.506653
 20
1.295395
 30
0.0
 10
13.510545
 20
1.299689
 30
0.0
 10
13.513998
 20
1.304344
 30
0.0
 10
13.516977
 20
1.309315
 30
0.0
 10
13.519455
 20
1.314554
 30
0.0
 10
13.521408
 20
1.320010
 30
0.0
 10
13.522816
 20
1.325632
 30
0.0
 10
13.523666
 20
1.331365
 30
0.0
 10
13.523950
 20
1.337153
 30
0.0
 10
13.523666
 20
1.342942
 30
0.0
 10
13.522816
 20
1.348674
 30
0.0
 10
13.521408
 20
1.354296
 30
0.0
 10
13.519455
 20
1.359753
 30
0.0
 10
13.516977
 20
1.364992
 30
0.0
 10
13.513998
 20
1.369963
 30
0.0
 10
13.510545
 20
1.374617
 30
0.0
 10
13.506653
 20
1.378911
 30
0.0
 10
13.502359
 20
1.382805
 30
0.0
 10
13.497704
 20
1.386258
 30
0.0
 10
13.492733
 20
1.389238
 30
0.0
 10
13.487494
 20
1.391715
 30
0.0
 10
13.482038
 20
1.393667
 30
0.0
 10
13.476416
 20
1.395077
 30
0.0
 10
13.470683
 20
1.395927
 30
0.0
 10
13.464895
 20
1.396203
 30
0.0
 10
13.459107
 20
1.395927
 30
0.0
 10
13.453374
 20
1.395077
 30
0.0
 10
13.447752
 20
1.393667
 30
0.0
 10
13.442296
 20
1.391715
 30
0.0
 10
13.437057
 20
1.389238
 30
0.0
 10
13.432086
 20
1.386258
 30
0.0
 10
13.427431
 20
1.382805
 30
0.0
 10
13.423137
 20
1.378911
 30
0.0
 10
13.419245
 20
1.374617
 30
0.0
 10
13.415792
 20
1.369963
 30
0.0
 10
13.412813
 20
1.364992
 30
0.0
 10
13.410335
 20
1.359753
 30
0.0
 10
13.408382
 20
1.354296
 30
0.0
 10
13.406974
 20
1.348674
 30
0.0
 10
13.406124
 20
1.342942
 30
0.0
  0
LWPOLYLINE
  5
17b
100
AcDbEntity
  8
Your_Design
 62
5
100
AcDbPolyline
 90
64
 70
1
 10
10.866832
 20
0.891647
 30
0.0
 10
10.867107
 20
0.885858
 30
0.0
 10
10.867958
 20
0.880126
 30
0.0
 10
10.869367
 20
0.874504
 30
0.0
 10
10.871320
 20
0.869047
 30
0.0
 10
10.873796
 20
0.863808
 30
0.0
 10
10.876777
 20
0.858837
 30
0.0
 10
10.880229
 20
0.854182
 30
0.0
 10
10.884123
 20
0.849888
 30
0.0
 10
10.888417
 20
0.845999
 30
0.0
 10
10.893072
 20
0.842546
 30
0.0
 10
10.898043
 20
0.839565
 30
0.0
 10
10.903282
 20
0.837089
 30
0.0
 10
10.908738
 20
0.835136
 30
0.0
 10
10.914360
 20
0.833727
 30
0.0
 10
10.920093
 20
0.832876
 30
0.0
 10
10.925881
 20
0.832601
 30
0.0
 10
10.931669
 20
0.832876
 30
0.0
 10
10.937402
 20
0.833727
 30
0.0
 10
10.943024
 20
0.835136
 30
0.0
 10
10.948480
 20
0.837089
 30
0.0
 10
10.953719
 20
0.839565
 30
0.0
 10
10.958690
 20
0.842546
 30
0.0
 10
10.963345
 20
0.845999
 30
0.0
 10
10.967640
 20
0.849888
 30
0.0
 10
10.971529
 20
0.854182
 30
0.0
 10
10.974982
 20
0.858837
 30
0.0
 10
10.977962
 20
0.863808
 30
0.0
 10
10.980439
 20
0.869047
 30
0.0
 10
10.982392
 20
0.874504
 30
0.0
 10
10.983801
 20
0.880126
 30
0.0
 10
10.984651
 20
0.885858
 30
0.0
 10
10.984927
 20
0.891647
 30
0.0
 10
10.984651
 20
0.897435
 30
0.0
 10
10.983801
 20
0.903168
 30
0.0
 10
10.982392
 20
0.908789
 30
0.0
 10
10.980439
 20
0.914246
 30
0.0
 10
10.977962
 20
0.919485
 30
0.0
 10
10.974982
 20
0.924456
 30
0.0
 10
10.971529
 20
0.929111
 30
0.0
 10
10.967640
 20
0.933405
 30
0.0
 10
10.963345
 20
0.937299
 30
0.0
 10
10.958690
 20
0.940751
 30
0.0
 10
10.953719
 20
0.943732
 30
0.0
 10
10.948480
 20
0.946208
 30
0.0
 10
10.943024
 20
0.948161
 30
0.0
 10
10.937402
 20
0.949570
 30
0.0
 10
10.931669
 20
0.950421
 30
0.0
 10
10.925881
 20
0.950696
 30
0.0
 10
10.920093
 20
0.950421
 30
0.0
 10
10.914360
 20
0.949570
 30
0.0
 10
10.908738
 20
0.948161
 30
0.0
 10
10.903282
 20
0.946208
 30
0.0
 10
10.898043
 20
0.943732
 30
0.0
 10
10.893072
 20
0.940751
 30
0.0
 10
10.888417
 20
0.937299
 30
0.0
 10
10.884123
 20
0.933405
 30
0.0
 10
10.880229
 20
0.929111
 30
0.0
 10
10.876777
 20
0.924456
 30
0.0
 10
10.873796
 20
0.919485
 30
0.0
 10
10.871320
 20
0.914246
 30
0.0
 10
10.869367
 20
0.908789
 30
0.0
 10
10.867958
 20
0.903168
 30
0.0
 10
10.867107
 20
0.897435
 30
0.0
  0
LWPOLYLINE
  5
17c
100
AcDbEntity
  8
Your_Design
 62
5
100
AcDbPolyline
 90
64
 70
1
 10
8.327823
 20
0.446140
 30
0.0
 10
8.328098
 20
0.440352
 30
0.0
 10
8.328949
 20
0.434619
 30
0.0
 10
8.330358
 20
0.428997
 30
0.0
 10
8.332311
 20
0.423541
 30
0.0
 10
8.334787
 20
0.418302
 30
0.0
 10
8.337768
 20
0.413331
 30
0.0
 10
8.341220
 20
0.408676
 30
0.0
 10
8.345110
 20
0.404382
 30
0.0
 10
8.349404
 20
0.400488
 30
0.0
 10
8.354059
 20
0.397035
 30
0.0
 10
8.359030
 20
0.394055
 30
0.0
 10
8.364269
 20
0.391578
 30
0.0
 10
8.369726
 20
0.389626
 30
0.0
 10
8.375347
 20
0.388216
 30
0.0
 10
8.381080
 20
0.387366
 30
0.0
 10
8.386868
 20
0.387090
 30
0.0
 10
8.392657
 20
0.387366
 30
0.0
 10
8.398390
 20
0.388216
 30
0.0
 10
8.404011
 20
0.389626
 30
0.0
 10
8.409468
 20
0.391578
 30
0.0
 10
8.414707
 20
0.394055
 30
0.0
 10
8.419678
 20
0.397035
 30
0.0
 10
8.424333
 20
0.400488
 30
0.0
 10
8.428627
 20
0.404382
 30
0.0
 10
8.432520
 20
0.408676
 30
0.0
 10
8.435973
 20
0.413331
 30
0.0
 10
8.438953
 20
0.418302
 30
0.0
 10
8.441430
 20
0.423541
 30
0.0
 10
8.443383
 20
0.428997
 30
0.0
 10
8.444792
 20
0.434619
 30
0.0
 10
8.445642
 20
0.440352
 30
0.0
 10
8.445918
 20
0.446140
 30
0.0
 10
8.445642
 20
0.451928
 30
0.0
 10
8.444792
 20
0.457661
 30
0.0
 10
8.443383
 20
0.463283
 30
0.0
 10
8.441430
 20
0.468739
 30
0.0
 10
8.438953
 20
0.473978
 30
0.0
 10
8.435973
 20
0.478949
 30
0.0
 10
8.432520
 20
0.483604
 30
0.0
 10
8.428627
 20
0.487898
 30
0.0
 10
8.424333
 20
0.491792
 30
0.0
 10
8.419678
 20
0.495245
 30
0.0
 10
8.414707
 20
0.498225
 30
0.0
 10
8.409468
 20
0.500701
 30
0.0
 10
8.404011
 20
0.502654
 30
0.0
 10
8.398390
 20
0.504063
 30
0.0
 10
8.392657
 20
0.504914
 30
0.0
 10
8.386868
 20
0.505189
 30
0.0
 10
8.381080
 20
0.504914
 30
0.0
 10
8.375347
 20
0.504063
 30
0.0
 10
8.369726
 20
0.502654
 30
0.0
 10
8.364269
 20
0.500701
 30
0.0
 10
8.359030
 20
0.498225
 30
0.0
 10
8.354059
 20
0.495245
 30
0.0
 10
8.349404
 20
0.491792
 30
0.0
 10
8.345110
 20
0.487898
 30
0.0
 10
8.341220
 20
0.483604
 30
0.0
 10
8.337768
 20
0.478949
 30
0.0
 10
8.334787
 20
0.473978
 30
0.0
 10
8.332311
 20
0.468739
 30
0.0
 10
8.330358
 20
0.463283
 30
0.0
 10
8.328949
 20
0.457661
 30
0.0
 10
8.328098
 20
0.451928
 30
0.0
  0
LWPOLYLINE
  5
17d
100
AcDbEntity
  8
Your_Design
 62
5
100
AcDbPolyline
 90
65
 70
1
 10
7.752546
 20
2.593104
 30
0.0
 10
7.752546
 20
2.593104
 30
0.0
 10
7.752821
 20
2.587316
 30
0.0
 10
7.753672
 20
2.581584
 30
0.0
 10
7.755081
 20
2.575961
 30
0.0
 10
7.757034
 20
2.570505
 30
0.0
 10
7.759510
 20
2.565266
 30
0.0
 10
7.762490
 20
2.560295
 30
0.0
 10
7.765943
 20
2.555640
 30
0.0
 10
7.769837
 20
2.551346
 30
0.0
 10
7.774131
 20
2.547452
 30
0.0
 10
7.778786
 20
2.544000
 30
0.0
 10
7.783757
 20
2.541019
 30
0.0
 10
7.788996
 20
2.538543
 30
0.0
 10
7.794452
 20
2.536590
 30
0.0
 10
7.800074
 20
2.535181
 30
0.0
 10
7.805807
 20
2.534330
 30
0.0
 10
7.811595
 20
2.534055
 30
0.0
 10
7.817383
 20
2.534330
 30
0.0
 10
7.823116
 20
2.535181
 30
0.0
 10
7.828738
 20
2.536590
 30
0.0
 10
7.834194
 20
2.538543
 30
0.0
 10
7.839433
 20
2.541019
 30
0.0
 10
7.844404
 20
2.544000
 30
0.0
 10
7.849059
 20
2.547452
 30
0.0
 10
7.853353
 20
2.551346
 30
0.0
 10
7.857243
 20
2.555640
 30
0.0
 10
7.860696
 20
2.560295
 30
0.0
 10
7.863676
 20
2.565266
 30
0.0
 10
7.866153
 20
2.570505
 30
0.0
 10
7.868105
 20
2.575961
 30
0.0
 10
7.869515
 20
2.581584
 30
0.0
 10
7.870365
 20
2.587316
 30
0.0
 10
7.870641
 20
2.593104
 30
0.0
 10
7.870365
 20
2.598893
 30
0.0
 10
7.869515
 20
2.604626
 30
0.0
 10
7.868105
 20
2.610247
 30
0.0
 10
7.866153
 20
2.615704
 30
0.0
 10
7.863676
 20
2.620943
 30
0.0
 10
7.860696
 20
2.625914
 30
0.0
 10
7.857243
 20
2.630569
 30
0.0
 10
7.853353
 20
2.634863
 30
0.0
 10
7.849059
 20
2.638756
 30
0.0
 10
7.844404
 20
2.642209
 30
0.0
 10
7.839433
 20
2.645189
 30
0.0
 10
7.834194
 20
2.647666
 30
0.0
 10
7.828738
 20
2.649619
 30
0.0
 10
7.823116
 20
2.651028
 30
0.0
 10
7.817383
 20
2.651878
 30
0.0
 10
7.811595
 20
2.652154
 30
0.0
 10
7.805807
 20
2.651878
 30
0.0
 10
7.800074
 20
2.651028
 30
0.0
 10
7.794452
 20
2.649619
 30
0.0
 10
7.788996
 20
2.647666
 30
0.0
 10
7.783757
 20
2.645189
 30
0.0
 10
7.778786
 20
2.642209
 30
0.0
 10
7.774131
 20
2.638756
 30
0.0
 10
7.769837
 20
2.634863
 30
0.0
 10
7.765943
 20
2.630569
 30
0.0
 10
7.762490
 20
2.625914
 30
0.0
 10
7.759510
 20
2.620943
 30
0.0
 10
7.757034
 20
2.615704
 30
0.0
 10
7.755081
 20
2.610247
 30
0.0
 10
7.753672
 20
2.604626
 30
0.0
 10
7.752821
 20
2.598893
 30
0.0
  0
LWPOLYLINE
  5
17e
100
AcDbEntity
  8
Your_Design
 62
5
100
AcDbPolyline
 90
65
 70
1
 10
8.169313
 20
5.084747
 30
0.0
 10
8.169313
 20
5.084747
 30
0.0
 10
8.169589
 20
5.078959
 30
0.0
 10
8.170439
 20
5.073226
 30
0.0
 10
8.171849
 20
5.067604
 30
0.0
 10
8.173801
 20
5.062148
 30
0.0
 10
8.176278
 20
5.056909
 30
0.0
 10
8.179258
 20
5.051938
 30
0.0
 10
8.182711
 20
5.047283
 30
0.0
 10
8.186601
 20
5.042989
 30
0.0
 10
8.190895
 20
5.039097
 30
0.0
 10
8.195550
 20
5.035644
 30
0.0
 10
8.200521
 20
5.032665
 30
0.0
 10
8.205760
 20
5.030187
 30
0.0
 10
8.211216
 20
5.028234
 30
0.0
 10
8.216838
 20
5.026826
 30
0.0
 10
8.222571
 20
5.025976
 30
0.0
 10
8.228359
 20
5.025692
 30
0.0
 10
8.234147
 20
5.025976
 30
0.0
 10
8.239880
 20
5.026826
 30
0.0
 10
8.245502
 20
5.028234
 30
0.0
 10
8.250959
 20
5.030187
 30
0.0
 10
8.256197
 20
5.032665
 30
0.0
 10
8.261168
 20
5.035644
 30
0.0
 10
8.265823
 20
5.039097
 30
0.0
 10
8.270117
 20
5.042989
 30
0.0
 10
8.274011
 20
5.047283
 30
0.0
 10
8.277464
 20
5.051938
 30
0.0
 10
8.280444
 20
5.056909
 30
0.0
 10
8.282920
 20
5.062148
 30
0.0
 10
8.284873
 20
5.067604
 30
0.0
 10
8.286283
 20
5.073226
 30
0.0
 10
8.287133
 20
5.078959
 30
0.0
 10
8.287409
 20
5.084747
 30
0.0
 10
8.287133
 20
5.090535
 30
0.0
 10
8.286283
 20
5.096268
 30
0.0
 10
8.284873
 20
5.101890
 30
0.0
 10
8.282920
 20
5.107346
 30
0.0
 10
8.280444
 20
5.112585
 30
0.0
 10
8.277464
 20
5.117556
 30
0.0
 10
8.274011
 20
5.122211
 30
0.0
 10
8.270117
 20
5.126505
 30
0.0
 10
8.265823
 20
5.130397
 30
0.0
 10
8.261168
 20
5.133850
 30
0.0
 10
8.256197
 20
5.136829
 30
0.0
 10
8.250959
 20
5.139307
 30
0.0
 10
8.245502
 20
5.141260
 30
0.0
 10
8.239880
 20
5.142668
 30
0.0
 10
8.234147
 20
5.143518
 30
0.0
 10
8.228359
 20
5.143802
 30
0.0
 10
8.222571
 20
5.143518
 30
0.0
 10
8.216838
 20
5.142668
 30
0.0
 10
8.211216
 20
5.141260
 30
0.0
 10
8.205760
 20
5.139307
 30
0.0
 10
8.200521
 20
5.136829
 30
0.0
 10
8.195550
 20
5.133850
 30
0.0
 10
8.190895
 20
5.130397
 30
0.0
 10
8.186601
 20
5.126505
 30
0.0
 10
8.182711
 20
5.122211
 30
0.0
 10
8.179258
 20
5.117556
 30
0.0
 10
8.176278
 20
5.112585
 30
0.0
 10
8.173801
 20
5.107346
 30
0.0
 10
8.171849
 20
5.101890
 30
0.0
 10
8.170439
 20
5.096268
 30
0.0
 10
8.169589
 20
5.090535
 30
0.0
  0
LWPOLYLINE
  5
17f
100
AcDbEntity
  8
Your_Design
 62
5
100
AcDbPolyline
 90
65
 70
1
 10
8.586081
 20
7.576390
 30
0.0
 10
8.586081
 20
7.576390
 30
0.0
 10
8.586357
 20
7.570601
 30
0.0
 10
8.587207
 20
7.564869
 30
0.0
 10
8.588617
 20
7.559247
 30
0.0
 10
8.590570
 20
7.553790
 30
0.0
 10
8.593046
 20
7.548551
 30
0.0
 10
8.596026
 20
7.543580
 30
0.0
 10
8.599479
 20
7.538926
 30
0.0
 10
8.603373
 20
7.534631
 30
0.0
 10
8.607667
 20
7.530739
 30
0.0
 10
8.612321
 20
7.527287
 30
0.0
 10
8.617292
 20
7.524308
 30
0.0
 10
8.622531
 20
7.521830
 30
0.0
 10
8.627988
 20
7.519877
 30
0.0
 10
8.633610
 20
7.518469
 30
0.0
 10
8.639342
 20
7.517619
 30
0.0
 10
8.645136
 20
7.517335
 30
0.0
 10
8.650925
 20
7.517619
 30
0.0
 10
8.656657
 20
7.518469
 30
0.0
 10
8.662279
 20
7.519877
 30
0.0
 10
8.667736
 20
7.521830
 30
0.0
 10
8.672975
 20
7.524308
 30
0.0
 10
8.677946
 20
7.527287
 30
0.0
 10
8.682601
 20
7.530739
 30
0.0
 10
8.686895
 20
7.534631
 30
0.0
 10
8.690784
 20
7.538925
 30
0.0
 10
8.694237
 20
7.543580
 30
0.0
 10
8.697218
 20
7.548551
 30
0.0
 10
8.699694
 20
7.553790
 30
0.0
 10
8.701647
 20
7.559247
 30
0.0
 10
8.703056
 20
7.564869
 30
0.0
 10
8.703907
 20
7.570601
 30
0.0
 10
8.704192
 20
7.576390
 30
0.0
 10
8.703916
 20
7.582178
 30
0.0
 10
8.703066
 20
7.587911
 30
0.0
 10
8.701656
 20
7.593532
 30
0.0
 10
8.699703
 20
7.598989
 30
0.0
 10
8.697227
 20
7.604228
 30
0.0
 10
8.694247
 20
7.609199
 30
0.0
 10
8.690794
 20
7.613854
 30
0.0
 10
8.686904
 20
7.618148
 30
0.0
 10
8.682610
 20
7.622040
 30
0.0
 10
8.677955
 20
7.625492
 30
0.0
 10
8.672984
 20
7.628472
 30
0.0
 10
8.667745
 20
7.630949
 30
0.0
 10
8.662288
 20
7.632902
 30
0.0
 10
8.656667
 20
7.634310
 30
0.0
 10
8.650934
 20
7.635160
 30
0.0
 10
8.645136
 20
7.635445
 30
0.0
 10
8.639348
 20
7.635161
 30
0.0
 10
8.633615
 20
7.634310
 30
0.0
 10
8.627994
 20
7.632902
 30
0.0
 10
8.622537
 20
7.630950
 30
0.0
 10
8.617298
 20
7.628472
 30
0.0
 10
8.612327
 20
7.625492
 30
0.0
 10
8.607672
 20
7.622040
 30
0.0
 10
8.603378
 20
7.618148
 30
0.0
 10
8.599484
 20
7.613854
 30
0.0
 10
8.596032
 20
7.609199
 30
0.0
 10
8.593051
 20
7.604228
 30
0.0
 10
8.590575
 20
7.598989
 30
0.0
 10
8.588622
 20
7.593533
 30
0.0
 10
8.587213
 20
7.587911
 30
0.0
 10
8.586362
 20
7.582178
 30
0.0
  0
ENDSEC
  0
SECTION
  2
OBJECTS
  0
DICTIONARY
  5
C
330
0
100
AcDbDictionary
  3
ACAD_GROUP
350
D
  3
ACAD_MLINESTYLE
350
17
  0
DICTIONARY
  5
D
330
C
100
AcDbDictionary
  0
DICTIONARY
  5
1A
330
C
100
AcDbDictionary
  0
DICTIONARY
  5
17
330
C
100
AcDbDictionary
  3
STANDARD
350
18
  0
DICTIONARY
  5
19
330
C
100
AcDbDictionary
  0
ENDSEC
  0
EOF
