  0
SECTION
  2
HEADER
  9
$ACADVER
  1
AC1014
  9
$HANDSEED
  5
FFFF
  9
$MEASUREMENT
 70
     1
  0
ENDSEC
  0
SECTION
  2
TABLES
  0
TABLE
  2
VPORT
  5
8
330
0
100
AcDbSymbolTable
 70
     4
  0
VPORT
  5
2E
330
8
100
AcDbSymbolTableRecord
100
AcDbViewportTableRecord
  2
*ACTIVE
 70
     0
 10
0.0
 20
0.0
 11
1.0
 21
1.0
 12
210.0
 22
148.5
 13
0.0
 23
0.0
 14
10.0
 24
10.0
 15
10.0
 25
10.0
 16
0.0
 26
0.0
 36
1.0
 17
0.0
 27
0.0
 37
0.0
 40
341.0
 41
1.24
 42
50.0
 43
0.0
 44
0.0
 50
0.0
 51
0.0
 71
     0
 72
   100
 73
     1
 74
     3
 75
     0
 76
     0
 77
     0
 78
     0
  0
ENDTAB
  0
TABLE
  2
LTYPE
  5
5
330
0
100
AcDbSymbolTable
 70
     1
  0
LTYPE
  5
14
330
5
100
AcDbSymbolTableRecord
100
AcDbLinetypeTableRecord
  2
BYBLOCK
 70
     0
  3

 72
    65
 73
     0
 40
0.0
  0
LTYPE
  5
15
330
5
100
AcDbSymbolTableRecord
100
AcDbLinetypeTableRecord
  2
BYLAYER
 70
     0
  3

 72
    65
 73
     0
 40
0.0
  0
LTYPE
  5
16
330
5
100
AcDbSymbolTableRecord
100
AcDbLinetypeTableRecord
  2
CONTINUOUS
 70
     0
  3
Solid line
 72
    65
 73
     0
 40
0.0
  0
ENDTAB
  0
TABLE
  2
LAYER
  5
2
100
AcDbSymbolTable
 70
1
  0
LAYER
  5
50
100
AcDbSymbolTableRecord
100
AcDbLayerTableRecord
  2
0
 70
0
  6
CONTINUOUS
  0
ENDTAB
  0
TABLE
  2
STYLE
  5
3
330
0
100
AcDbSymbolTable
 70
     1
  0
STYLE
  5
11
330
3
100
AcDbSymbolTableRecord
100
AcDbTextStyleTableRecord
  2
STANDARD
 70
     0
 40
0.0
 41
1.0
 50
0.0
 71
     0
 42
2.5
  3
txt
  4

  0
ENDTAB
  0
TABLE
  2
VIEW
  5
6
330
0
100
AcDbSymbolTable
 70
     0
  0
ENDTAB
  0
TABLE
  2
UCS
  5
7
330
0
100
AcDbSymbolTable
 70
     0
  0
ENDTAB
  0
TABLE
  2
APPID
  5
9
330
0
100
AcDbSymbolTable
 70
     2
  0
APPID
  5
12
330
9
100
AcDbSymbolTableRecord
100
AcDbRegAppTableRecord
  2
ACAD
 70
     0
  0
ENDTAB
  0
TABLE
  2
DIMSTYLE
  5
A
330
0
100
AcDbSymbolTable
 70
     1
  0
DIMSTYLE
105
27
330
A
100
AcDbSymbolTableRecord
100
AcDbDimStyleTableRecord
  2
ISO-25
 70
     0
  3

  4

  5

  6

  7

 40
1.0
 41
2.5
 42
0.625
 43
3.75
 44
1.25
 45
0.0
 46
0.0
 47
0.0
 48
0.0
140
2.5
141
2.5
142
0.0
143
0.03937007874016
144
1.0
145
0.0
146
1.0
147
0.625
 71
     0
 72
     0
 73
     0
 74
     0
 75
     0
 76
     0
 77
     1
 78
     8
170
     0
171
     3
172
     1
173
     0
174
     0
175
     0
176
     0
177
     0
178
     0
270
     2
271
     2
272
     2
273
     2
274
     3
340
11
275
     0
280
     0
281
     0
282
     0
283
     0
284
     8
285
     0
286
     0
287
     3
288
     0
  0
ENDTAB
  0
TABLE
  2
BLOCK_RECORD
  5
1
330
0
100
AcDbSymbolTable
 70
     1
  0
BLOCK_RECORD
  5
1F
330
1
100
AcDbSymbolTableRecord
100
AcDbBlockTableRecord
  2
*MODEL_SPACE
  0
BLOCK_RECORD
  5
1B
330
1
100
AcDbSymbolTableRecord
100
AcDbBlockTableRecord
  2
*PAPER_SPACE
  0
ENDTAB
  0
ENDSEC
  0
SECTION
  2
BLOCKS
  0
BLOCK
  5
20
330
1F
100
AcDbEntity
  8
0
100
AcDbBlockBegin
  2
*MODEL_SPACE
 70
     0
 10
0.0
 20
0.0
 30
0.0
  3
*MODEL_SPACE
  1

  0
ENDBLK
  5
21
330
1F
100
AcDbEntity
  8
0
100
AcDbBlockEnd
  0
BLOCK
  5
1C
330
1B
100
AcDbEntity
 67
     1
  8
0
100
AcDbBlockBegin
  2
*PAPER_SPACE
  1

  0
ENDBLK
  5
1D
330
1B
100
AcDbEntity
 67
     1
  8
0
100
AcDbBlockEnd
  0
ENDSEC
  0
SECTION
  2
ENTITIES
  0
LWPOLYLINE
  5
100
100
AcDbEntity
  8
0
 62
7
100
AcDbPolyline
 90
77
 70
1
 10
1.602320
 20
7.668689
 30
0.0
 10
1.601967
 20
7.668687
 30
0.0
 10
0.830484
 20
7.658233
 30
0.0
 10
0.827941
 20
7.658074
 30
0.0
 10
0.825426
 20
7.657667
 30
0.0
 10
0.153029
 20
7.514849
 30
0.0
 10
0.150568
 20
7.514199
 30
0.0
 10
0.148183
 20
7.513312
 30
0.0
 10
0.145895
 20
7.512197
 30
0.0
 10
0.143727
 20
7.510863
 30
0.0
 10
0.141700
 20
7.509324
 30
0.0
 10
0.139833
 20
7.507595
 30
0.0
 10
0.138143
 20
7.505692
 30
0.0
 10
0.136647
 20
7.503632
 30
0.0
 10
0.135359
 20
7.501437
 30
0.0
 10
0.134292
 20
7.499127
 30
0.0
 10
0.133456
 20
7.496723
 30
0.0
 10
0.132858
 20
7.494249
 30
0.0
 10
0.052534
 20
7.072629
 30
0.0
 10
0.052160
 20
7.069862
 30
0.0
 10
0.052083
 20
7.067071
 30
0.0
 10
0.057311
 20
6.868335
 30
0.0
 10
0.057365
 20
6.867210
 30
0.0
 10
0.090093
 20
6.397584
 30
0.0
 10
0.090386
 20
6.395107
 30
0.0
 10
0.090913
 20
6.392670
 30
0.0
 10
0.091672
 20
6.390295
 30
0.0
 10
0.092654
 20
6.388003
 30
0.0
 10
0.093851
 20
6.385816
 30
0.0
 10
0.095251
 20
6.383753
 30
0.0
 10
0.401411
 20
5.976208
 30
0.0
 10
0.402973
 20
5.974321
 30
0.0
 10
0.404706
 20
5.972589
 30
0.0
 10
0.406593
 20
5.971027
 30
0.0
 10
0.408619
 20
5.969650
 30
0.0
 10
0.410765
 20
5.968469
 30
0.0
 10
0.413012
 20
5.967495
 30
0.0
 10
0.415342
 20
5.966736
 30
0.0
 10
0.417732
 20
5.966200
 30
0.0
 10
1.761291
 20
5.730453
 30
0.0
 10
1.763844
 20
5.730134
 30
0.0
 10
1.766416
 20
5.730068
 30
0.0
 10
1.768982
 20
5.730257
 30
0.0
 10
1.771517
 20
5.730698
 30
0.0
 10
1.773996
 20
5.731387
 30
0.0
 10
1.776395
 20
5.732318
 30
0.0
 10
1.778691
 20
5.733480
 30
0.0
 10
1.780860
 20
5.734864
 30
0.0
 10
1.782883
 20
5.736454
 30
0.0
 10
1.784738
 20
5.738237
 30
0.0
 10
1.786409
 20
5.740194
 30
0.0
 10
1.787878
 20
5.742306
 30
0.0
 10
1.789132
 20
5.744553
 30
0.0
 10
1.790158
 20
5.746913
 30
0.0
 10
1.790946
 20
5.749362
 30
0.0
 10
1.864012
 20
6.022049
 30
0.0
 10
1.943154
 20
6.317413
 30
0.0
 10
1.943730
 20
6.320135
 30
0.0
 10
1.944012
 20
6.322903
 30
0.0
 10
1.943997
 20
6.325685
 30
0.0
 10
1.943685
 20
6.328450
 30
0.0
 10
1.723145
 20
7.646944
 30
0.0
 10
1.722586
 20
7.649496
 30
0.0
 10
1.721773
 20
7.651979
 30
0.0
 10
1.720716
 20
7.654368
 30
0.0
 10
1.719425
 20
7.656639
 30
0.0
 10
1.717912
 20
7.658769
 30
0.0
 10
1.716194
 20
7.660737
 30
0.0
 10
1.714287
 20
7.662523
 30
0.0
 10
1.712211
 20
7.664109
 30
0.0
 10
1.709987
 20
7.665479
 30
0.0
 10
1.707636
 20
7.666619
 30
0.0
 10
1.705183
 20
7.667518
 30
0.0
 10
1.702653
 20
7.668167
 30
0.0
 10
1.700070
 20
7.668558
 30
0.0
 10
1.697460
 20
7.668689
 30
0.0
 10
1.602320
 20
7.668689
 30
0.0
  0
LWPOLYLINE
  5
101
100
AcDbEntity
  8
0
 62
7
100
AcDbPolyline
 90
5
 70
1
 10
1.814476
 20
6.260778
 30
0.0
 10
1.776732
 20
6.119914
 30
0.0
 10
1.635867
 20
6.157658
 30
0.0
 10
1.673612
 20
6.298523
 30
0.0
 10
1.814476
 20
6.260778
 30
0.0
  0
LWPOLYLINE
  5
102
100
AcDbEntity
  8
0
 62
7
100
AcDbPolyline
 90
5
 70
1
 10
1.750277
 20
6.021183
 30
0.0
 10
1.712532
 20
5.880319
 30
0.0
 10
1.571668
 20
5.918063
 30
0.0
 10
1.609413
 20
6.058928
 30
0.0
 10
1.750277
 20
6.021183
 30
0.0
  0
LWPOLYLINE
  5
103
100
AcDbEntity
  8
0
 62
7
100
AcDbPolyline
 90
5
 70
1
 10
1.629220
 20
6.336097
 30
0.0
 10
1.591476
 20
6.195233
 30
0.0
 10
1.450611
 20
6.232977
 30
0.0
 10
1.488356
 20
6.373841
 30
0.0
 10
1.629220
 20
6.336097
 30
0.0
  0
LWPOLYLINE
  5
104
100
AcDbEntity
  8
0
 62
7
100
AcDbPolyline
 90
5
 70
1
 10
1.571441
 20
6.120462
 30
0.0
 10
1.533696
 20
5.979597
 30
0.0
 10
1.392832
 20
6.017342
 30
0.0
 10
1.430577
 20
6.158206
 30
0.0
 10
1.571441
 20
6.120462
 30
0.0
  0
LWPOLYLINE
  5
105
100
AcDbEntity
  8
0
 62
7
100
AcDbPolyline
 90
5
 70
1
 10
1.490024
 20
7.417831
 30
0.0
 10
1.481757
 20
7.272233
 30
0.0
 10
1.336158
 20
7.280500
 30
0.0
 10
1.344426
 20
7.426099
 30
0.0
 10
1.490024
 20
7.417831
 30
0.0
  0
LWPOLYLINE
  5
106
100
AcDbEntity
  8
0
 62
7
100
AcDbPolyline
 90
5
 70
1
 10
1.478774
 20
7.219713
 30
0.0
 10
1.470507
 20
7.074114
 30
0.0
 10
1.324908
 20
7.082382
 30
0.0
 10
1.333176
 20
7.227981
 30
0.0
 10
1.478774
 20
7.219713
 30
0.0
  0
LWPOLYLINE
  5
107
100
AcDbEntity
  8
0
 62
7
100
AcDbPolyline
 90
5
 70
1
 10
1.467524
 20
7.021595
 30
0.0
 10
1.459257
 20
6.875996
 30
0.0
 10
1.313658
 20
6.884264
 30
0.0
 10
1.321926
 20
7.029862
 30
0.0
 10
1.467524
 20
7.021595
 30
0.0
  0
LWPOLYLINE
  5
108
100
AcDbEntity
  8
0
 62
7
100
AcDbPolyline
 90
5
 70
1
 10
1.456274
 20
6.823476
 30
0.0
 10
1.448007
 20
6.677877
 30
0.0
 10
1.302408
 20
6.686145
 30
0.0
 10
1.310676
 20
6.831744
 30
0.0
 10
1.456274
 20
6.823476
 30
0.0
  0
LWPOLYLINE
  5
109
100
AcDbEntity
  8
0
 62
7
100
AcDbPolyline
 90
5
 70
1
 10
1.445025
 20
6.625358
 30
0.0
 10
1.436757
 20
6.479759
 30
0.0
 10
1.291158
 20
6.488027
 30
0.0
 10
1.299426
 20
6.633626
 30
0.0
 10
1.445025
 20
6.625358
 30
0.0
  0
LWPOLYLINE
  5
10a
100
AcDbEntity
  8
0
 62
7
100
AcDbPolyline
 90
5
 70
1
 10
1.437544
 20
6.387456
 30
0.0
 10
1.399800
 20
6.246592
 30
0.0
 10
1.258936
 20
6.284337
 30
0.0
 10
1.296680
 20
6.425201
 30
0.0
 10
1.437544
 20
6.387456
 30
0.0
  0
LWPOLYLINE
  5
10b
100
AcDbEntity
  8
0
 62
7
100
AcDbPolyline
 90
5
 70
1
 10
1.379765
 20
6.171821
 30
0.0
 10
1.342020
 20
6.030957
 30
0.0
 10
1.201156
 20
6.068701
 30
0.0
 10
1.238901
 20
6.209565
 30
0.0
 10
1.379765
 20
6.171821
 30
0.0
  0
LWPOLYLINE
  5
10c
100
AcDbEntity
  8
0
 62
7
100
AcDbPolyline
 90
5
 70
1
 10
1.291906
 20
7.429081
 30
0.0
 10
1.283638
 20
7.283483
 30
0.0
 10
1.138040
 20
7.291750
 30
0.0
 10
1.146307
 20
7.437349
 30
0.0
 10
1.291906
 20
7.429081
 30
0.0
  0
LWPOLYLINE
  5
10d
100
AcDbEntity
  8
0
 62
7
100
AcDbPolyline
 90
5
 70
1
 10
1.280656
 20
7.230963
 30
0.0
 10
1.272388
 20
7.085364
 30
0.0
 10
1.126790
 20
7.093632
 30
0.0
 10
1.135057
 20
7.239231
 30
0.0
 10
1.280656
 20
7.230963
 30
0.0
  0
LWPOLYLINE
  5
10e
100
AcDbEntity
  8
0
 62
7
100
AcDbPolyline
 90
5
 70
1
 10
1.269406
 20
7.032845
 30
0.0
 10
1.261138
 20
6.887246
 30
0.0
 10
1.115540
 20
6.895514
 30
0.0
 10
1.123807
 20
7.041112
 30
0.0
 10
1.269406
 20
7.032845
 30
0.0
  0
LWPOLYLINE
  5
10f
100
AcDbEntity
  8
0
 62
7
100
AcDbPolyline
 90
5
 70
1
 10
1.258156
 20
6.834726
 30
0.0
 10
1.249888
 20
6.689127
 30
0.0
 10
1.104290
 20
6.697395
 30
0.0
 10
1.112557
 20
6.842994
 30
0.0
 10
1.258156
 20
6.834726
 30
0.0
  0
LWPOLYLINE
  5
110
100
AcDbEntity
  8
0
 62
7
100
AcDbPolyline
 90
5
 70
1
 10
1.246906
 20
6.636608
 30
0.0
 10
1.238638
 20
6.491009
 30
0.0
 10
1.093040
 20
6.499277
 30
0.0
 10
1.101307
 20
6.644876
 30
0.0
 10
1.246906
 20
6.636608
 30
0.0
  0
LWPOLYLINE
  5
111
100
AcDbEntity
  8
0
 62
7
100
AcDbPolyline
 90
5
 70
1
 10
1.037132
 20
7.350200
 30
0.0
 10
1.037132
 20
7.204367
 30
0.0
 10
0.891298
 20
7.204367
 30
0.0
 10
0.891298
 20
7.350200
 30
0.0
 10
1.037132
 20
7.350200
 30
0.0
  0
LWPOLYLINE
  5
112
100
AcDbEntity
  8
0
 62
7
100
AcDbPolyline
 90
5
 70
1
 10
1.037132
 20
6.219106
 30
0.0
 10
1.037132
 20
6.073273
 30
0.0
 10
0.891298
 20
6.073273
 30
0.0
 10
0.891298
 20
6.219106
 30
0.0
 10
1.037132
 20
6.219106
 30
0.0
  0
LWPOLYLINE
  5
113
100
AcDbEntity
  8
0
 62
7
100
AcDbPolyline
 90
5
 70
1
 10
1.037132
 20
6.417544
 30
0.0
 10
1.037132
 20
6.271710
 30
0.0
 10
0.891298
 20
6.271710
 30
0.0
 10
0.891298
 20
6.417544
 30
0.0
 10
1.037132
 20
6.417544
 30
0.0
  0
LWPOLYLINE
  5
114
100
AcDbEntity
  8
0
 62
7
100
AcDbPolyline
 90
5
 70
1
 10
1.037132
 20
6.754887
 30
0.0
 10
1.037132
 20
6.609054
 30
0.0
 10
0.891298
 20
6.609054
 30
0.0
 10
0.891298
 20
6.754887
 30
0.0
 10
1.037132
 20
6.754887
 30
0.0
  0
LWPOLYLINE
  5
115
100
AcDbEntity
  8
0
 62
7
100
AcDbPolyline
 90
5
 70
1
 10
1.037132
 20
6.953325
 30
0.0
 10
1.037132
 20
6.807492
 30
0.0
 10
0.891298
 20
6.807492
 30
0.0
 10
0.891298
 20
6.953325
 30
0.0
 10
1.037132
 20
6.953325
 30
0.0
  0
LWPOLYLINE
  5
116
100
AcDbEntity
  8
0
 62
7
100
AcDbPolyline
 90
5
 70
1
 10
1.037132
 20
7.548637
 30
0.0
 10
1.037132
 20
7.402804
 30
0.0
 10
0.891298
 20
7.402804
 30
0.0
 10
0.891298
 20
7.548637
 30
0.0
 10
1.037132
 20
7.548637
 30
0.0
  0
LWPOLYLINE
  5
117
100
AcDbEntity
  8
0
 62
7
100
AcDbPolyline
 90
5
 70
1
 10
1.037132
 20
7.151762
 30
0.0
 10
1.037132
 20
7.005929
 30
0.0
 10
0.891298
 20
7.005929
 30
0.0
 10
0.891298
 20
7.151762
 30
0.0
 10
1.037132
 20
7.151762
 30
0.0
  0
LWPOLYLINE
  5
118
100
AcDbEntity
  8
0
 62
7
100
AcDbPolyline
 90
5
 70
1
 10
0.838694
 20
6.903715
 30
0.0
 10
0.838694
 20
6.757882
 30
0.0
 10
0.692861
 20
6.757882
 30
0.0
 10
0.692861
 20
6.903715
 30
0.0
 10
0.838694
 20
6.903715
 30
0.0
  0
LWPOLYLINE
  5
119
100
AcDbEntity
  8
0
 62
7
100
AcDbPolyline
 90
5
 70
1
 10
0.838694
 20
7.102153
 30
0.0
 10
0.838694
 20
6.956320
 30
0.0
 10
0.692861
 20
6.956320
 30
0.0
 10
0.692861
 20
7.102153
 30
0.0
 10
0.838694
 20
7.102153
 30
0.0
  0
LWPOLYLINE
  5
11a
100
AcDbEntity
  8
0
 62
7
100
AcDbPolyline
 90
5
 70
1
 10
0.838694
 20
7.499028
 30
0.0
 10
0.838694
 20
7.353195
 30
0.0
 10
0.692861
 20
7.353195
 30
0.0
 10
0.692861
 20
7.499028
 30
0.0
 10
0.838694
 20
7.499028
 30
0.0
  0
LWPOLYLINE
  5
11b
100
AcDbEntity
  8
0
 62
7
100
AcDbPolyline
 90
5
 70
1
 10
0.838694
 20
6.219106
 30
0.0
 10
0.838694
 20
6.073273
 30
0.0
 10
0.692861
 20
6.073273
 30
0.0
 10
0.692861
 20
6.219106
 30
0.0
 10
0.838694
 20
6.219106
 30
0.0
  0
LWPOLYLINE
  5
11c
100
AcDbEntity
  8
0
 62
7
100
AcDbPolyline
 90
5
 70
1
 10
0.838694
 20
6.417544
 30
0.0
 10
0.838694
 20
6.271710
 30
0.0
 10
0.692861
 20
6.271710
 30
0.0
 10
0.692861
 20
6.417544
 30
0.0
 10
0.838694
 20
6.417544
 30
0.0
  0
LWPOLYLINE
  5
11d
100
AcDbEntity
  8
0
 62
7
100
AcDbPolyline
 90
5
 70
1
 10
0.838694
 20
6.705278
 30
0.0
 10
0.838694
 20
6.559445
 30
0.0
 10
0.692861
 20
6.559445
 30
0.0
 10
0.692861
 20
6.705278
 30
0.0
 10
0.838694
 20
6.705278
 30
0.0
  0
LWPOLYLINE
  5
11e
100
AcDbEntity
  8
0
 62
7
100
AcDbPolyline
 90
5
 70
1
 10
0.838694
 20
7.300590
 30
0.0
 10
0.838694
 20
7.154757
 30
0.0
 10
0.692861
 20
7.154757
 30
0.0
 10
0.692861
 20
7.300590
 30
0.0
 10
0.838694
 20
7.300590
 30
0.0
  0
LWPOLYLINE
  5
11f
100
AcDbEntity
  8
0
 62
7
100
AcDbPolyline
 90
5
 70
1
 10
0.640257
 20
6.219106
 30
0.0
 10
0.640257
 20
6.073273
 30
0.0
 10
0.494423
 20
6.073273
 30
0.0
 10
0.494423
 20
6.219106
 30
0.0
 10
0.640257
 20
6.219106
 30
0.0
  0
LWPOLYLINE
  5
120
100
AcDbEntity
  8
0
 62
7
100
AcDbPolyline
 90
5
 70
1
 10
0.640257
 20
6.417544
 30
0.0
 10
0.640257
 20
6.271710
 30
0.0
 10
0.494423
 20
6.271710
 30
0.0
 10
0.494423
 20
6.417544
 30
0.0
 10
0.640257
 20
6.417544
 30
0.0
  0
LWPOLYLINE
  5
121
100
AcDbEntity
  8
0
 62
7
100
AcDbPolyline
 90
5
 70
1
 10
0.630221
 20
6.640346
 30
0.0
 10
0.638489
 20
6.494747
 30
0.0
 10
0.492890
 20
6.486479
 30
0.0
 10
0.484622
 20
6.632078
 30
0.0
 10
0.630221
 20
6.640346
 30
0.0
  0
LWPOLYLINE
  5
122
100
AcDbEntity
  8
0
 62
7
100
AcDbPolyline
 90
5
 70
1
 10
0.618971
 20
6.838464
 30
0.0
 10
0.627239
 20
6.692865
 30
0.0
 10
0.481640
 20
6.684598
 30
0.0
 10
0.473372
 20
6.830197
 30
0.0
 10
0.618971
 20
6.838464
 30
0.0
  0
LWPOLYLINE
  5
123
100
AcDbEntity
  8
0
 62
7
100
AcDbPolyline
 90
5
 70
1
 10
0.607721
 20
7.036583
 30
0.0
 10
0.615989
 20
6.890984
 30
0.0
 10
0.470390
 20
6.882716
 30
0.0
 10
0.462122
 20
7.028315
 30
0.0
 10
0.607721
 20
7.036583
 30
0.0
  0
LWPOLYLINE
  5
124
100
AcDbEntity
  8
0
 62
7
100
AcDbPolyline
 90
5
 70
1
 10
0.596471
 20
7.234701
 30
0.0
 10
0.604739
 20
7.089102
 30
0.0
 10
0.459140
 20
7.080834
 30
0.0
 10
0.450872
 20
7.226433
 30
0.0
 10
0.596471
 20
7.234701
 30
0.0
  0
LWPOLYLINE
  5
125
100
AcDbEntity
  8
0
 62
7
100
AcDbPolyline
 90
5
 70
1
 10
0.585221
 20
7.432819
 30
0.0
 10
0.593489
 20
7.287221
 30
0.0
 10
0.447890
 20
7.278953
 30
0.0
 10
0.439622
 20
7.424552
 30
0.0
 10
0.585221
 20
7.432819
 30
0.0
  0
LWPOLYLINE
  5
126
100
AcDbEntity
  8
0
 62
7
100
AcDbPolyline
 90
5
 70
1
 10
0.398353
 20
7.223451
 30
0.0
 10
0.406620
 20
7.077852
 30
0.0
 10
0.261022
 20
7.069585
 30
0.0
 10
0.252754
 20
7.215183
 30
0.0
 10
0.398353
 20
7.223451
 30
0.0
  0
LWPOLYLINE
  5
127
100
AcDbEntity
  8
0
 62
7
100
AcDbPolyline
 90
5
 70
1
 10
0.387103
 20
7.421569
 30
0.0
 10
0.395370
 20
7.275971
 30
0.0
 10
0.249772
 20
7.267703
 30
0.0
 10
0.241504
 20
7.413302
 30
0.0
 10
0.387103
 20
7.421569
 30
0.0
  0
LWPOLYLINE
  5
128
100
AcDbEntity
  8
0
 62
7
100
AcDbPolyline
 90
5
 70
1
 10
0.382573
 20
6.626283
 30
0.0
 10
0.390841
 20
6.480685
 30
0.0
 10
0.245242
 20
6.472417
 30
0.0
 10
0.236974
 20
6.618016
 30
0.0
 10
0.382573
 20
6.626283
 30
0.0
  0
LWPOLYLINE
  5
129
100
AcDbEntity
  8
0
 62
7
100
AcDbPolyline
 90
5
 70
1
 10
0.371323
 20
6.824402
 30
0.0
 10
0.379591
 20
6.678803
 30
0.0
 10
0.233992
 20
6.670535
 30
0.0
 10
0.225724
 20
6.816134
 30
0.0
 10
0.371323
 20
6.824402
 30
0.0
  0
LWPOLYLINE
  5
12a
100
AcDbEntity
  8
0
 62
7
100
AcDbPolyline
 90
5
 70
1
 10
0.360073
 20
7.022520
 30
0.0
 10
0.368341
 20
6.876921
 30
0.0
 10
0.222742
 20
6.868654
 30
0.0
 10
0.214474
 20
7.014252
 30
0.0
 10
0.360073
 20
7.022520
 30
0.0
  0
LWPOLYLINE
  5
12b
100
AcDbEntity
  8
0
 62
7
100
AcDbPolyline
 90
66
 70
1
 10
0.846462
 20
7.632194
 30
0.0
 10
0.846462
 20
7.632194
 30
0.0
 10
0.846386
 20
7.630663
 30
0.0
 10
0.846162
 20
7.629146
 30
0.0
 10
0.845789
 20
7.627658
 30
0.0
 10
0.845272
 20
7.626215
 30
0.0
 10
0.844617
 20
7.624829
 30
0.0
 10
0.843828
 20
7.623513
 30
0.0
 10
0.842915
 20
7.622282
 30
0.0
 10
0.841885
 20
7.621146
 30
0.0
 10
0.840749
 20
7.620116
 30
0.0
 10
0.839518
 20
7.619202
 30
0.0
 10
0.838202
 20
7.618414
 30
0.0
 10
0.836816
 20
7.617758
 30
0.0
 10
0.835372
 20
7.617242
 30
0.0
 10
0.833885
 20
7.616869
 30
0.0
 10
0.832368
 20
7.616644
 30
0.0
 10
0.830837
 20
7.616569
 30
0.0
 10
0.829305
 20
7.616644
 30
0.0
 10
0.827788
 20
7.616869
 30
0.0
 10
0.826301
 20
7.617242
 30
0.0
 10
0.824857
 20
7.617758
 30
0.0
 10
0.823471
 20
7.618414
 30
0.0
 10
0.822156
 20
7.619202
 30
0.0
 10
0.820924
 20
7.620116
 30
0.0
 10
0.819788
 20
7.621146
 30
0.0
 10
0.818758
 20
7.622282
 30
0.0
 10
0.817845
 20
7.623513
 30
0.0
 10
0.817057
 20
7.624829
 30
0.0
 10
0.816401
 20
7.626215
 30
0.0
 10
0.815885
 20
7.627658
 30
0.0
 10
0.815512
 20
7.629146
 30
0.0
 10
0.815287
 20
7.630663
 30
0.0
 10
0.815212
 20
7.632194
 30
0.0
 10
0.815287
 20
7.633726
 30
0.0
 10
0.815512
 20
7.635242
 30
0.0
 10
0.815885
 20
7.636730
 30
0.0
 10
0.816401
 20
7.638174
 30
0.0
 10
0.817057
 20
7.639560
 30
0.0
 10
0.817845
 20
7.640875
 30
0.0
 10
0.818758
 20
7.642106
 30
0.0
 10
0.819788
 20
7.643243
 30
0.0
 10
0.820924
 20
7.644272
 30
0.0
 10
0.822156
 20
7.645186
 30
0.0
 10
0.823471
 20
7.645974
 30
0.0
 10
0.824857
 20
7.646630
 30
0.0
 10
0.826301
 20
7.647146
 30
0.0
 10
0.827788
 20
7.647519
 30
0.0
 10
0.829305
 20
7.647744
 30
0.0
 10
0.830837
 20
7.647819
 30
0.0
 10
0.832368
 20
7.647744
 30
0.0
 10
0.833885
 20
7.647519
 30
0.0
 10
0.835372
 20
7.647146
 30
0.0
 10
0.836816
 20
7.646630
 30
0.0
 10
0.838202
 20
7.645974
 30
0.0
 10
0.839518
 20
7.645186
 30
0.0
 10
0.840749
 20
7.644272
 30
0.0
 10
0.841885
 20
7.643243
 30
0.0
 10
0.842915
 20
7.642106
 30
0.0
 10
0.843828
 20
7.640875
 30
0.0
 10
0.844617
 20
7.639560
 30
0.0
 10
0.845272
 20
7.638174
 30
0.0
 10
0.845789
 20
7.636730
 30
0.0
 10
0.846162
 20
7.635242
 30
0.0
 10
0.846386
 20
7.633726
 30
0.0
 10
0.846462
 20
7.632194
 30
0.0
  0
LWPOLYLINE
  5
12c
100
AcDbEntity
  8
0
 62
7
100
AcDbPolyline
 90
66
 70
1
 10
0.174064
 20
7.489375
 30
0.0
 10
0.174064
 20
7.489375
 30
0.0
 10
0.173989
 20
7.487844
 30
0.0
 10
0.173764
 20
7.486327
 30
0.0
 10
0.173392
 20
7.484840
 30
0.0
 10
0.172875
 20
7.483396
 30
0.0
 10
0.172219
 20
7.482010
 30
0.0
 10
0.171431
 20
7.480695
 30
0.0
 10
0.170518
 20
7.479463
 30
0.0
 10
0.169488
 20
7.478327
 30
0.0
 10
0.168352
 20
7.477297
 30
0.0
 10
0.167120
 20
7.476384
 30
0.0
 10
0.165805
 20
7.475595
 30
0.0
 10
0.164419
 20
7.474940
 30
0.0
 10
0.162975
 20
7.474423
 30
0.0
 10
0.161488
 20
7.474051
 30
0.0
 10
0.159971
 20
7.473826
 30
0.0
 10
0.158439
 20
7.473750
 30
0.0
 10
0.156908
 20
7.473826
 30
0.0
 10
0.155391
 20
7.474051
 30
0.0
 10
0.153904
 20
7.474423
 30
0.0
 10
0.152460
 20
7.474940
 30
0.0
 10
0.151074
 20
7.475595
 30
0.0
 10
0.149759
 20
7.476384
 30
0.0
 10
0.148527
 20
7.477297
 30
0.0
 10
0.147391
 20
7.478327
 30
0.0
 10
0.146361
 20
7.479463
 30
0.0
 10
0.145448
 20
7.480695
 30
0.0
 10
0.144659
 20
7.482010
 30
0.0
 10
0.144004
 20
7.483396
 30
0.0
 10
0.143487
 20
7.484840
 30
0.0
 10
0.143115
 20
7.486327
 30
0.0
 10
0.142890
 20
7.487844
 30
0.0
 10
0.142814
 20
7.489375
 30
0.0
 10
0.142890
 20
7.490907
 30
0.0
 10
0.143115
 20
7.492424
 30
0.0
 10
0.143487
 20
7.493911
 30
0.0
 10
0.144004
 20
7.495355
 30
0.0
 10
0.144659
 20
7.496741
 30
0.0
 10
0.145448
 20
7.498056
 30
0.0
 10
0.146361
 20
7.499288
 30
0.0
 10
0.147391
 20
7.500424
 30
0.0
 10
0.148527
 20
7.501454
 30
0.0
 10
0.149759
 20
7.502367
 30
0.0
 10
0.151074
 20
7.503155
 30
0.0
 10
0.152460
 20
7.503811
 30
0.0
 10
0.153904
 20
7.504328
 30
0.0
 10
0.155391
 20
7.504700
 30
0.0
 10
0.156908
 20
7.504925
 30
0.0
 10
0.158439
 20
7.505000
 30
0.0
 10
0.159971
 20
7.504925
 30
0.0
 10
0.161488
 20
7.504700
 30
0.0
 10
0.162975
 20
7.504328
 30
0.0
 10
0.164419
 20
7.503811
 30
0.0
 10
0.165805
 20
7.503155
 30
0.0
 10
0.167120
 20
7.502367
 30
0.0
 10
0.168352
 20
7.501454
 30
0.0
 10
0.169488
 20
7.500424
 30
0.0
 10
0.170518
 20
7.499288
 30
0.0
 10
0.171431
 20
7.498056
 30
0.0
 10
0.172219
 20
7.496741
 30
0.0
 10
0.172875
 20
7.495355
 30
0.0
 10
0.173392
 20
7.493911
 30
0.0
 10
0.173764
 20
7.492424
 30
0.0
 10
0.173989
 20
7.490907
 30
0.0
 10
0.174064
 20
7.489375
 30
0.0
  0
LWPOLYLINE
  5
12d
100
AcDbEntity
  8
0
 62
7
100
AcDbPolyline
 90
66
 70
1
 10
0.093741
 20
7.067755
 30
0.0
 10
0.093741
 20
7.067755
 30
0.0
 10
0.093666
 20
7.066224
 30
0.0
 10
0.093441
 20
7.064707
 30
0.0
 10
0.093068
 20
7.063220
 30
0.0
 10
0.092552
 20
7.061776
 30
0.0
 10
0.091896
 20
7.060390
 30
0.0
 10
0.091108
 20
7.059075
 30
0.0
 10
0.090194
 20
7.057843
 30
0.0
 10
0.089165
 20
7.056707
 30
0.0
 10
0.088028
 20
7.055677
 30
0.0
 10
0.086797
 20
7.054764
 30
0.0
 10
0.085482
 20
7.053975
 30
0.0
 10
0.084095
 20
7.053320
 30
0.0
 10
0.082652
 20
7.052803
 30
0.0
 10
0.081164
 20
7.052431
 30
0.0
 10
0.079648
 20
7.052206
 30
0.0
 10
0.078116
 20
7.052130
 30
0.0
 10
0.076584
 20
7.052206
 30
0.0
 10
0.075068
 20
7.052431
 30
0.0
 10
0.073580
 20
7.052803
 30
0.0
 10
0.072137
 20
7.053320
 30
0.0
 10
0.070750
 20
7.053975
 30
0.0
 10
0.069435
 20
7.054764
 30
0.0
 10
0.068204
 20
7.055677
 30
0.0
 10
0.067067
 20
7.056707
 30
0.0
 10
0.066038
 20
7.057843
 30
0.0
 10
0.065124
 20
7.059075
 30
0.0
 10
0.064336
 20
7.060390
 30
0.0
 10
0.063680
 20
7.061776
 30
0.0
 10
0.063164
 20
7.063220
 30
0.0
 10
0.062791
 20
7.064707
 30
0.0
 10
0.062566
 20
7.066224
 30
0.0
 10
0.062491
 20
7.067755
 30
0.0
 10
0.062566
 20
7.069287
 30
0.0
 10
0.062791
 20
7.070804
 30
0.0
 10
0.063164
 20
7.072291
 30
0.0
 10
0.063680
 20
7.073735
 30
0.0
 10
0.064336
 20
7.075121
 30
0.0
 10
0.065124
 20
7.076436
 30
0.0
 10
0.066038
 20
7.077668
 30
0.0
 10
0.067067
 20
7.078804
 30
0.0
 10
0.068204
 20
7.079834
 30
0.0
 10
0.069435
 20
7.080747
 30
0.0
 10
0.070750
 20
7.081535
 30
0.0
 10
0.072137
 20
7.082191
 30
0.0
 10
0.073580
 20
7.082708
 30
0.0
 10
0.075068
 20
7.083080
 30
0.0
 10
0.076584
 20
7.083305
 30
0.0
 10
0.078116
 20
7.083380
 30
0.0
 10
0.079648
 20
7.083305
 30
0.0
 10
0.081164
 20
7.083080
 30
0.0
 10
0.082652
 20
7.082708
 30
0.0
 10
0.084095
 20
7.082191
 30
0.0
 10
0.085482
 20
7.081535
 30
0.0
 10
0.086797
 20
7.080747
 30
0.0
 10
0.088028
 20
7.079834
 30
0.0
 10
0.089165
 20
7.078804
 30
0.0
 10
0.090194
 20
7.077668
 30
0.0
 10
0.091108
 20
7.076436
 30
0.0
 10
0.091896
 20
7.075121
 30
0.0
 10
0.092552
 20
7.073735
 30
0.0
 10
0.093068
 20
7.072291
 30
0.0
 10
0.093441
 20
7.070804
 30
0.0
 10
0.093666
 20
7.069287
 30
0.0
 10
0.093741
 20
7.067755
 30
0.0
  0
LWPOLYLINE
  5
12e
100
AcDbEntity
  8
0
 62
7
100
AcDbPolyline
 90
66
 70
1
 10
0.131697
 20
6.399394
 30
0.0
 10
0.131697
 20
6.399394
 30
0.0
 10
0.131622
 20
6.397863
 30
0.0
 10
0.131397
 20
6.396346
 30
0.0
 10
0.131024
 20
6.394858
 30
0.0
 10
0.130508
 20
6.393415
 30
0.0
 10
0.129852
 20
6.392029
 30
0.0
 10
0.129064
 20
6.390713
 30
0.0
 10
0.128150
 20
6.389482
 30
0.0
 10
0.127121
 20
6.388346
 30
0.0
 10
0.125984
 20
6.387316
 30
0.0
 10
0.124753
 20
6.386402
 30
0.0
 10
0.123438
 20
6.385614
 30
0.0
 10
0.122051
 20
6.384958
 30
0.0
 10
0.120608
 20
6.384442
 30
0.0
 10
0.119120
 20
6.384069
 30
0.0
 10
0.117604
 20
6.383844
 30
0.0
 10
0.116072
 20
6.383769
 30
0.0
 10
0.114541
 20
6.383844
 30
0.0
 10
0.113024
 20
6.384069
 30
0.0
 10
0.111536
 20
6.384442
 30
0.0
 10
0.110093
 20
6.384958
 30
0.0
 10
0.108706
 20
6.385614
 30
0.0
 10
0.107391
 20
6.386402
 30
0.0
 10
0.106160
 20
6.387316
 30
0.0
 10
0.105023
 20
6.388346
 30
0.0
 10
0.103994
 20
6.389482
 30
0.0
 10
0.103080
 20
6.390713
 30
0.0
 10
0.102292
 20
6.392029
 30
0.0
 10
0.101636
 20
6.393415
 30
0.0
 10
0.101120
 20
6.394858
 30
0.0
 10
0.100747
 20
6.396346
 30
0.0
 10
0.100522
 20
6.397863
 30
0.0
 10
0.100447
 20
6.399394
 30
0.0
 10
0.100522
 20
6.400926
 30
0.0
 10
0.100747
 20
6.402442
 30
0.0
 10
0.101120
 20
6.403930
 30
0.0
 10
0.101636
 20
6.405374
 30
0.0
 10
0.102292
 20
6.406760
 30
0.0
 10
0.103080
 20
6.408075
 30
0.0
 10
0.103994
 20
6.409306
 30
0.0
 10
0.105023
 20
6.410443
 30
0.0
 10
0.106160
 20
6.411472
 30
0.0
 10
0.107391
 20
6.412386
 30
0.0
 10
0.108706
 20
6.413174
 30
0.0
 10
0.110093
 20
6.413830
 30
0.0
 10
0.111536
 20
6.414346
 30
0.0
 10
0.113024
 20
6.414719
 30
0.0
 10
0.114541
 20
6.414944
 30
0.0
 10
0.116072
 20
6.415019
 30
0.0
 10
0.117604
 20
6.414944
 30
0.0
 10
0.119120
 20
6.414719
 30
0.0
 10
0.120608
 20
6.414346
 30
0.0
 10
0.122051
 20
6.413830
 30
0.0
 10
0.123438
 20
6.413174
 30
0.0
 10
0.124753
 20
6.412386
 30
0.0
 10
0.125984
 20
6.411472
 30
0.0
 10
0.127121
 20
6.410443
 30
0.0
 10
0.128150
 20
6.409306
 30
0.0
 10
0.129064
 20
6.408075
 30
0.0
 10
0.129852
 20
6.406760
 30
0.0
 10
0.130508
 20
6.405374
 30
0.0
 10
0.131024
 20
6.403930
 30
0.0
 10
0.131397
 20
6.402442
 30
0.0
 10
0.131622
 20
6.400926
 30
0.0
 10
0.131697
 20
6.399394
 30
0.0
  0
LWPOLYLINE
  5
12f
100
AcDbEntity
  8
0
 62
7
100
AcDbPolyline
 90
65
 70
1
 10
0.437857
 20
5.991850
 30
0.0
 10
0.437782
 20
5.990318
 30
0.0
 10
0.437557
 20
5.988801
 30
0.0
 10
0.437185
 20
5.987314
 30
0.0
 10
0.436668
 20
5.985870
 30
0.0
 10
0.436013
 20
5.984484
 30
0.0
 10
0.435224
 20
5.983169
 30
0.0
 10
0.434311
 20
5.981937
 30
0.0
 10
0.433281
 20
5.980801
 30
0.0
 10
0.432145
 20
5.979771
 30
0.0
 10
0.430913
 20
5.978858
 30
0.0
 10
0.429598
 20
5.978070
 30
0.0
 10
0.428212
 20
5.977414
 30
0.0
 10
0.426768
 20
5.976898
 30
0.0
 10
0.425281
 20
5.976525
 30
0.0
 10
0.423764
 20
5.976300
 30
0.0
 10
0.422232
 20
5.976225
 30
0.0
 10
0.420701
 20
5.976300
 30
0.0
 10
0.419184
 20
5.976525
 30
0.0
 10
0.417697
 20
5.976898
 30
0.0
 10
0.416253
 20
5.977414
 30
0.0
 10
0.414867
 20
5.978070
 30
0.0
 10
0.413552
 20
5.978858
 30
0.0
 10
0.412320
 20
5.979771
 30
0.0
 10
0.411184
 20
5.980801
 30
0.0
 10
0.410154
 20
5.981937
 30
0.0
 10
0.409241
 20
5.983169
 30
0.0
 10
0.408452
 20
5.984484
 30
0.0
 10
0.407797
 20
5.985870
 30
0.0
 10
0.407280
 20
5.987314
 30
0.0
 10
0.406908
 20
5.988801
 30
0.0
 10
0.406683
 20
5.990318
 30
0.0
 10
0.406607
 20
5.991850
 30
0.0
 10
0.406683
 20
5.993381
 30
0.0
 10
0.406908
 20
5.994898
 30
0.0
 10
0.407280
 20
5.996385
 30
0.0
 10
0.407797
 20
5.997829
 30
0.0
 10
0.408452
 20
5.999215
 30
0.0
 10
0.409241
 20
6.000531
 30
0.0
 10
0.410154
 20
6.001762
 30
0.0
 10
0.411184
 20
6.002898
 30
0.0
 10
0.412320
 20
6.003928
 30
0.0
 10
0.413552
 20
6.004841
 30
0.0
 10
0.414867
 20
6.005630
 30
0.0
 10
0.416253
 20
6.006285
 30
0.0
 10
0.417697
 20
6.006802
 30
0.0
 10
0.419184
 20
6.007175
 30
0.0
 10
0.420701
 20
6.007400
 30
0.0
 10
0.422232
 20
6.007475
 30
0.0
 10
0.423764
 20
6.007400
 30
0.0
 10
0.425281
 20
6.007175
 30
0.0
 10
0.426768
 20
6.006802
 30
0.0
 10
0.428212
 20
6.006285
 30
0.0
 10
0.429598
 20
6.005630
 30
0.0
 10
0.430913
 20
6.004841
 30
0.0
 10
0.432145
 20
6.003928
 30
0.0
 10
0.433281
 20
6.002898
 30
0.0
 10
0.434311
 20
6.001762
 30
0.0
 10
0.435224
 20
6.000531
 30
0.0
 10
0.436013
 20
5.999215
 30
0.0
 10
0.436668
 20
5.997829
 30
0.0
 10
0.437185
 20
5.996385
 30
0.0
 10
0.437557
 20
5.994898
 30
0.0
 10
0.437782
 20
5.993381
 30
0.0
 10
0.437857
 20
5.991850
 30
0.0
  0
LWPOLYLINE
  5
130
100
AcDbEntity
  8
0
 62
7
100
AcDbPolyline
 90
65
 70
1
 10
1.109637
 20
5.873976
 30
0.0
 10
1.109562
 20
5.872445
 30
0.0
 10
1.109337
 20
5.870928
 30
0.0
 10
1.108964
 20
5.869440
 30
0.0
 10
1.108448
 20
5.867997
 30
0.0
 10
1.107792
 20
5.866611
 30
0.0
 10
1.107004
 20
5.865295
 30
0.0
 10
1.106090
 20
5.864064
 30
0.0
 10
1.105060
 20
5.862928
 30
0.0
 10
1.103924
 20
5.861898
 30
0.0
 10
1.102693
 20
5.860984
 30
0.0
 10
1.101377
 20
5.860196
 30
0.0
 10
1.099991
 20
5.859541
 30
0.0
 10
1.098548
 20
5.859024
 30
0.0
 10
1.097060
 20
5.858651
 30
0.0
 10
1.095543
 20
5.858426
 30
0.0
 10
1.094012
 20
5.858351
 30
0.0
 10
1.092480
 20
5.858426
 30
0.0
 10
1.090964
 20
5.858651
 30
0.0
 10
1.089476
 20
5.859024
 30
0.0
 10
1.088032
 20
5.859541
 30
0.0
 10
1.086646
 20
5.860196
 30
0.0
 10
1.085331
 20
5.860984
 30
0.0
 10
1.084100
 20
5.861898
 30
0.0
 10
1.082963
 20
5.862928
 30
0.0
 10
1.081934
 20
5.864064
 30
0.0
 10
1.081020
 20
5.865295
 30
0.0
 10
1.080232
 20
5.866611
 30
0.0
 10
1.079576
 20
5.867997
 30
0.0
 10
1.079060
 20
5.869440
 30
0.0
 10
1.078687
 20
5.870928
 30
0.0
 10
1.078462
 20
5.872445
 30
0.0
 10
1.078387
 20
5.873976
 30
0.0
 10
1.078462
 20
5.875508
 30
0.0
 10
1.078687
 20
5.877024
 30
0.0
 10
1.079060
 20
5.878512
 30
0.0
 10
1.079576
 20
5.879956
 30
0.0
 10
1.080232
 20
5.881342
 30
0.0
 10
1.081020
 20
5.882657
 30
0.0
 10
1.081934
 20
5.883889
 30
0.0
 10
1.082963
 20
5.885025
 30
0.0
 10
1.084100
 20
5.886054
 30
0.0
 10
1.085331
 20
5.886968
 30
0.0
 10
1.086646
 20
5.887756
 30
0.0
 10
1.088032
 20
5.888412
 30
0.0
 10
1.089476
 20
5.888928
 30
0.0
 10
1.090964
 20
5.889301
 30
0.0
 10
1.092480
 20
5.889526
 30
0.0
 10
1.094012
 20
5.889601
 30
0.0
 10
1.095543
 20
5.889526
 30
0.0
 10
1.097060
 20
5.889301
 30
0.0
 10
1.098548
 20
5.888928
 30
0.0
 10
1.099991
 20
5.888412
 30
0.0
 10
1.101377
 20
5.887756
 30
0.0
 10
1.102693
 20
5.886968
 30
0.0
 10
1.103924
 20
5.886054
 30
0.0
 10
1.105060
 20
5.885025
 30
0.0
 10
1.106090
 20
5.883889
 30
0.0
 10
1.107004
 20
5.882657
 30
0.0
 10
1.107792
 20
5.881342
 30
0.0
 10
1.108448
 20
5.879956
 30
0.0
 10
1.108964
 20
5.878512
 30
0.0
 10
1.109337
 20
5.877024
 30
0.0
 10
1.109562
 20
5.875508
 30
0.0
 10
1.109637
 20
5.873976
 30
0.0
  0
LWPOLYLINE
  5
131
100
AcDbEntity
  8
0
 62
7
100
AcDbPolyline
 90
65
 70
1
 10
1.781416
 20
5.756102
 30
0.0
 10
1.781341
 20
5.754571
 30
0.0
 10
1.781116
 20
5.753054
 30
0.0
 10
1.780743
 20
5.751567
 30
0.0
 10
1.780227
 20
5.750123
 30
0.0
 10
1.779571
 20
5.748737
 30
0.0
 10
1.778783
 20
5.747422
 30
0.0
 10
1.777870
 20
5.746190
 30
0.0
 10
1.776840
 20
5.745054
 30
0.0
 10
1.775704
 20
5.744024
 30
0.0
 10
1.774472
 20
5.743111
 30
0.0
 10
1.773157
 20
5.742322
 30
0.0
 10
1.771771
 20
5.741667
 30
0.0
 10
1.770327
 20
5.741150
 30
0.0
 10
1.768840
 20
5.740778
 30
0.0
 10
1.767323
 20
5.740553
 30
0.0
 10
1.765791
 20
5.740477
 30
0.0
 10
1.764260
 20
5.740553
 30
0.0
 10
1.762743
 20
5.740778
 30
0.0
 10
1.761256
 20
5.741150
 30
0.0
 10
1.759812
 20
5.741667
 30
0.0
 10
1.758426
 20
5.742322
 30
0.0
 10
1.757111
 20
5.743111
 30
0.0
 10
1.755879
 20
5.744024
 30
0.0
 10
1.754743
 20
5.745054
 30
0.0
 10
1.753713
 20
5.746190
 30
0.0
 10
1.752800
 20
5.747422
 30
0.0
 10
1.752011
 20
5.748737
 30
0.0
 10
1.751356
 20
5.750123
 30
0.0
 10
1.750839
 20
5.751567
 30
0.0
 10
1.750467
 20
5.753054
 30
0.0
 10
1.750242
 20
5.754571
 30
0.0
 10
1.750166
 20
5.756102
 30
0.0
 10
1.750242
 20
5.757634
 30
0.0
 10
1.750467
 20
5.759151
 30
0.0
 10
1.750839
 20
5.760638
 30
0.0
 10
1.751356
 20
5.762082
 30
0.0
 10
1.752011
 20
5.763468
 30
0.0
 10
1.752800
 20
5.764783
 30
0.0
 10
1.753713
 20
5.766015
 30
0.0
 10
1.754743
 20
5.767151
 30
0.0
 10
1.755879
 20
5.768181
 30
0.0
 10
1.757111
 20
5.769094
 30
0.0
 10
1.758426
 20
5.769883
 30
0.0
 10
1.759812
 20
5.770538
 30
0.0
 10
1.761256
 20
5.771055
 30
0.0
 10
1.762743
 20
5.771427
 30
0.0
 10
1.764260
 20
5.771652
 30
0.0
 10
1.765791
 20
5.771727
 30
0.0
 10
1.767323
 20
5.771652
 30
0.0
 10
1.768840
 20
5.771427
 30
0.0
 10
1.770327
 20
5.771055
 30
0.0
 10
1.771771
 20
5.770538
 30
0.0
 10
1.773157
 20
5.769883
 30
0.0
 10
1.774472
 20
5.769094
 30
0.0
 10
1.775704
 20
5.768181
 30
0.0
 10
1.776840
 20
5.767151
 30
0.0
 10
1.777870
 20
5.766015
 30
0.0
 10
1.778783
 20
5.764783
 30
0.0
 10
1.779571
 20
5.763468
 30
0.0
 10
1.780227
 20
5.762082
 30
0.0
 10
1.780743
 20
5.760638
 30
0.0
 10
1.781116
 20
5.759151
 30
0.0
 10
1.781341
 20
5.757634
 30
0.0
 10
1.781416
 20
5.756102
 30
0.0
  0
LWPOLYLINE
  5
132
100
AcDbEntity
  8
0
 62
7
100
AcDbPolyline
 90
66
 70
1
 10
1.933625
 20
6.324154
 30
0.0
 10
1.933625
 20
6.324154
 30
0.0
 10
1.933550
 20
6.322622
 30
0.0
 10
1.933325
 20
6.321105
 30
0.0
 10
1.932952
 20
6.319618
 30
0.0
 10
1.932436
 20
6.318174
 30
0.0
 10
1.931780
 20
6.316788
 30
0.0
 10
1.930992
 20
6.315473
 30
0.0
 10
1.930078
 20
6.314241
 30
0.0
 10
1.929049
 20
6.313105
 30
0.0
 10
1.927913
 20
6.312075
 30
0.0
 10
1.926681
 20
6.311162
 30
0.0
 10
1.925366
 20
6.310374
 30
0.0
 10
1.923980
 20
6.309718
 30
0.0
 10
1.922536
 20
6.309201
 30
0.0
 10
1.921048
 20
6.308829
 30
0.0
 10
1.919532
 20
6.308604
 30
0.0
 10
1.918000
 20
6.308529
 30
0.0
 10
1.916469
 20
6.308604
 30
0.0
 10
1.914952
 20
6.308829
 30
0.0
 10
1.913464
 20
6.309201
 30
0.0
 10
1.912021
 20
6.309718
 30
0.0
 10
1.910635
 20
6.310374
 30
0.0
 10
1.909319
 20
6.311162
 30
0.0
 10
1.908088
 20
6.312075
 30
0.0
 10
1.906952
 20
6.313105
 30
0.0
 10
1.905922
 20
6.314241
 30
0.0
 10
1.905008
 20
6.315473
 30
0.0
 10
1.904220
 20
6.316788
 30
0.0
 10
1.903565
 20
6.318174
 30
0.0
 10
1.903048
 20
6.319618
 30
0.0
 10
1.902675
 20
6.321105
 30
0.0
 10
1.902450
 20
6.322622
 30
0.0
 10
1.902375
 20
6.324154
 30
0.0
 10
1.902450
 20
6.325685
 30
0.0
 10
1.902675
 20
6.327202
 30
0.0
 10
1.903048
 20
6.328689
 30
0.0
 10
1.903565
 20
6.330133
 30
0.0
 10
1.904220
 20
6.331519
 30
0.0
 10
1.905008
 20
6.332834
 30
0.0
 10
1.905922
 20
6.334066
 30
0.0
 10
1.906952
 20
6.335202
 30
0.0
 10
1.908088
 20
6.336232
 30
0.0
 10
1.909319
 20
6.337145
 30
0.0
 10
1.910635
 20
6.337934
 30
0.0
 10
1.912021
 20
6.338589
 30
0.0
 10
1.913464
 20
6.339106
 30
0.0
 10
1.914952
 20
6.339478
 30
0.0
 10
1.916469
 20
6.339703
 30
0.0
 10
1.918000
 20
6.339779
 30
0.0
 10
1.919532
 20
6.339703
 30
0.0
 10
1.921048
 20
6.339478
 30
0.0
 10
1.922536
 20
6.339106
 30
0.0
 10
1.923980
 20
6.338589
 30
0.0
 10
1.925366
 20
6.337934
 30
0.0
 10
1.926681
 20
6.337145
 30
0.0
 10
1.927913
 20
6.336232
 30
0.0
 10
1.929049
 20
6.335202
 30
0.0
 10
1.930078
 20
6.334066
 30
0.0
 10
1.930992
 20
6.332834
 30
0.0
 10
1.931780
 20
6.331519
 30
0.0
 10
1.932436
 20
6.330133
 30
0.0
 10
1.932952
 20
6.328689
 30
0.0
 10
1.933325
 20
6.327202
 30
0.0
 10
1.933550
 20
6.325685
 30
0.0
 10
1.933625
 20
6.324154
 30
0.0
  0
LWPOLYLINE
  5
133
100
AcDbEntity
  8
0
 62
7
100
AcDbPolyline
 90
66
 70
1
 10
1.823355
 20
6.983401
 30
0.0
 10
1.823355
 20
6.983401
 30
0.0
 10
1.823280
 20
6.981869
 30
0.0
 10
1.823055
 20
6.980352
 30
0.0
 10
1.822682
 20
6.978865
 30
0.0
 10
1.822166
 20
6.977421
 30
0.0
 10
1.821510
 20
6.976035
 30
0.0
 10
1.820722
 20
6.974720
 30
0.0
 10
1.819809
 20
6.973488
 30
0.0
 10
1.818779
 20
6.972352
 30
0.0
 10
1.817643
 20
6.971322
 30
0.0
 10
1.816411
 20
6.970409
 30
0.0
 10
1.815096
 20
6.969621
 30
0.0
 10
1.813710
 20
6.968965
 30
0.0
 10
1.812266
 20
6.968448
 30
0.0
 10
1.810779
 20
6.968076
 30
0.0
 10
1.809262
 20
6.967851
 30
0.0
 10
1.807730
 20
6.967776
 30
0.0
 10
1.806199
 20
6.967851
 30
0.0
 10
1.804682
 20
6.968076
 30
0.0
 10
1.803195
 20
6.968448
 30
0.0
 10
1.801751
 20
6.968965
 30
0.0
 10
1.800365
 20
6.969621
 30
0.0
 10
1.799050
 20
6.970409
 30
0.0
 10
1.797818
 20
6.971322
 30
0.0
 10
1.796682
 20
6.972352
 30
0.0
 10
1.795652
 20
6.973488
 30
0.0
 10
1.794739
 20
6.974720
 30
0.0
 10
1.793950
 20
6.976035
 30
0.0
 10
1.793295
 20
6.977421
 30
0.0
 10
1.792778
 20
6.978865
 30
0.0
 10
1.792406
 20
6.980352
 30
0.0
 10
1.792181
 20
6.981869
 30
0.0
 10
1.792105
 20
6.983401
 30
0.0
 10
1.792181
 20
6.984932
 30
0.0
 10
1.792406
 20
6.986449
 30
0.0
 10
1.792778
 20
6.987936
 30
0.0
 10
1.793295
 20
6.989380
 30
0.0
 10
1.793950
 20
6.990766
 30
0.0
 10
1.794739
 20
6.992081
 30
0.0
 10
1.795652
 20
6.993313
 30
0.0
 10
1.796682
 20
6.994449
 30
0.0
 10
1.797818
 20
6.995479
 30
0.0
 10
1.799050
 20
6.996392
 30
0.0
 10
1.800365
 20
6.997181
 30
0.0
 10
1.801751
 20
6.997836
 30
0.0
 10
1.803195
 20
6.998353
 30
0.0
 10
1.804682
 20
6.998725
 30
0.0
 10
1.806199
 20
6.998950
 30
0.0
 10
1.807730
 20
6.999026
 30
0.0
 10
1.809262
 20
6.998950
 30
0.0
 10
1.810779
 20
6.998725
 30
0.0
 10
1.812266
 20
6.998353
 30
0.0
 10
1.813710
 20
6.997836
 30
0.0
 10
1.815096
 20
6.997181
 30
0.0
 10
1.816411
 20
6.996392
 30
0.0
 10
1.817643
 20
6.995479
 30
0.0
 10
1.818779
 20
6.994449
 30
0.0
 10
1.819809
 20
6.993313
 30
0.0
 10
1.820722
 20
6.992081
 30
0.0
 10
1.821510
 20
6.990766
 30
0.0
 10
1.822166
 20
6.989380
 30
0.0
 10
1.822682
 20
6.987936
 30
0.0
 10
1.823055
 20
6.986449
 30
0.0
 10
1.823280
 20
6.984932
 30
0.0
 10
1.823355
 20
6.983401
 30
0.0
  0
LWPOLYLINE
  5
134
100
AcDbEntity
  8
0
 62
7
100
AcDbPolyline
 90
66
 70
1
 10
1.713085
 20
7.642648
 30
0.0
 10
1.713085
 20
7.642648
 30
0.0
 10
1.713010
 20
7.641116
 30
0.0
 10
1.712785
 20
7.639600
 30
0.0
 10
1.712413
 20
7.638112
 30
0.0
 10
1.711896
 20
7.636668
 30
0.0
 10
1.711240
 20
7.635282
 30
0.0
 10
1.710452
 20
7.633967
 30
0.0
 10
1.709539
 20
7.632735
 30
0.0
 10
1.708509
 20
7.631599
 30
0.0
 10
1.707373
 20
7.630570
 30
0.0
 10
1.706141
 20
7.629656
 30
0.0
 10
1.704826
 20
7.628868
 30
0.0
 10
1.703440
 20
7.628212
 30
0.0
 10
1.701996
 20
7.627696
 30
0.0
 10
1.700509
 20
7.627323
 30
0.0
 10
1.698992
 20
7.627098
 30
0.0
 10
1.697460
 20
7.627023
 30
0.0
 10
1.695929
 20
7.627098
 30
0.0
 10
1.694412
 20
7.627323
 30
0.0
 10
1.692925
 20
7.627696
 30
0.0
 10
1.691481
 20
7.628212
 30
0.0
 10
1.690095
 20
7.628868
 30
0.0
 10
1.688780
 20
7.629656
 30
0.0
 10
1.687548
 20
7.630570
 30
0.0
 10
1.686412
 20
7.631599
 30
0.0
 10
1.685382
 20
7.632735
 30
0.0
 10
1.684469
 20
7.633967
 30
0.0
 10
1.683680
 20
7.635282
 30
0.0
 10
1.683025
 20
7.636668
 30
0.0
 10
1.682508
 20
7.638112
 30
0.0
 10
1.682136
 20
7.639600
 30
0.0
 10
1.681911
 20
7.641116
 30
0.0
 10
1.681835
 20
7.642648
 30
0.0
 10
1.681911
 20
7.644179
 30
0.0
 10
1.682136
 20
7.645696
 30
0.0
 10
1.682508
 20
7.647183
 30
0.0
 10
1.683025
 20
7.648627
 30
0.0
 10
1.683680
 20
7.650013
 30
0.0
 10
1.684469
 20
7.651329
 30
0.0
 10
1.685382
 20
7.652560
 30
0.0
 10
1.686412
 20
7.653696
 30
0.0
 10
1.687548
 20
7.654726
 30
0.0
 10
1.688780
 20
7.655640
 30
0.0
 10
1.690095
 20
7.656428
 30
0.0
 10
1.691481
 20
7.657083
 30
0.0
 10
1.692925
 20
7.657600
 30
0.0
 10
1.694412
 20
7.657973
 30
0.0
 10
1.695929
 20
7.658198
 30
0.0
 10
1.697460
 20
7.658273
 30
0.0
 10
1.698992
 20
7.658198
 30
0.0
 10
1.700509
 20
7.657973
 30
0.0
 10
1.701996
 20
7.657600
 30
0.0
 10
1.703440
 20
7.657083
 30
0.0
 10
1.704826
 20
7.656428
 30
0.0
 10
1.706141
 20
7.655640
 30
0.0
 10
1.707373
 20
7.654726
 30
0.0
 10
1.708509
 20
7.653696
 30
0.0
 10
1.709539
 20
7.652560
 30
0.0
 10
1.710452
 20
7.651329
 30
0.0
 10
1.711240
 20
7.650013
 30
0.0
 10
1.711896
 20
7.648627
 30
0.0
 10
1.712413
 20
7.647183
 30
0.0
 10
1.712785
 20
7.645696
 30
0.0
 10
1.713010
 20
7.644179
 30
0.0
 10
1.713085
 20
7.642648
 30
0.0
  0
ENDSEC
  0
SECTION
  2
OBJECTS
  0
DICTIONARY
  5
C
330
0
100
AcDbDictionary
  3
ACAD_GROUP
350
D
  3
ACAD_MLINESTYLE
350
17
  0
DICTIONARY
  5
D
330
C
100
AcDbDictionary
  0
DICTIONARY
  5
1A
330
C
100
AcDbDictionary
  0
DICTIONARY
  5
17
330
C
100
AcDbDictionary
  3
STANDARD
350
18
  0
DICTIONARY
  5
19
330
C
100
AcDbDictionary
  0
ENDSEC
  0
EOF
